<?xml version="1.0" encoding="UTF-8" standalone="no" ?>
<!DOCTYPE svg PUBLIC "-//W3C//DTD SVG 1.1//EN" "http://www.w3.org/Graphics/SVG/1.1/DTD/svg11.dtd">
<svg xmlns="http://www.w3.org/2000/svg" xmlns:xlink="http://www.w3.org/1999/xlink" version="1.1" width="1024" height="1024" viewBox="0 0 1024 1024" xml:space="preserve">
<!-- Created with SVG Stack Editor - https://svgstack.com -->
<defs>
</defs>
<rect x="0" y="0" width="100%" height="100%" fill="transparent"></rect>
<g transform="matrix(5.1 0 0 5.1 512 512)"  >
<g style=""   >
		<g transform="matrix(1 0 0 1 0 0)" id="path_0" clip-path="url(#CLIPPATH_1)"  >
<clipPath id="CLIPPATH_1" >
	<rect transform="matrix(1 0 0 1 0.07 0)" id="clip0_106_1870" x="-100" y="-77.4195" rx="0" ry="0" width="200" height="154.839" />
</clipPath>
<path style="stroke: none; stroke-width: 1; stroke-dasharray: none; stroke-linecap: butt; stroke-dashoffset: 0; stroke-linejoin: miter; stroke-miterlimit: 4; fill: rgb(255,255,255); fill-rule: nonzero; opacity: 1;"  transform=" translate(-100.85, -77.69)" d="M 170.224 13.2429 C 157.286 7.185 143.452 2.78212 128.99 0.275391 C 127.214 3.48915 125.139 7.81165 123.709 11.2504 C 108.334 8.93649 93.1015 8.93649 78.0105 11.2504 C 76.5802 7.81165 74.4576 3.48915 72.666 0.275391 C 58.1878 2.78212 44.3385 7.20107 31.401 13.2751 C 5.30587 52.74 -1.76809 91.2251 1.76889 129.163 C 19.0766 142.099 35.8497 149.956 52.3399 155.098 C 56.4114 149.49 60.0427 143.529 63.171 137.246 C 57.2131 134.98 51.5068 132.184 46.1148 128.938 C 47.5453 127.878 48.9444 126.769 50.2964 125.628 C 83.1827 141.022 118.914 141.022 151.407 125.628 C 152.774 126.769 154.174 127.878 155.589 128.938 C 150.181 132.2 144.459 134.996 138.501 137.262 C 141.629 143.529 145.245 149.506 149.332 155.114 C 165.838 149.972 182.627 142.115 199.934 129.163 C 204.085 85.1831 192.845 47.0516 170.224 13.2429 Z M 67.6511 105.832 C 57.7791 105.832 49.6833 96.6077 49.6833 85.376 C 49.6833 74.1438 57.6061 64.9044 67.6511 64.9044 C 77.6963 64.9044 85.7918 74.1277 85.6189 85.376 C 85.635 96.6077 77.6963 105.832 67.6511 105.832 Z M 134.052 105.832 C 124.18 105.832 116.084 96.6077 116.084 85.376 C 116.084 74.1438 124.007 64.9044 134.052 64.9044 C 144.097 64.9044 152.193 74.1277 152.02 85.376 C 152.02 96.6077 144.097 105.832 134.052 105.832 Z" stroke-linecap="round" />
</g>
</g>
</g>
<g transform="matrix(5.1 0 0 5.1 512 512)"  >
<g style=""   >
		<g transform="matrix(1 0 0 1 0 0)" id="path_0" clip-path="url(#CLIPPATH_2)"  >
<clipPath id="CLIPPATH_2" >
	<rect transform="matrix(1 0 0 1 0.07 0)" id="clip0_106_1870" x="-100" y="-77.4195" rx="0" ry="0" width="200" height="154.839" />
</clipPath>
<path style="stroke: none; stroke-width: 1; stroke-dasharray: none; stroke-linecap: butt; stroke-dashoffset: 0; stroke-linejoin: miter; stroke-miterlimit: 4; fill: rgb(255,255,255); fill-rule: nonzero; opacity: 1;"  transform=" translate(-100.85, -77.69)" d="M 170.224 13.2429 C 157.286 7.185 143.452 2.78212 128.99 0.275391 C 127.214 3.48915 125.139 7.81165 123.709 11.2504 C 108.334 8.93649 93.1015 8.93649 78.0105 11.2504 C 76.5802 7.81165 74.4576 3.48915 72.666 0.275391 C 58.1878 2.78212 44.3385 7.20107 31.401 13.2751 C 5.30587 52.74 -1.76809 91.2251 1.76889 129.163 C 19.0766 142.099 35.8497 149.956 52.3399 155.098 C 56.4114 149.49 60.0427 143.529 63.171 137.246 C 57.2131 134.98 51.5068 132.184 46.1148 128.938 C 47.5453 127.878 48.9444 126.769 50.2964 125.628 C 83.1827 141.022 118.914 141.022 151.407 125.628 C 152.774 126.769 154.174 127.878 155.589 128.938 C 150.181 132.2 144.459 134.996 138.501 137.262 C 141.629 143.529 145.245 149.506 149.332 155.114 C 165.838 149.972 182.627 142.115 199.934 129.163 C 204.085 85.1831 192.845 47.0516 170.224 13.2429 Z M 67.6511 105.832 C 57.7791 105.832 49.6833 96.6077 49.6833 85.376 C 49.6833 74.1438 57.6061 64.9044 67.6511 64.9044 C 77.6963 64.9044 85.7918 74.1277 85.6189 85.376 C 85.635 96.6077 77.6963 105.832 67.6511 105.832 Z M 134.052 105.832 C 124.18 105.832 116.084 96.6077 116.084 85.376 C 116.084 74.1438 124.007 64.9044 134.052 64.9044 C 144.097 64.9044 152.193 74.1277 152.02 85.376 C 152.02 96.6077 144.097 105.832 134.052 105.832 Z" stroke-linecap="round" />
</g>
</g>
</g>
</svg>