<?xml version="1.0" encoding="UTF-8"?>
<svg version="1.1" xmlns="http://www.w3.org/2000/svg" width="1216" height="1216">
<path d="M0 0 C2.23497426 1.82415463 4.40983126 3.7046765 6.5625 5.625 C7.08392578 6.08600098 7.60535156 6.54700195 8.14257812 7.02197266 C36.11810091 32.18768856 43.87769686 67.46241368 45.86176181 103.64526021 C46.48770336 116.42690078 46.70955525 129.17701818 46.70294189 141.97232056 C46.70553451 144.02392678 46.70855011 146.07553249 46.7119453 148.12713754 C46.71991325 153.69731762 46.72179907 159.26748475 46.72254276 164.83766985 C46.72441134 170.87211474 46.73196738 176.90655318 46.73867798 182.94099426 C46.75289129 196.78980664 46.75877798 210.63861717 46.76336992 224.48743505 C46.76571679 231.35106369 46.76932054 238.2146915 46.7730653 245.0783195 C46.78589063 268.63595033 46.79661099 292.19358073 46.8000679 315.75121498 C46.80028952 317.22597167 46.80051131 318.70072835 46.80073325 320.17548504 C46.80095388 321.65350959 46.80117437 323.13153415 46.8013947 324.6095587 C46.80183721 327.5740157 46.80228434 330.53847269 46.80273438 333.50292969 C46.80284377 334.23792537 46.80295316 334.97292105 46.80306586 335.73018932 C46.80669221 359.53394715 46.82260153 383.33767444 46.84592474 407.14142059 C46.87061713 432.38932104 46.88424505 457.63720407 46.88543582 482.88511693 C46.88560724 485.6658264 46.88582265 488.44653587 46.88607025 491.22724533 C46.88612602 491.91178718 46.88618179 492.59632904 46.88623925 493.30161458 C46.88738143 504.23372648 46.89833147 515.16580657 46.91295731 526.09790779 C46.92744792 537.12093639 46.93024044 548.14393023 46.92251733 559.16696657 C46.91864991 565.11780186 46.91934541 571.06853199 46.93357468 577.01935387 C47.16944144 681.7859455 47.16944144 681.7859455 18.5625 714.625 C17.87414062 715.44613281 17.18578125 716.26726563 16.4765625 717.11328125 C-2.96423481 739.67723914 -31.95962803 754.29350768 -61.66455078 756.81396484 C-100.4122255 759.11572463 -136.05820016 739.1172191 -168.50585938 720.31054688 C-173.74433163 717.29868708 -179.03269649 714.37607459 -184.3125 711.4375 C-191.87684683 707.21254536 -199.40162967 702.93530783 -206.8527832 698.51391602 C-213.20439124 694.74722066 -219.60015619 691.05903603 -226 687.375 C-234.45420974 682.50733204 -242.89276577 677.61454641 -251.3125 672.6875 C-260.58305006 667.26526238 -269.89686858 661.92175898 -279.22796631 656.60476685 C-288.30528636 651.43121213 -297.34321533 646.19357846 -306.359375 640.9140625 C-314.0232377 636.43333854 -321.72428835 632.01993248 -329.4375 627.625 C-339.11231219 622.11236165 -348.75032137 616.54075433 -358.359375 610.9140625 C-366.61178126 606.08924296 -374.90884023 601.34489861 -383.2144165 596.61254883 C-391.60738874 591.82913044 -399.97239965 587.00019178 -408.3125 582.125 C-409.29831055 581.55064209 -410.28412109 580.97628418 -411.29980469 580.38452148 C-415.51442329 577.92767042 -419.72117275 575.46131401 -423.8984375 572.94140625 C-424.55086426 572.55339844 -425.20329102 572.16539062 -425.87548828 571.765625 C-427.53132566 570.78042184 -429.18011216 569.78339289 -430.828125 568.78515625 C-433.29182056 567.45860078 -433.29182056 567.45860078 -435.6015625 567.71484375 C-437.89045084 568.84954797 -438.9797732 570.12074295 -440.5625 572.125 C-462.07636297 597.62458916 -497.24812473 613.66976919 -530.22607422 616.47998047 C-569.03138577 619.02473152 -604.67095491 608.74626436 -635.15625 584.3359375 C-637.68102786 582.4423541 -640.30281255 580.82507809 -643 579.1875 C-669.43622396 562.55885704 -675.39749423 527.58812352 -681.94587708 499.43972778 C-682.56992782 495.86680047 -682.79236672 492.30565409 -682.98022461 488.68945312 C-683.02204581 487.90415474 -683.06386702 487.11885635 -683.10695553 486.30976105 C-683.59538532 476.4092347 -683.66986067 466.50432766 -683.75390625 456.59375 C-683.7746072 454.48835467 -683.79560556 452.38296225 -683.81687927 450.27757263 C-683.87195907 444.70529805 -683.9215121 439.13298757 -683.96972656 433.56064987 C-684.00009553 430.11415879 -684.03232368 426.66769008 -684.06518555 423.22122192 C-684.27474148 401.20900526 -684.47797092 379.19698674 -684.46484375 357.18359375 C-684.46445162 356.48234501 -684.46405949 355.78109627 -684.46365547 355.05859756 C-684.45835749 348.20952971 -684.43796525 341.36068364 -684.40063477 334.51171875 C-684.39636978 333.43696793 -684.3921048 332.3622171 -684.38771057 331.25489807 C-684.37959249 329.31325386 -684.3673442 327.37161961 -684.34971619 325.43003845 C-684.33374113 321.33314136 -684.48809322 317.63283976 -685.4375 313.625 C-685.56532974 309.91793762 -685.61304079 307.15162236 -684.4375 303.625 C-684.34096159 301.79384411 -684.30208033 299.95942004 -684.2956543 298.12573242 C-684.28510262 296.43071846 -684.28510262 296.43071846 -684.27433777 294.70146179 C-684.27017349 293.47353409 -684.26600922 292.24560638 -684.26171875 290.98046875 C-684.24444375 289.0298106 -684.22714334 287.07915237 -684.20851612 285.12850666 C-684.16332471 280.33725131 -684.12547187 275.54609424 -684.11157227 270.75463867 C-683.97518018 229.97313301 -675.06807352 195.1955733 -648.4375 163.625 C-647.92574219 162.99078125 -647.41398438 162.3565625 -646.88671875 161.703125 C-643.15128792 157.15214188 -638.98856312 153.34996255 -634.4375 149.625 C-633.04917969 148.4803125 -633.04917969 148.4803125 -631.6328125 147.3125 C-613.56929938 132.74347657 -592.3555131 121.87733108 -569.4375 117.625 C-568.49640381 117.44912354 -567.55530762 117.27324707 -566.58569336 117.09204102 C-558.27526476 115.66911342 -550.17269865 115.27454526 -541.75 115.3125 C-539.77217529 115.32095947 -539.77217529 115.32095947 -537.75439453 115.32958984 C-527.68962732 115.45439543 -518.20216844 116.18828351 -508.4375 118.625 C-507.65826172 118.81304199 -506.87902344 119.00108398 -506.07617188 119.19482422 C-480.33096152 125.60055055 -458.2665816 139.11753315 -439.4375 157.625 C-438.50421875 158.51316406 -437.5709375 159.40132812 -436.609375 160.31640625 C-434.4375 162.625 -434.4375 162.625 -434.4375 164.625 C-425.49719586 160.31728953 -416.79235571 155.77478939 -408.27392578 150.68115234 C-402.36050304 147.14899144 -396.38051736 143.74791325 -390.375 140.375 C-381.40950594 135.33060776 -372.50443901 130.19112082 -363.6262207 124.99487305 C-353.01824778 118.78743448 -342.36982406 112.65091105 -331.71972656 106.51611328 C-326.29090058 103.38819852 -320.86430719 100.25641552 -315.4375 97.125 C-313.27084417 95.87498121 -311.1041775 94.62498122 -308.9375 93.375 C-307.865 92.75625 -306.7925 92.1375 -305.6875 91.5 C-295.9375 85.875 -295.9375 85.875 -292.68701172 83.99975586 C-290.52192929 82.75064482 -288.35689018 81.50145871 -286.19189453 80.25219727 C-280.75134294 77.11297691 -275.31002784 73.97509437 -269.8671875 70.83984375 C-259.37517869 64.7944482 -248.89271288 58.73384752 -238.4375 52.625 C-219.7099881 41.68372621 -200.91851224 30.85179755 -182.06787109 20.12402344 C-179.32021586 18.55816088 -176.57618076 16.98605938 -173.83203125 15.4140625 C-118.49454732 -16.19526508 -57.45514799 -44.88859538 0 0 Z " fill="#FEFEFE" transform="translate(753.4375,241.375)"/>
<path d="M0 0 C0.85722656 0.32742188 1.71445312 0.65484375 2.59765625 0.9921875 C10.36711993 4.36593242 16.04225885 10.14200794 22 16 C22.60972656 16.56460937 23.21945312 17.12921875 23.84765625 17.7109375 C25 19 25 19 25 21 C25.55171875 21.226875 26.1034375 21.45375 26.671875 21.6875 C29.68692417 23.38725926 31.81230369 25.54804816 34.25 28 C35.14203125 28.886875 36.0340625 29.77375 36.953125 30.6875 C39 33 39 33 39 35 C39.87398437 35.38671875 39.87398437 35.38671875 40.765625 35.78125 C43.1802903 37.09834017 44.81740177 38.55088384 46.75 40.5 C47.36359375 41.1084375 47.9771875 41.716875 48.609375 42.34375 C50 44 50 44 50 46 C50.99 46.33 51.98 46.66 53 47 C53 47.66 53 48.32 53 49 C53.57073242 49.24621094 54.14146484 49.49242187 54.72949219 49.74609375 C57.3784281 51.20898997 59.18548546 52.92645319 61.328125 55.0625 C62.12734375 55.85914063 62.9265625 56.65578125 63.75 57.4765625 C64.575 58.30929687 65.4 59.14203125 66.25 60 C67.09046875 60.83273437 67.9309375 61.66546875 68.796875 62.5234375 C69.5909375 63.32007813 70.385 64.11671875 71.203125 64.9375 C71.93176758 65.66839844 72.66041016 66.39929688 73.41113281 67.15234375 C75 69 75 69 75 71 C76.8514936 71.71174979 76.8514936 71.71174979 79 72 C81.27304893 70.18609608 83.16997166 68.41956849 85.17041016 66.33374023 C85.77915985 65.7192955 86.38790955 65.10485077 87.0151062 64.4717865 C88.3389479 63.13223786 89.65694681 61.78689601 90.96980667 60.43658257 C93.05343123 58.29381718 95.15183116 56.16658129 97.25473022 54.04273987 C101.72560668 49.5214512 106.17591049 44.98021291 110.625 40.4375 C115.76153475 35.19676546 120.9063607 29.9645265 126.06733322 24.74785042 C128.12430927 22.66141629 130.1682872 20.56282945 132.21182251 18.46324158 C138.653399 11.9049431 144.66278814 6.12547499 153 2 C153.94875 1.443125 154.8975 0.88625 155.875 0.3125 C171.73739156 -6.34970446 186.96645877 -5.04284952 202.74609375 1.0625 C216.91257597 7.42747173 226.41804518 20.08280378 232.08984375 34.17578125 C236.65423706 48.33911328 234.97437003 65.4812547 228.375 78.625 C221.82164434 89.66016397 211.69562613 98.44171325 202.65234375 107.4453125 C201.38703269 108.7087538 200.1219457 109.97241953 198.85707092 111.23629761 C195.55993019 114.52965711 192.2597956 117.82000002 188.95898438 121.10968018 C185.57823093 124.48012396 182.20037831 127.85347232 178.82226562 131.2265625 C172.21764702 137.82052149 165.60985546 144.41129079 159 151 C160.82738965 154.99255336 163.47574973 157.63561015 166.625 160.625 C168.47207201 162.37971841 170.24397039 164.15000225 172 166 C172 166.66 172 167.32 172 168 C172.55171875 168.226875 173.1034375 168.45375 173.671875 168.6875 C176.68692417 170.38725926 178.81230369 172.54804816 181.25 175 C182.58804688 176.3303125 182.58804688 176.3303125 183.953125 177.6875 C186 180 186 180 186 182 C186.57073242 182.24621094 187.14146484 182.49242187 187.72949219 182.74609375 C190.3784281 184.20898997 192.18548546 185.92645319 194.328125 188.0625 C195.12734375 188.85914063 195.9265625 189.65578125 196.75 190.4765625 C197.9875 191.72566406 197.9875 191.72566406 199.25 193 C200.09046875 193.83273437 200.9309375 194.66546875 201.796875 195.5234375 C202.5909375 196.32007813 203.385 197.11671875 204.203125 197.9375 C204.93176758 198.66839844 205.66041016 199.39929688 206.41113281 200.15234375 C208 202 208 202 208 204 C208.59039063 204.26683594 209.18078125 204.53367187 209.7890625 204.80859375 C220.3654066 210.50786045 226.21875444 223.21365808 230 234 C233.68987873 247.35829515 231.74116008 263.58426916 225.609375 275.76171875 C224.18282313 278.27320085 222.65833059 280.63635412 221 283 C220.58363281 283.61230469 220.16726563 284.22460938 219.73828125 284.85546875 C212.25460361 294.67639106 198.17794287 302.91154139 186.0625 304.8125 C184.71026582 304.90808412 183.35518326 304.96605981 182 305 C181.00097656 305.03867187 180.00195312 305.07734375 178.97265625 305.1171875 C162.67635529 305.45946687 148.38483577 300.93419615 136 290 C135.00630385 288.87354722 134.02786893 287.7335629 133.05957031 286.58520508 C128.1079823 280.88081371 122.72995244 275.60564701 117.37890625 270.28125 C116.26767877 269.17189167 115.15667488 268.06230933 114.04588318 266.95251465 C111.14655629 264.05697384 108.24423728 261.16445093 105.34124756 258.27258301 C102.36953694 255.31117136 99.40071733 252.34686446 96.43164062 249.3828125 C90.6238918 243.5857319 84.81297327 237.7918418 79 232 C72.65027929 237.17441732 66.96329814 242.96270645 61.2251358 248.79139519 C59.4188515 250.6246286 57.60796218 252.45319345 55.79559326 254.28041077 C50.64678307 259.47165551 45.50065646 264.66545924 40.37109375 269.87573242 C37.22064077 273.07507708 34.06019116 276.26425505 30.8932724 279.44729805 C29.6984484 280.65192889 28.50726377 281.8601822 27.32004547 283.07230949 C14.80800771 295.84097868 2.49746888 304.98715116 -16.06323242 305.19116211 C-33.37027887 305.16217855 -46.47862595 300.89858252 -59.3046875 288.91796875 C-61 287 -61 287 -61 285 C-61.99 284.67 -62.98 284.34 -64 284 C-67.90514076 278.21347632 -70.97015033 271.68102839 -73 265 C-73.20496094 264.32839844 -73.40992188 263.65679688 -73.62109375 262.96484375 C-77.70227474 247.456356 -73.8842906 232.42107307 -66.38267517 218.66921997 C-62.02858657 211.55943673 -55.67791423 205.9501788 -49.75390625 200.16796875 C-48.37253938 198.79781924 -46.99251105 197.42631905 -45.61375427 196.05354309 C-42.01518502 192.47767168 -38.39896175 188.92020555 -34.77850342 185.36651611 C-31.07372737 181.72357647 -27.38628646 178.06317801 -23.69726562 174.40429688 C-16.48152068 167.25252773 -9.24696754 160.1201196 -2 153 C-3.6358417 148.79282013 -6.74840424 146.02066594 -9.91503906 142.93725586 C-10.5201683 142.33986603 -11.12529755 141.7424762 -11.74876404 141.12698364 C-13.06221241 139.83117437 -14.37785033 138.53758155 -15.69541168 137.24595451 C-17.78654476 135.19431913 -19.8700069 133.13518239 -21.95135498 131.07362366 C-27.86982322 125.21309962 -33.79756774 119.36210332 -39.74072266 113.52661133 C-43.37840999 109.95375288 -47.00347899 106.36848403 -50.62114716 102.77536201 C-51.99584962 101.41482903 -53.37519472 100.05896915 -54.75940704 98.70811272 C-62.22901341 91.415917 -68.81287602 84.75698641 -73 75 C-73.47050781 73.90945313 -73.94101562 72.81890625 -74.42578125 71.6953125 C-74.71839844 70.84710937 -75.01101563 69.99890625 -75.3125 69.125 C-75.61800781 68.26132812 -75.92351563 67.39765625 -76.23828125 66.5078125 C-80.54395861 52.3321978 -77.91232326 37.24007526 -71.3125 24.1875 C-62.65828749 9.59029445 -49.97770327 0.63930251 -33.64453125 -3.61328125 C-22.04399119 -5.30966746 -10.86413865 -4.45179087 0 0 Z " fill="#FFFFFF" transform="translate(950,458)"/>
<path d="M0 0 C-1.20898891 3.62696672 -1.98143403 3.84508571 -5.234375 5.63671875 C-6.11262939 6.12785156 -6.99088379 6.61898438 -7.89575195 7.125 C-8.83765381 7.640625 -9.77955566 8.15625 -10.75 8.6875 C-12.67676114 9.76256862 -14.60254481 10.83939095 -16.52734375 11.91796875 C-17.46690918 12.44310059 -18.40647461 12.96823242 -19.37451172 13.50927734 C-22.7446774 15.42281944 -26.0289189 17.44146214 -29.3125 19.5 C-41.34375 27 -41.34375 27 -45 27 C-45 27.66 -45 28.32 -45 29 C-46.32 29 -47.64 29 -49 29 C-49 29.66 -49 30.32 -49 31 C-55.478125 35.11111779 -55.478125 35.11111779 -58.12011719 34.54858398 C-58.74047852 34.36755127 -59.36083984 34.18651855 -60 34 C-51.97091935 29.15505326 -43.88436252 24.41429401 -35.77880859 19.69873047 C-30.23473856 16.47209017 -24.69695677 13.23563334 -19.171875 9.9765625 C-18.07504395 9.33138672 -16.97821289 8.68621094 -15.84814453 8.02148438 C-13.72731595 6.77359796 -11.60844138 5.52238367 -9.49169922 4.26757812 C-8.5379541 3.70748047 -7.58420898 3.14738281 -6.6015625 2.5703125 C-5.33820068 1.82418701 -5.33820068 1.82418701 -4.04931641 1.06298828 C-2 0 -2 0 0 0 Z " fill="#CDCDCD" transform="translate(489,310)"/>
<path d="M0 0 C-2.69936647 2.69936647 -4.40204079 2.3970826 -8.1875 2.75 C-15.30470267 3.54577326 -22.13751141 5.13418047 -29.0625 6.9375 C-30.04951904 7.19047852 -31.03653809 7.44345703 -32.0534668 7.70410156 C-37.04694811 9.03387575 -41.40184233 10.59690668 -46 13 C-46.99 13 -47.98 13 -49 13 C-48 10 -48 10 -45.98486328 8.97265625 C-45.10556152 8.67230469 -44.22625977 8.37195313 -43.3203125 8.0625 C-42.33716064 7.72597412 -41.35400879 7.38944824 -40.34106445 7.04272461 C-39.27976318 6.69862549 -38.21846191 6.35452637 -37.125 6 C-36.04758545 5.64623291 -34.9701709 5.29246582 -33.86010742 4.92797852 C-9.69164345 -2.73354046 -9.69164345 -2.73354046 0 0 Z " fill="#D8D8D8" transform="translate(683,218)"/>
<path d="M0 0 C1.16571533 0.06058594 2.33143066 0.12117187 3.5324707 0.18359375 C7.85420798 0.40800429 12.17599712 0.63140188 16.49780273 0.85449219 C18.36891082 0.95122047 20.24000469 1.04822409 22.11108398 1.14550781 C24.79927955 1.2852284 27.48752454 1.42396133 30.17578125 1.5625 C31.43217155 1.62812134 31.43217155 1.62812134 32.71394348 1.69506836 C35.8128391 1.85403222 38.89644475 2 42 2 C42 2.66 42 3.32 42 4 C31.30241976 6.6529999 19.11085237 5.5059694 8.375 3.625 C7.64700195 3.49899414 6.91900391 3.37298828 6.16894531 3.24316406 C4.4292068 2.90597936 2.71064606 2.46268095 1 2 C0.67 1.34 0.34 0.68 0 0 Z " fill="#CCCCCC" transform="translate(657,993)"/>
<path d="M0 0 C5.40859872 0.5457577 9.75139948 1.88478373 14.6875 4.125 C15.38012939 4.4348584 16.07275879 4.7447168 16.78637695 5.06396484 C33.98596764 12.91203329 33.98596764 12.91203329 40 20 C37.625 19.75 37.625 19.75 35 19 C34.69707031 18.35289062 34.39414062 17.70578125 34.08203125 17.0390625 C33.19469991 14.87458079 33.19469991 14.87458079 31.22265625 14.1640625 C30.15337891 13.89722656 30.15337891 13.89722656 29.0625 13.625 C25.2403001 12.51375338 22.11765523 11.01832323 18.6875 9 C13.69780279 6.14168689 8.96591773 4.80204358 3.3359375 3.73828125 C2.56507813 3.49464844 1.79421875 3.25101563 1 3 C0.67 2.01 0.34 1.02 0 0 Z " fill="#D9D9D9" transform="translate(712,222)"/>
<path d="M0 0 C0 0.99 0 1.98 0 3 C-1.70929688 3.83144531 -1.70929688 3.83144531 -3.453125 4.6796875 C-8.01167992 6.95896496 -12.37872077 9.50844387 -16.75 12.125 C-18.22323552 13.00381701 -19.6971708 13.88146225 -21.171875 14.7578125 C-21.8122168 15.1408252 -22.45255859 15.52383789 -23.11230469 15.91845703 C-23.73524414 16.27536621 -24.35818359 16.63227539 -25 17 C-25.65645508 17.39687012 -26.31291016 17.79374023 -26.98925781 18.20263672 C-29.42165912 19.16720965 -30.57751849 18.86517197 -33 18 C-32.23856689 17.56131592 -31.47713379 17.12263184 -30.69262695 16.6706543 C-27.85030036 15.03282451 -25.00820408 13.39459648 -22.16625977 11.75610352 C-20.93946294 11.04891404 -19.71257625 10.34188043 -18.4855957 9.63500977 C-16.71541709 8.61516264 -14.94556931 7.59474343 -13.17578125 6.57421875 C-12.11270752 5.96151123 -11.04963379 5.34880371 -9.9543457 4.7175293 C-8.03187956 3.59989032 -6.12542012 2.45409325 -4.23901367 1.27661133 C-2 0 -2 0 0 0 Z " fill="#DCDCDC" transform="translate(413,354)"/>
<path d="M0 0 C0.99 0.66 1.98 1.32 3 2 C0.87767021 3.17176518 -1.24757791 4.33754785 -3.375 5.5 C-3.97828125 5.83386719 -4.5815625 6.16773438 -5.203125 6.51171875 C-9.7734375 9 -9.7734375 9 -12 9 C-12 9.66 -12 10.32 -12 11 C-13.32 11 -14.64 11 -16 11 C-16 11.66 -16 12.32 -16 13 C-22.45 17.09326923 -22.45 17.09326923 -25.234375 16.62109375 C-25.81703125 16.41613281 -26.3996875 16.21117187 -27 16 C-18.04626958 10.58816294 -9.02237689 5.29619804 0 0 Z " fill="#D9D9D9" transform="translate(456,328)"/>
<path d="M0 0 C0.33 0 0.66 0 1 0 C0.73293995 7.05038542 -0.23439759 13.73140917 -1.9375 20.5625 C-2.10733398 21.25279297 -2.27716797 21.94308594 -2.45214844 22.65429688 C-3.29333788 25.89407795 -4.12404428 28.18606643 -6 31 C-6 29.02 -6 27.04 -6 25 C-5.34 25 -4.68 25 -4 25 C-4.176521 24.42475586 -4.35304199 23.84951172 -4.53491211 23.25683594 C-5.03176075 20.84588118 -4.89670673 19.29461154 -4.44140625 16.890625 C-4.30283203 16.13652344 -4.16425781 15.38242187 -4.02148438 14.60546875 C-3.87001953 13.82816406 -3.71855469 13.05085937 -3.5625 12.25 C-3.41490234 11.45722656 -3.26730469 10.66445313 -3.11523438 9.84765625 C-2.75096034 7.89702754 -2.37647488 5.9483107 -2 4 C-1.34 4 -0.68 4 0 4 C0 2.68 0 1.36 0 0 Z " fill="#CECECE" transform="translate(796,891)"/>
<path d="M0 0 C3.73487777 0.4979837 5.81237635 0.87491756 9 3 C9 3.66 9 4.32 9 5 C11.97 5.495 11.97 5.495 15 6 C15 6.66 15 7.32 15 8 C15.70125 8.0825 16.4025 8.165 17.125 8.25 C20.6903452 9.18009005 23.09015572 10.76686369 26 13 C26 13.66 26 14.32 26 15 C20.57698494 13.47396873 16.10792527 10.92982503 11.3125 8.0625 C10.55388672 7.61970703 9.79527344 7.17691406 9.01367188 6.72070312 C5.62601812 4.71442274 2.7059923 2.89228765 0 0 Z " fill="#C4C4C4" transform="translate(466,892)"/>
<path d="M0 0 C0.66 0 1.32 0 2 0 C2 5.94 2 11.88 2 18 C1.34 18 0.68 18 0 18 C-1.52491129 14.95017742 -1.14361434 11.77877461 -1.125 8.4375 C-1.12886719 7.73947266 -1.13273438 7.04144531 -1.13671875 6.32226562 C-1.12663994 1.12663994 -1.12663994 1.12663994 0 0 Z " fill="#EEEEEE" transform="translate(798,834)"/>
<path d="M0 0 C0.99 0.33 1.98 0.66 3 1 C-10.08105469 11.96582031 -10.08105469 11.96582031 -17 15 C-17.99 14.67 -18.98 14.34 -20 14 C-18.68 13.67 -17.36 13.34 -16 13 C-16 12.34 -16 11.68 -16 11 C-15.01 11 -14.02 11 -13 11 C-13 10.34 -13 9.68 -13 9 C-11.35 8.67 -9.7 8.34 -8 8 C-7.67 7.01 -7.34 6.02 -7 5 C-5 4.33333333 -3 3.66666667 -1 3 C-0.67 2.01 -0.34 1.02 0 0 Z " fill="#C4C4C4" transform="translate(755,969)"/>
<path d="M0 0 C10.95598073 2.99959861 10.95598073 2.99959861 15 6 C15.33 6.66 15.66 7.32 16 8 C17.7325 8.7115625 17.7325 8.7115625 19.5 9.4375 C20.655 9.953125 21.81 10.46875 23 11 C23.33 11.99 23.66 12.98 24 14 C18.73202405 11.99839031 14.04578982 9.26697379 9.1875 6.4375 C8.30384766 5.93025391 7.42019531 5.42300781 6.50976562 4.90039062 C5.67509766 4.41634766 4.84042969 3.93230469 3.98046875 3.43359375 C2.83421021 2.76928345 2.83421021 2.76928345 1.66479492 2.09155273 C1.1154126 1.73134033 0.56603027 1.37112793 0 1 C0 0.67 0 0.34 0 0 Z " fill="#C7C7C7" transform="translate(381,843)"/>
<path d="M0 0 C0 0.99 0 1.98 0 3 C-2.41032251 4.20216334 -4.82683479 5.38674978 -7.25 6.5625 C-8.27287109 7.07586914 -8.27287109 7.07586914 -9.31640625 7.59960938 C-13.02168909 9.38030356 -15.07871478 10.3058334 -19 9 C-16.2118978 7.4933028 -13.41896042 5.99580196 -10.625 4.5 C-9.8309375 4.07074219 -9.036875 3.64148438 -8.21875 3.19921875 C-7.45820312 2.79316406 -6.69765625 2.38710937 -5.9140625 1.96875 C-4.8614624 1.40317383 -4.8614624 1.40317383 -3.78759766 0.82617188 C-2 0 -2 0 0 0 Z " fill="#DFDFDF" transform="translate(618,237)"/>
<path d="M0 0 C5.5338604 0.49132405 9.26010874 2.58002372 13.875 5.4375 C14.56335938 5.84548828 15.25171875 6.25347656 15.9609375 6.67382812 C17.68053839 7.71957747 19.34607742 8.85319618 21 10 C21 10.66 21 11.32 21 12 C16.26525903 10.3003494 12.03832889 7.86340973 7.6875 5.375 C6.94693359 4.95476563 6.20636719 4.53453125 5.44335938 4.1015625 C3.62730989 3.07051505 1.81343467 2.03563954 0 1 C0 0.67 0 0.34 0 0 Z " fill="#C4C4C4" transform="translate(540,935)"/>
<path d="M0 0 C3.46819817 6.53102253 5.20472874 13.6835044 6 21 C5.01 20.67 4.02 20.34 3 20 C1.05494784 15.59386143 0.64525238 11.39945865 0.375 6.625 C0.30023437 5.37976563 0.22546875 4.13453125 0.1484375 2.8515625 C0.09945312 1.91054688 0.05046875 0.96953125 0 0 Z " fill="#C9C9C9" transform="translate(789,290)"/>
<path d="M0 0 C-3.92282495 3.92282495 -10.76128725 3.05411201 -16.0625 3.0625 C-17.361875 3.041875 -18.66125 3.02125 -20 3 C-19.67 2.34 -19.34 1.68 -19 1 C-16.015625 0.33203125 -16.015625 0.33203125 -12.25 -0.1875 C-10.40148437 -0.45626953 -10.40148437 -0.45626953 -8.515625 -0.73046875 C-5.35221679 -0.97299671 -3.03825636 -0.81754608 0 0 Z " fill="#C0C0C0" transform="translate(683,218)"/>
<path d="M0 0 C-2.74004941 2.74004941 -5.85050373 3.20409907 -9.5 4.125 C-10.53447266 4.39763672 -10.53447266 4.39763672 -11.58984375 4.67578125 C-16.69754464 6 -16.69754464 6 -19 6 C-19 5.34 -19 4.68 -19 4 C-16.96185767 3.32263519 -14.91929445 2.65856466 -12.875 2 C-11.73804688 1.62875 -10.60109375 1.2575 -9.4296875 0.875 C-6.12104059 0.03088051 -3.39471984 -0.16509276 0 0 Z " fill="#CACACA" transform="translate(722,990)"/>
<path d="M0 0 C-0.19921875 1.82421875 -0.19921875 1.82421875 -1 4 C-3.14453125 5.51953125 -3.14453125 5.51953125 -5.8125 6.8125 C-6.68519531 7.25207031 -7.55789063 7.69164062 -8.45703125 8.14453125 C-11.19038776 9.06404749 -12.34787595 9.0076835 -15 8 C-14.31292969 7.59007812 -13.62585938 7.18015625 -12.91796875 6.7578125 C-12.01691406 6.21898437 -11.11585938 5.68015625 -10.1875 5.125 C-9.29417969 4.59132813 -8.40085937 4.05765625 -7.48046875 3.5078125 C-1.70984456 0 -1.70984456 0 0 0 Z " fill="#D1D1D1" transform="translate(352,389)"/>
<path d="M0 0 C12.35068106 2.86558725 12.35068106 2.86558725 16.125 7.75 C16.41375 8.4925 16.7025 9.235 17 10 C12.97683781 8.51463956 9.38707358 6.60123107 5.6875 4.4375 C4.61886719 3.81746094 3.55023438 3.19742188 2.44921875 2.55859375 C1.64097656 2.04425781 0.83273437 1.52992188 0 1 C0 0.67 0 0.34 0 0 Z " fill="#DADADA" transform="translate(419,865)"/>
<path d="M0 0 C1.91808109 0.45237761 3.83442033 0.91214463 5.75 1.375 C6.81734375 1.63023437 7.8846875 1.88546875 8.984375 2.1484375 C11.59225605 2.88485987 13.73322574 3.52765597 16 5 C16.33 5.99 16.66 6.98 17 8 C11.00067626 6.1668733 5.55079437 3.92678249 0 1 C0 0.67 0 0.34 0 0 Z " fill="#CFCFCF" transform="translate(620,979)"/>
<path d="M0 0 C0.66 0 1.32 0 2 0 C1.67 6.6 1.34 13.2 1 20 C0.67 20 0.34 20 0 20 C-0.99258638 15.8721011 -1.13386843 11.9891109 -1.125 7.75 C-1.12757813 6.50734375 -1.13015625 5.2646875 -1.1328125 3.984375 C-1 1 -1 1 0 0 Z " fill="#ECECEC" transform="translate(798,362)"/>
<path d="M0 0 C2.99381354 2.80466193 5.1993621 5.61184269 7.3125 9.125 C8.11107422 10.42824219 8.11107422 10.42824219 8.92578125 11.7578125 C9.28027344 12.49773437 9.63476562 13.23765625 10 14 C9.67 14.66 9.34 15.32 9 16 C8.34 15.67 7.68 15.34 7 15 C7 13.68 7 12.36 7 11 C6.34 11 5.68 11 5 11 C3.7109375 9.609375 3.7109375 9.609375 2.375 7.75 C1.92898438 7.14671875 1.48296875 6.5434375 1.0234375 5.921875 C0 4 0 4 0 0 Z " fill="#D1D1D1" transform="translate(774,263)"/>
<path d="M0 0 C3.66579598 0.58496744 6.50499144 1.57826707 9.75 3.375 C10.52859375 3.79523437 11.3071875 4.21546875 12.109375 4.6484375 C14 6 14 6 15 9 C11.32305352 7.62859834 8.04681411 5.96304199 4.6875 3.9375 C3.80449219 3.41027344 2.92148437 2.88304687 2.01171875 2.33984375 C1.34785156 1.89769531 0.68398438 1.45554687 0 1 C0 0.67 0 0.34 0 0 Z " fill="#D3D3D3" transform="translate(508,916)"/>
<path d="M0 0 C0 0.99 0 1.98 0 3 C-1.828125 4.640625 -1.828125 4.640625 -4.25 6.25 C-5.03890625 6.79140625 -5.8278125 7.3328125 -6.640625 7.890625 C-9 9 -9 9 -11.296875 8.671875 C-11.85890625 8.45015625 -12.4209375 8.2284375 -13 8 C-11.58531689 7.03874097 -10.1681636 6.08111675 -8.75 5.125 C-7.96109375 4.59132813 -7.1721875 4.05765625 -6.359375 3.5078125 C-4.28444308 2.18177985 -2.22385028 1.05071825 0 0 Z " fill="#C3C3C3" transform="translate(470,320)"/>
<path d="M0 0 C1.32 0 2.64 0 4 0 C4 0.66 4 1.32 4 2 C4.60328125 2.19335938 5.2065625 2.38671875 5.828125 2.5859375 C7.02695312 2.97652344 7.02695312 2.97652344 8.25 3.375 C9.03890625 3.63023437 9.8278125 3.88546875 10.640625 4.1484375 C12.90275371 4.96490117 14.95006514 5.73919935 17 7 C17.33 7.99 17.66 8.98 18 10 C13.85967154 8.45614871 10.06446947 6.48971062 6.1875 4.375 C5.59001953 4.05015625 4.99253906 3.7253125 4.37695312 3.390625 C2.91662865 2.59620849 1.45812509 1.79844624 0 1 C0 0.67 0 0.34 0 0 Z " fill="#C3C3C3" transform="translate(589,963)"/>
<path d="M0 0 C0.9796875 0.09023437 1.959375 0.18046875 2.96875 0.2734375 C5.5 0.625 5.5 0.625 7.5 1.625 C7.5 2.285 7.5 2.945 7.5 3.625 C5.18690295 3.51158363 2.87449815 3.38396193 0.5625 3.25 C-1.36916016 3.14558594 -1.36916016 3.14558594 -3.33984375 3.0390625 C-4.90412109 2.83410156 -4.90412109 2.83410156 -6.5 2.625 C-6.83 1.965 -7.16 1.305 -7.5 0.625 C-4.80450572 -0.72274714 -2.98451765 -0.29059777 0 0 Z " fill="#BEBEBE" transform="translate(692.5,217.375)"/>
<path d="M0 0 C3.56425699 1.31447775 6.59724634 2.88405795 9.75 5 C10.52859375 5.515625 11.3071875 6.03125 12.109375 6.5625 C14 8 14 8 15 10 C12.625 9.75 12.625 9.75 10 9 C9.71125 8.360625 9.4225 7.72125 9.125 7.0625 C8.07853424 4.56797082 8.07853424 4.56797082 4.4375 3.9375 C3.303125 3.628125 2.16875 3.31875 1 3 C0.67 2.01 0.34 1.02 0 0 Z " fill="#C3C3C3" transform="translate(737,232)"/>
<path d="M0 0 C0 0.99 0 1.98 0 3 C-4.07142845 6.57541686 -8.58961609 8.59422121 -14 9 C-9.7045025 5.25876024 -5.00099548 2.65848126 0 0 Z " fill="#CFCFCF" transform="translate(427,345)"/>
<path d="M0 0 C0 0.66 0 1.32 0 2 C-2.08203125 3.54296875 -2.08203125 3.54296875 -4.8125 5.1875 C-6.15248047 6.01314453 -6.15248047 6.01314453 -7.51953125 6.85546875 C-10 8 -10 8 -13 7 C-4.25 0 -4.25 0 0 0 Z " fill="#C6C6C6" transform="translate(555,272)"/>
<path d="M0 0 C-0.33 0.99 -0.66 1.98 -1 3 C-2.98 3.33 -4.96 3.66 -7 4 C-7 4.66 -7 5.32 -7 6 C-9.64 6.33 -12.28 6.66 -15 7 C-11.19791273 3.69383716 -5.16418515 0 0 0 Z " fill="#D2D2D2" transform="translate(633,230)"/>
<path d="M0 0 C0.66 0 1.32 0 2 0 C0.55575365 3.23861303 -1.25772247 5.61969163 -3.625 8.25 C-4.25664063 8.95640625 -4.88828125 9.6628125 -5.5390625 10.390625 C-6.02117188 10.92171875 -6.50328125 11.4528125 -7 12 C-7.33 11.01 -7.66 10.02 -8 9 C-6.85546875 7.17578125 -6.85546875 7.17578125 -5.1875 5.3125 C-4.64480469 4.68988281 -4.10210938 4.06726563 -3.54296875 3.42578125 C-2 2 -2 2 0 2 C0 1.34 0 0.68 0 0 Z " fill="#D0D0D0" transform="translate(773,951)"/>
<path d="M0 0 C4.35522853 0.50642192 7.44239635 1.38411497 11 4 C11 4.66 11 5.32 11 6 C11.66 6 12.32 6 13 6 C12.67 6.66 12.34 7.32 12 8 C9.99743426 6.85865673 7.99800203 5.71181367 6 4.5625 C4.88625 3.92441406 3.7725 3.28632812 2.625 2.62890625 C1.75875 2.09136719 0.8925 1.55382812 0 1 C0 0.67 0 0.34 0 0 Z " fill="#BFBFBF" transform="translate(322,809)"/>
<path d="M0 0 C5.26371362 -0.50130606 7.9090934 0.68831371 12 4 C12 4.66 12 5.32 12 6 C7.76570244 4.68938409 3.92592596 3.05643741 0 1 C0 0.67 0 0.34 0 0 Z " fill="#CDCDCD" transform="translate(607,973)"/>
<path d="M0 0 C0 0.66 0 1.32 0 2 C-0.66 2 -1.32 2 -2 2 C-2 2.66 -2 3.32 -2 4 C-3.4317616 4.69937202 -4.87067032 5.38412718 -6.3125 6.0625 C-7.51326172 6.63677734 -7.51326172 6.63677734 -8.73828125 7.22265625 C-11 8 -11 8 -14 7 C-12.04480616 5.82807953 -10.0857461 4.6626071 -8.125 3.5 C-7.03445313 2.8503125 -5.94390625 2.200625 -4.8203125 1.53125 C-2 0 -2 0 0 0 Z " fill="#CBCBCB" transform="translate(586,254)"/>
<path d="M0 0 C-2.35735884 2.72957339 -4.58133526 3.88893396 -8 5 C-8.99 5 -9.98 5 -11 5 C-10 2 -10 2 -8.22265625 1.015625 C-7.15337891 0.63664063 -7.15337891 0.63664063 -6.0625 0.25 C-5.35222656 -0.01296875 -4.64195312 -0.2759375 -3.91015625 -0.546875 C-2 -1 -2 -1 0 0 Z " fill="#C4C4C4" transform="translate(645,226)"/>
<path d="M0 0 C1.65 0 3.3 0 5 0 C1.2440786 3.42931954 -3.23466745 4.56429083 -8 6 C-8 5.34 -8 4.68 -8 4 C-4.91190305 2.23537317 -3.76687864 2 0 2 C0 1.34 0 0.68 0 0 Z " fill="#D6D6D6" transform="translate(731,984)"/>
<path d="M0 0 C0.66 0 1.32 0 2 0 C1.33501617 4.38889325 -0.18757677 7.9811485 -2 12 C-3.06106444 8.81680668 -2.96156637 7.98060942 -2.125 4.875 C-1.94195313 4.17117188 -1.75890625 3.46734375 -1.5703125 2.7421875 C-1 1 -1 1 0 0 Z " fill="#C7C7C7" transform="translate(788,923)"/>
<path d="M0 0 C0 0.99 0 1.98 0 3 C-3.3 4.32 -6.6 5.64 -10 7 C-10.33 6.34 -10.66 5.68 -11 5 C-9.54462432 4.16151196 -8.08559627 3.32936066 -6.625 2.5 C-5.81289063 2.0359375 -5.00078125 1.571875 -4.1640625 1.09375 C-2 0 -2 0 0 0 Z " fill="#C6C6C6" transform="translate(413,354)"/>
<path d="M0 0 C4.95 0.99 4.95 0.99 10 2 C9.67 2.66 9.34 3.32 9 4 C6.03 3.67 3.06 3.34 0 3 C0 2.01 0 1.02 0 0 Z " fill="#CECECE" transform="translate(701,219)"/>
<path d="M0 0 C1.31823302 0.59155331 2.62947051 1.19871463 3.9375 1.8125 C5.03384766 2.31716797 5.03384766 2.31716797 6.15234375 2.83203125 C8 4 8 4 9 7 C5.59687262 5.94124926 2.98646769 4.99097846 0 3 C0 2.01 0 1.02 0 0 Z " fill="#CECECE" transform="translate(483,900)"/>
<path d="M0 0 C-0.25 1.875 -0.25 1.875 -1 4 C-2.8125 5.3125 -2.8125 5.3125 -5 6 C-7.13671875 5.54296875 -7.13671875 5.54296875 -9 5 C-7.87926138 4.16094435 -6.75325453 3.32892169 -5.625 2.5 C-4.99851562 2.0359375 -4.37203125 1.571875 -3.7265625 1.09375 C-2 0 -2 0 0 0 Z " fill="#CFCFCF" transform="translate(518,293)"/>
<path d="M0 0 C0.33 0 0.66 0 1 0 C0.88652381 1.97986082 0.7589065 3.95891598 0.625 5.9375 C0.52058594 7.59072266 0.52058594 7.59072266 0.4140625 9.27734375 C0.27742187 10.17582031 0.14078125 11.07429687 0 12 C-0.99 12.495 -0.99 12.495 -2 13 C-2 10.03 -2 7.06 -2 4 C-1.34 4 -0.68 4 0 4 C0 2.68 0 1.36 0 0 Z " fill="#B8B8B8" transform="translate(796,891)"/>
<path d="M0 0 C0.33 0.66 0.66 1.32 1 2 C0.34 2 -0.32 2 -1 2 C-1 2.66 -1 3.32 -1 4 C-3.30368736 5.06652192 -5.64018187 6.06421005 -8 7 C-8.66 6.67 -9.32 6.34 -10 6 C-6.7 4.02 -3.4 2.04 0 0 Z " fill="#C4C4C4" transform="translate(529,286)"/>
<path d="M0 0 C7.63076923 1.47692308 7.63076923 1.47692308 9.5 4.125 C9.665 4.74375 9.83 5.3625 10 6 C6.40992874 4.66654496 3.20429093 3.1056769 0 1 C0 0.67 0 0.34 0 0 Z " fill="#C7C7C7" transform="translate(579,957)"/>
<path d="M0 0 C2.1875 -0.3125 2.1875 -0.3125 5 0 C7.8125 2.5 7.8125 2.5 10 5 C5.75354935 5 3.61475228 3.18249194 0 1 C0 0.67 0 0.34 0 0 Z " fill="#C0C0C0" transform="translate(530,929)"/>
<path d="M0 0 C-0.5 1.9375 -0.5 1.9375 -2 4 C-4.69658452 4.68790422 -7.2017019 4.81946464 -10 5 C-3.63636364 0 -3.63636364 0 0 0 Z " fill="#BCBCBC" transform="translate(330,402)"/>
<path d="M0 0 C0.33 0.99 0.66 1.98 1 3 C-4.5 6.125 -4.5 6.125 -9 5 C-6.03 3.35 -3.06 1.7 0 0 Z " fill="#D5D5D5" transform="translate(498,304)"/>
<path d="M0 0 C0.66 0.33 1.32 0.66 2 1 C-2.30769231 5.92307692 -2.30769231 5.92307692 -5.8125 6.3125 C-6.8953125 6.1578125 -6.8953125 6.1578125 -8 6 C-5.63404067 3.38499232 -3.13950774 1.61000397 0 0 Z " fill="#C2C2C2" transform="translate(563,266)"/>
<path d="M0 0 C0.33 0 0.66 0 1 0 C1 2.64 1 5.28 1 8 C0.01 8 -0.98 8 -2 8 C-2.125 5.125 -2.125 5.125 -2 2 C-1.34 1.34 -0.68 0.68 0 0 Z " fill="#BFBFBF" transform="translate(798,340)"/>
<path d="M0 0 C-2.95183101 2.95183101 -5.95511947 3.08663988 -10 4 C-9.67 3.01 -9.34 2.02 -9 1 C-5.8035914 -0.06546953 -3.34252724 -0.07427838 0 0 Z " fill="#C3C3C3" transform="translate(722,990)"/>
<path d="M0 0 C0.33 0 0.66 0 1 0 C1.25 7.625 1.25 7.625 -1 11 C-1.33 8.69 -1.66 6.38 -2 4 C-1.34 4 -0.68 4 0 4 C0 2.68 0 1.36 0 0 Z " fill="#C8C8C8" transform="translate(797,878)"/>
<path d="M0 0 C2.31 0.66 4.62 1.32 7 2 C7 2.66 7 3.32 7 4 C8.32 4.33 9.64 4.66 11 5 C8 6 8 6 5.95703125 5.0390625 C5.24933594 4.57242188 4.54164063 4.10578125 3.8125 3.625 C3.09707031 3.16351562 2.38164062 2.70203125 1.64453125 2.2265625 C1.10183594 1.82179688 0.55914062 1.41703125 0 1 C0 0.67 0 0.34 0 0 Z " fill="#BABABA" transform="translate(409,859)"/>
<path d="M0 0 C0.33 0.66 0.66 1.32 1 2 C0.01 3.485 0.01 3.485 -1 5 C-4.625 5.6875 -4.625 5.6875 -8 6 C-5.38485683 3.87961365 -2.80362384 1.86908256 0 0 Z " fill="#C2C2C2" transform="translate(388,367)"/>
<path d="M0 0 C-0.5 1.875 -0.5 1.875 -2 4 C-4.65177645 4.98494554 -7.20547307 5.45912382 -10 6 C-7.35570758 3.077361 -4.105808 0 0 0 Z " fill="#CECECE" transform="translate(541,280)"/>
<path d="M0 0 C0.33 0.66 0.66 1.32 1 2 C0.00390625 3.9453125 0.00390625 3.9453125 -1.4375 6.125 C-1.91058594 6.84945312 -2.38367188 7.57390625 -2.87109375 8.3203125 C-3.24363281 8.87460937 -3.61617187 9.42890625 -4 10 C-4.33 9.01 -4.66 8.02 -5 7 C-4.34 7 -3.68 7 -3 7 C-2.87625 6.21625 -2.7525 5.4325 -2.625 4.625 C-2 2 -2 2 0 0 Z " fill="#C4C4C4" transform="translate(784,935)"/>
<path d="M0 0 C1.32 0 2.64 0 4 0 C4 0.66 4 1.32 4 2 C5.65 2.33 7.3 2.66 9 3 C9.33 3.99 9.66 4.98 10 6 C6.00499382 4.6302836 3.19990508 2.74277578 0 0 Z " fill="#C3C3C3" transform="translate(440,877)"/>
<path d="M0 0 C2.8125 -0.3125 2.8125 -0.3125 6 0 C7.875 2.5 7.875 2.5 9 5 C5.54074837 3.7508258 2.85306797 2.32472205 0 0 Z " fill="#BABABA" transform="translate(427,870)"/>
<path d="M0 0 C0.66 0 1.32 0 2 0 C2 2.64 2 5.28 2 8 C1.01 8.495 1.01 8.495 0 9 C-0.87890625 2.84765625 -0.87890625 2.84765625 -1 1 C-0.67 0.67 -0.34 0.34 0 0 Z " fill="#D8D8D8" transform="translate(798,834)"/>
<path d="M0 0 C2.97 0.495 2.97 0.495 6 1 C6 1.66 6 2.32 6 3 C7.32 3.66 8.64 4.32 10 5 C5.75354935 5 3.61475228 3.18249194 0 1 C0 0.67 0 0.34 0 0 Z " fill="#BEBEBE" transform="translate(362,832)"/>
<path d="M0 0 C-0.33 0.99 -0.66 1.98 -1 3 C-4.5625 4.6875 -4.5625 4.6875 -8 6 C-6.98565881 3.46414701 -6.34981128 2.21863205 -4 0.75 C-2 0 -2 0 0 0 Z " fill="#D4D4D4" transform="translate(479,316)"/>
<path d="M0 0 C0.598125 0.20625 1.19625 0.4125 1.8125 0.625 C-2.8125 4.625 -2.8125 4.625 -6.1875 4.625 C-5.03076352 1.15479057 -3.91311293 -0.67081936 0 0 Z " fill="#C9C9C9" transform="translate(506.1875,300.375)"/>
<path d="M0 0 C6.75 0.875 6.75 0.875 9 2 C8.67 2.99 8.34 3.98 8 5 C5.36 3.68 2.72 2.36 0 1 C0 0.67 0 0.34 0 0 Z " fill="#E1E1E1" transform="translate(728,229)"/>
<path d="M0 0 C3.73487777 0.4979837 5.81237635 0.87491756 9 3 C9 3.66 9 4.32 9 5 C5.22454612 3.90931332 2.52956528 3.0916909 0 0 Z " fill="#D7D7D7" transform="translate(561,947)"/>
<path d="M0 0 C0 0.66 0 1.32 0 2 C-1.32 2.33 -2.64 2.66 -4 3 C-4 3.66 -4 4.32 -4 5 C-5.32 5.33 -6.64 5.66 -8 6 C-6.72879117 2.18637351 -4.19078006 0 0 0 Z " fill="#C8C8C8" transform="translate(380,373)"/>
<path d="M0 0 C0.99 0.33 1.98 0.66 3 1 C3 3.31 3 5.62 3 8 C2.34 8 1.68 8 1 8 C0.67 5.36 0.34 2.72 0 0 Z " fill="#C9C9C9" transform="translate(793,312)"/>
<path d="M0 0 C0.66 0.33 1.32 0.66 2 1 C-0.25 3.0625 -0.25 3.0625 -3 5 C-5.3125 4.75 -5.3125 4.75 -7 4 C-1.7265625 0.77734375 -1.7265625 0.77734375 0 0 Z " fill="#C3C3C3" transform="translate(606,242)"/>
<path d="M0 0 C2.97 0.495 2.97 0.495 6 1 C6 1.66 6 2.32 6 3 C6.99 3.33 7.98 3.66 9 4 C8.01 4.495 8.01 4.495 7 5 C4.5249829 3.88568235 2.32116581 2.41849022 0 1 C0 0.67 0 0.34 0 0 Z " fill="#C8C8C8" transform="translate(570,952)"/>
<path d="M0 0 C2.64 0.66 5.28 1.32 8 2 C8 2.99 8 3.98 8 5 C4.62496331 3.8141763 2.35277269 2.72426311 0 0 Z " fill="#BFBFBF" transform="translate(454,885)"/>
<path d="M0 0 C1.09658936 3.28976808 0.79953138 4.71303767 0 8 C-0.66 8 -1.32 8 -2 8 C-2 5.69 -2 3.38 -2 1 C-1.34 0.67 -0.68 0.34 0 0 Z " fill="#A7A7A7" transform="translate(799,858)"/>
<path d="M0 0 C0.66 0 1.32 0 2 0 C1.67 4.29 1.34 8.58 1 13 C0.67 13 0.34 13 0 13 C-0.19397476 11.02145742 -0.38001321 9.0421352 -0.5625 7.0625 C-0.66691406 5.96035156 -0.77132812 4.85820312 -0.87890625 3.72265625 C-0.91886719 2.82417969 -0.95882812 1.92570312 -1 1 C-0.67 0.67 -0.34 0.34 0 0 Z " fill="#CACACA" transform="translate(798,362)"/>
<path d="M0 0 C0.33 0.99 0.66 1.98 1 3 C-2 5 -2 5 -4.1875 4.625 C-4.785625 4.41875 -5.38375 4.2125 -6 4 C-4.02 2.68 -2.04 1.36 0 0 Z " fill="#C5C5C5" transform="translate(435,340)"/>
<path d="M0 0 C0.33 0 0.66 0 1 0 C1 3.63 1 7.26 1 11 C0.67 11 0.34 11 0 11 C0 7.37 0 3.74 0 0 Z " fill="#FFFFFF" transform="translate(838,522)"/>
<path d="" fill="#FFFFFF" transform="translate(0,0)"/>
</svg>
