<?xml version="1.0" encoding="UTF-8"?>
<svg version="1.1" xmlns="http://www.w3.org/2000/svg" width="1216" height="1216">
<path d="M0 0 C0.99 0.47453613 1.98 0.94907227 3 1.43798828 C16.46431335 7.90497863 29.42160117 15.01012215 42.265625 22.62890625 C47.45167504 25.69913795 52.70318621 28.62615152 58 31.5 C67.35351635 36.58922031 76.54202636 41.94126602 85.7265625 47.328125 C92.13246837 51.08448874 98.56411962 54.7952924 105 58.5 C113.30827997 63.28447003 121.59993645 68.09582454 129.875 72.9375 C139.69132406 78.67763652 149.55465595 84.33323394 159.43261719 89.96630859 C170.56585269 96.3160038 181.66763014 102.71955079 192.76464844 109.13232422 C196.05223929 111.03015625 199.34218856 112.92383871 202.6328125 114.81640625 C212.85176609 120.69653582 223.05182464 126.60227309 233.1875 132.625 C241.52823213 137.58080263 249.94715501 142.38165585 258.40625 147.13208008 C264.88277757 150.77840443 271.30032889 154.51205733 277.6875 158.3125 C286.03286038 163.2772412 294.43650769 168.13324438 302.875 172.9375 C311.75709899 177.99448022 320.61634328 183.08709643 329.4375 188.25 C337.56631792 193.00690328 345.72056524 197.71497451 353.90332031 202.37841797 C361.17591648 206.52454186 368.43454935 210.69462942 375.6875 214.875 C376.76241699 215.49366943 377.83733398 216.11233887 378.94482422 216.74975586 C379.97752441 217.3453833 381.01022461 217.94101074 382.07421875 218.5546875 C383.42906372 219.33561768 383.42906372 219.33561768 384.8112793 220.13232422 C387.61831039 221.77643936 390.41057291 223.44184247 393.19929504 225.11672974 C394.09864682 225.65675188 394.9979986 226.19677402 395.92460346 226.75316048 C396.60948432 227.16461752 397.29436518 227.57607456 398 228 C397.99300268 227.41544918 397.98600536 226.83089836 397.97879601 226.22863388 C397.80816485 211.90972594 397.6500127 197.59071868 397.50522423 183.27152634 C397.43491017 176.3464639 397.36059433 169.42149039 397.27636719 162.49658203 C397.19491377 155.79874705 397.12526112 149.10087944 397.06242752 142.40283966 C397.03674253 139.86269229 397.00727282 137.32257994 396.97373581 134.78252411 C396.48618806 97.31630393 396.48618806 97.31630393 401.6875 79.75 C401.94877686 78.83726318 402.21005371 77.92452637 402.47924805 76.98413086 C405.90954819 65.41079939 410.69477991 54.88841854 416.8125 44.5 C417.19768799 43.84588135 417.58287598 43.1917627 417.97973633 42.51782227 C418.92611409 40.97322477 419.95577501 39.48020487 421 38 C421.66 38 422.32 38 423 38 C423.20625 37.34 423.4125 36.68 423.625 36 C425.49124252 31.92819814 427.97561527 28.31203002 431 25 C431.66 25 432.32 25 433 25 C433.25910156 24.41605469 433.51820313 23.83210938 433.78515625 23.23046875 C442.94338069 6.41585088 466.99082934 -5.71311666 484 -13 C485.11117187 -13.5053125 486.22234375 -14.010625 487.3671875 -14.53125 C491.56145176 -16.22699555 495.75152898 -17.42982818 500.125 -18.5625 C500.89070312 -18.77068359 501.65640625 -18.97886719 502.4453125 -19.19335938 C514.49753734 -22.35508612 526.31128129 -23.37961307 538.75 -23.3125 C539.45343536 -23.31067719 540.15687073 -23.30885437 540.88162231 -23.30697632 C551.54115718 -23.26052328 561.63939044 -22.70936443 572 -20 C572.69544922 -19.82307617 573.39089844 -19.64615234 574.10742188 -19.46386719 C603.61573309 -11.84329975 631.15363918 4.68057985 650 29 C650 29.66 650 30.32 650 31 C650.66 31 651.32 31 652 31 C653.66619802 33.17489101 655.19002482 35.33697389 656.6875 37.625 C657.13448242 38.30433594 657.58146484 38.98367187 658.04199219 39.68359375 C662.26060659 46.21290649 665.79157729 52.91144047 669 60 C669.52335937 61.14597656 670.04671875 62.29195313 670.5859375 63.47265625 C677.87186147 80.46698146 681.15743926 98.22488001 681.13422108 116.64878178 C681.13657331 117.91909045 681.13892554 119.18939912 681.14134905 120.498202 C681.14772679 124.02375499 681.14791246 127.54928513 681.14707164 131.07484279 C681.14724158 134.91084699 681.1531527 138.74684311 681.1583125 142.58284324 C681.16762813 150.19114471 681.1715588 157.79944036 681.17383147 165.40774682 C681.1767963 174.5215273 681.18549544 183.63530009 681.19424575 192.74907653 C681.21508115 214.77898639 681.22555907 236.80889758 681.23437535 258.83881499 C681.23858372 269.26462669 681.2438055 279.6904378 681.24905988 290.11624901 C681.26695054 325.81752925 681.28194517 361.51880967 681.28938007 397.22009373 C681.28985483 399.46111307 681.29033072 401.70213242 681.29080774 403.94315177 C681.2911623 405.61014103 681.2911623 405.61014103 681.29152403 407.31080685 C681.2927252 412.94117267 681.29394066 418.57153848 681.29516602 424.2019043 C681.29540617 425.31926061 681.29564632 426.43661692 681.29589374 427.58783252 C681.30378306 463.79847778 681.32720708 500.00909024 681.35972196 536.21972119 C681.3940494 574.51900796 681.41373397 612.81827556 681.41702431 651.11757797 C681.41744184 655.32526681 681.4179214 659.53295563 681.41844749 663.74064445 C681.41857069 664.77666773 681.41869388 665.81269101 681.4188208 666.88010894 C681.42114934 683.52659588 681.43679007 700.17304463 681.45728934 716.81951798 C681.47758394 733.56605291 681.4830075 750.31254216 681.47351871 767.05908711 C681.46831768 776.99683778 681.47411484 786.93443595 681.49605338 796.87216457 C681.50962569 803.52545871 681.50842811 810.17864864 681.49565142 816.83194398 C681.48879721 820.61308278 681.48793713 824.39393141 681.50521151 828.17504353 C681.65455006 863.0587924 675.99634734 896.21627501 655 925 C654.34 925 653.68 925 653 925 C652.8040625 925.67546875 652.608125 926.3509375 652.40625 927.046875 C650.45705228 931.14019022 647.61925063 933.99860903 644.5 937.25 C643.86634521 937.91604248 643.23269043 938.58208496 642.57983398 939.26831055 C615.07058414 967.94134626 578.52304373 983.27670771 538.8125 984.1875 C508.31101968 983.7473632 478.41884326 974.43871838 454 956 C453.13890625 955.36578125 452.2778125 954.7315625 451.390625 954.078125 C446.67921053 950.53724828 446.67921053 950.53724828 445 949 C445 948.34 445 947.68 445 947 C444.01 946.67 443.02 946.34 442 946 C442 945.34 442 944.68 442 944 C441.40316406 943.72542969 440.80632813 943.45085938 440.19140625 943.16796875 C422.44361573 933.70880767 409.05361976 904.00704373 403.37109375 885.93359375 C402.82359179 884.08282562 402.28321441 882.22993489 401.75 880.375 C401.50354736 879.54798584 401.25709473 878.72097168 401.00317383 877.86889648 C396.05076412 859.67011748 396.72382746 840.35403952 396.8046875 821.671875 C396.80842746 819.09971223 396.81126977 816.52754802 396.81326294 813.9553833 C396.82005432 807.93529305 396.83572923 801.91529271 396.85596192 795.89523816 C396.87853147 789.0267174 396.88936656 782.15819254 396.89935279 775.28964376 C396.9201037 761.19305474 396.95514619 747.09653152 397 733 C394.10536878 734.60597224 391.21110017 736.21259689 388.31689453 737.81933594 C387.50086258 738.27206879 386.68483063 738.72480164 385.84407043 739.19125366 C380.49252166 742.16273723 375.16180893 745.16452887 369.875 748.25 C369.10897461 748.6948877 368.34294922 749.13977539 367.55371094 749.59814453 C363.12194812 752.17407358 358.69714169 754.76182461 354.2734375 757.3515625 C343.39843825 763.71457506 332.4892447 770.00289635 321.50488281 776.17529297 C314.03494326 780.38527429 306.65220953 784.73075795 299.28442383 789.11645508 C291.62498627 793.66272402 283.87916689 798.04501091 276.11328125 802.40625 C270.27414073 805.69276078 264.50174637 809.06272238 258.77954102 812.54785156 C253.09069096 815.99128776 247.29699703 819.24286658 241.5 822.5 C235.07603721 826.10991682 228.67284798 829.73619376 222.375 833.5625 C215.77739083 837.57065088 209.08491589 841.3998857 202.37475586 845.21606445 C195.70212611 849.01550059 189.06375153 852.87032453 182.4375 856.75 C173.65623056 861.88877459 164.83993733 866.96312448 156 872 C147.30597753 876.95377615 138.63497328 881.94369212 130 887 C120.77433102 892.40219654 111.50477684 897.72388068 102.21603394 903.01647949 C93.97134211 907.71544603 85.75319289 912.45733241 77.5625 917.25 C66.75029903 923.5744873 55.90101546 929.82977949 45 936 C44.24589844 936.42732422 43.49179687 936.85464844 42.71484375 937.29492188 C-8.23905332 966.09690426 -62.48384308 994.77897869 -122.3671875 978.35058594 C-143.83650508 972.22541103 -162.68884306 960.92419145 -180 947 C-180.70125 946.443125 -181.4025 945.88625 -182.125 945.3125 C-185.90358374 942.20866336 -189.10493254 938.77371609 -192.26171875 935.04296875 C-193.36144027 933.75048705 -194.48652161 932.47880939 -195.64453125 931.23828125 C-210.94899868 914.71519112 -219.34273435 894.49854766 -225 873 C-225.30679688 871.85660156 -225.61359375 870.71320312 -225.9296875 869.53515625 C-227.77044963 861.85898839 -228.69373914 854.08026241 -229.625 846.25 C-229.74834717 845.21536621 -229.87169434 844.18073242 -229.9987793 843.11474609 C-232.06292672 824.61598543 -232.14396879 806.15713912 -232.12698364 787.56544495 C-232.12758344 784.8039589 -232.12968594 782.04247443 -232.13171089 779.28098911 C-232.13530202 773.30260906 -232.13522575 767.32423807 -232.13266373 761.34585762 C-232.12886418 752.45538357 -232.13082381 743.56491708 -232.13387203 734.67444307 C-232.13912555 718.79111173 -232.13868625 702.90778442 -232.13579312 687.0244527 C-232.13327368 673.1237277 -232.13262267 659.22300416 -232.13381577 645.32227898 C-232.13389215 644.39880766 -232.13396854 643.47533635 -232.13404724 642.52388106 C-232.13435859 638.77483054 -232.134677 635.02578003 -232.135007 631.27672951 C-232.1380634 596.13470508 -232.1352967 560.99268322 -232.1299101 525.85065919 C-232.12516518 494.65784368 -232.1255891 463.46503226 -232.13037109 432.2722168 C-232.13573076 397.19436469 -232.13784622 362.11651484 -232.13475883 327.03866237 C-232.13443813 323.29628718 -232.13412529 319.55391198 -232.13381577 315.81153679 C-232.13373669 314.89012716 -232.13365761 313.96871753 -232.13357614 313.0193864 C-232.1324407 299.1311799 -232.13376514 285.24297503 -232.13629532 271.35476875 C-232.13915933 255.55574352 -232.13842963 239.75672295 -232.13301457 223.95769829 C-232.1300869 215.12555898 -232.12987413 206.29342974 -232.13366075 197.4612907 C-232.13591452 191.55042081 -232.13448714 185.63955894 -232.13015598 179.72869024 C-232.12779343 176.36856214 -232.12748938 173.00847019 -232.13056196 169.64834029 C-232.16231117 132.02663456 -231.88347277 90.36020815 -214.3125 56.0625 C-213.79768066 55.05255981 -213.79768066 55.05255981 -213.27246094 54.0222168 C-202.24047794 32.90747968 -183.91814772 13.90628927 -164 1 C-162.94683594 0.30132812 -161.89367187 -0.39734375 -160.80859375 -1.1171875 C-145.70375544 -10.84108636 -128.62862543 -17.59085701 -111 -21 C-109.70292114 -21.26055176 -109.70292114 -21.26055176 -108.37963867 -21.52636719 C-69.85268706 -28.70995501 -34.25250764 -16.64123296 0 0 Z " fill="#FEFEFE" transform="translate(384,128)"/>
<path d="M0 0 C0 0.66 0 1.32 0 2 C-0.66 2 -1.32 2 -2 2 C-2 2.66 -2 3.32 -2 4 C-3.62922241 5.7246967 -5.28792333 7.36090418 -7 9 C-8.11630719 10.12199751 -9.2294339 11.24716574 -10.33984375 12.375 C-11.53902257 13.58337296 -12.73824201 14.79170562 -13.9375 16 C-14.53240234 16.60328125 -15.12730469 17.2065625 -15.74023438 17.828125 C-18.49835512 20.60131744 -21.25003324 23.25716954 -24.3046875 25.703125 C-26.6805046 27.72773435 -27.88821044 28.99282215 -29.1875 31.75 C-31 35 -31 35 -34 36 C-32.5301878 31.40256417 -29.88668067 28.18995521 -26.75 24.625 C-26.25201904 24.04991699 -25.75403809 23.47483398 -25.2409668 22.88232422 C-24.26170902 21.75161174 -23.28025986 20.62279253 -22.29638672 19.49609375 C-20.76833167 17.7326434 -19.29247608 15.92884897 -17.8125 14.125 C-14.56823199 10.34627166 -10.81880673 7.18102664 -7 4 C-6.05125 3.195625 -5.1025 2.39125 -4.125 1.5625 C-2 0 -2 0 0 0 Z " fill="#E0E0E0" transform="translate(212,136)"/>
<path d="M0 0 C-1.57974609 0.92619141 -1.57974609 0.92619141 -3.19140625 1.87109375 C-4.64848583 2.72648018 -6.10551318 3.58195559 -7.5625 4.4375 C-8.32377197 4.88399902 -9.08504395 5.33049805 -9.86938477 5.79052734 C-13.72794244 8.05810438 -17.57566197 10.34049658 -21.3984375 12.66796875 C-22.42022095 13.28877319 -22.42022095 13.28877319 -23.46264648 13.92211914 C-24.76131841 14.71313862 -26.05778019 15.50780013 -27.35180664 16.30639648 C-31.77923796 19 -31.77923796 19 -34 19 C-33.505 17.515 -33.505 17.515 -33 16 C-32.34 16 -31.68 16 -31 16 C-31 15.34 -31 14.68 -31 14 C-27.91190305 12.23537317 -26.76687864 12 -23 12 C-23 11.34 -23 10.68 -23 10 C-22.01 10 -21.02 10 -20 10 C-20 9.34 -20 8.68 -20 8 C-18.68 8 -17.36 8 -16 8 C-16 7.34 -16 6.68 -16 6 C-15.01 6 -14.02 6 -13 6 C-13 5.34 -13 4.68 -13 4 C-10.35261084 2.5393715 -9.10551666 2 -6 2 C-6 1.34 -6 0.68 -6 0 C-3 -1 -3 -1 0 0 Z " fill="#B6B6B6" transform="translate(590,971)"/>
<path d="M0 0 C1.32 0.33 2.64 0.66 4 1 C2.74509766 1.70962891 2.74509766 1.70962891 1.46484375 2.43359375 C0.28888749 3.10125435 -0.88687841 3.7692503 -2.0625 4.4375 C-2.99304199 4.96525024 -2.99304199 4.96525024 -3.94238281 5.50366211 C-7.39546078 7.47333302 -10.81492909 9.48439812 -14.19921875 11.5703125 C-14.87654053 11.98611572 -15.5538623 12.40191895 -16.25170898 12.83032227 C-17.57183726 13.64433416 -18.88786866 14.46503227 -20.19946289 15.29272461 C-21.76412559 16.25541599 -23.37861653 17.13625252 -25 18 C-25.66 17.67 -26.32 17.34 -27 17 C-25.6875 15.5 -25.6875 15.5 -24 14 C-23.01 14 -22.02 14 -21 14 C-21 13.34 -21 12.68 -21 12 C-20.01 12 -19.02 12 -18 12 C-18 11.34 -18 10.68 -18 10 C-15.35261084 8.5393715 -14.10551666 8 -11 8 C-11 7.34 -11 6.68 -11 6 C-8.09399739 4.74335022 -6.20395416 4 -3 4 C-3 3.34 -3 2.68 -3 2 C-2.01 2 -1.02 2 0 2 C0 1.34 0 0.68 0 0 Z " fill="#B8B8B8" transform="translate(643,937)"/>
<path d="M0 0 C-3.89253368 2.29730635 -7.78957982 4.58684697 -11.6875 6.875 C-12.79029297 7.52597656 -13.89308594 8.17695312 -15.02929688 8.84765625 C-16.09599609 9.47285156 -17.16269531 10.09804688 -18.26171875 10.7421875 C-19.73064575 11.60626221 -19.73064575 11.60626221 -21.22924805 12.48779297 C-23.77449625 13.8769257 -26.28532274 14.99039138 -29 16 C-29.33 15.34 -29.66 14.68 -30 14 C-29.01 14 -28.02 14 -27 14 C-27 13.34 -27 12.68 -27 12 C-25.02 11.67 -23.04 11.34 -21 11 C-20.67 10.01 -20.34 9.02 -20 8 C-18.02 7.67 -16.04 7.34 -14 7 C-13.67 6.01 -13.34 5.02 -13 4 C-11.68 4 -10.36 4 -9 4 C-9 3.34 -9 2.68 -9 2 C-8.01 2 -7.02 2 -6 2 C-6 1.34 -6 0.68 -6 0 C-3 -1 -3 -1 0 0 Z " fill="#ACACAC" transform="translate(538,1001)"/>
<path d="M0 0 C-3.9542265 2.34034723 -7.91403506 4.6710785 -11.875 7 C-13.00292969 7.66773438 -14.13085938 8.33546875 -15.29296875 9.0234375 C-16.36933594 9.65507813 -17.44570313 10.28671875 -18.5546875 10.9375 C-19.54968262 11.52402344 -20.54467773 12.11054687 -21.56982422 12.71484375 C-24 14 -24 14 -26 14 C-25.67 13.01 -25.34 12.02 -25 11 C-23.68 11 -22.36 11 -21 11 C-21 10.34 -21 9.68 -21 9 C-18 7 -18 7 -14 7 C-14 6.34 -14 5.68 -14 5 C-13.01 5 -12.02 5 -11 5 C-11 4.34 -11 3.68 -11 3 C-10.01 3 -9.02 3 -8 3 C-8 2.34 -8 1.68 -8 1 C-4.85571151 -0.9090323 -3.47925125 -1.04523725 0 0 Z " fill="#AAAAAA" transform="translate(616,956)"/>
<path d="M0 0 C7.56147318 3.68515617 14.96678328 7.35807696 22 12 C21.01 12.495 21.01 12.495 20 13 C17.58817379 12.08350604 15.32282656 11.10739406 13 10 C12.27296875 9.66226563 11.5459375 9.32453125 10.796875 8.9765625 C5.13356974 6.26713948 5.13356974 6.26713948 4 4 C1.97536745 3.34786708 1.97536745 3.34786708 0 3 C0 2.01 0 1.02 0 0 Z " fill="#B9B9B9" transform="translate(410,142)"/>
<path d="M0 0 C-3.6208088 2.17373046 -7.24731235 4.33777229 -10.875 6.5 C-11.90753906 7.12003906 -12.94007813 7.74007812 -14.00390625 8.37890625 C-14.99003906 8.96542969 -15.97617187 9.55195312 -16.9921875 10.15625 C-17.90339355 10.70087891 -18.81459961 11.24550781 -19.75341797 11.80664062 C-22 13 -22 13 -24 13 C-24 12.34 -24 11.68 -24 11 C-23.01 11 -22.02 11 -21 11 C-21 10.34 -21 9.68 -21 9 C-20.01 9 -19.02 9 -18 9 C-18 8.34 -18 7.68 -18 7 C-15.35261084 5.5393715 -14.10551666 5 -11 5 C-11 4.34 -11 3.68 -11 3 C-10.01 3 -9.02 3 -8 3 C-8 2.34 -8 1.68 -8 1 C-3.375 -1.125 -3.375 -1.125 0 0 Z " fill="#C1C1C1" transform="translate(782,860)"/>
<path d="M0 0 C-2.10187532 1.31629567 -4.20631676 2.62812997 -6.3125 3.9375 C-7.20485352 4.49727539 -7.20485352 4.49727539 -8.11523438 5.06835938 C-10.72747744 6.68824194 -13.07221173 8.02407058 -16 9 C-16 8.01 -16 7.02 -16 6 C-15.01 6 -14.02 6 -13 6 C-13 5.34 -13 4.68 -13 4 C-11 3 -9 2 -7 1 C-5.9171875 0.38125 -5.9171875 0.38125 -4.8125 -0.25 C-3 -1 -3 -1 0 0 Z " fill="#B3B3B3" transform="translate(555,991)"/>
<path d="M0 0 C-3.14511933 2.57672427 -6.32163947 4.17392493 -10.0625 5.75 C-11.62677734 6.42289063 -11.62677734 6.42289063 -13.22265625 7.109375 C-16 8 -16 8 -19 7 C-18.34 7 -17.68 7 -17 7 C-17 6.34 -17 5.68 -17 5 C-15.35 5 -13.7 5 -12 5 C-12 4.34 -12 3.68 -12 3 C-4.71428571 -0.42857143 -4.71428571 -0.42857143 0 0 Z " fill="#ADADAD" transform="translate(371,1093)"/>
<path d="M0 0 C0.33 0.99 0.66 1.98 1 3 C0.4225 3.515625 -0.155 4.03125 -0.75 4.5625 C-2.67077917 6.6433441 -3.75724016 8.23824795 -5.0625 10.6875 C-7 14 -7 14 -10 15 C-8.59601721 10.89889238 -6.62912962 8.01910841 -3.875 4.6875 C-3.15054688 3.80449219 -2.42609375 2.92148438 -1.6796875 2.01171875 C-1.12539062 1.34785156 -0.57109375 0.68398437 0 0 Z " fill="#B5B5B5" transform="translate(188,157)"/>
<path d="M0 0 C0.33 0.99 0.66 1.98 1 3 C-0.01320312 3.90492188 -0.01320312 3.90492188 -1.046875 4.828125 C-1.93890625 5.62734375 -2.8309375 6.4265625 -3.75 7.25 C-4.63171875 8.03890625 -5.5134375 8.8278125 -6.421875 9.640625 C-8.67866165 11.70592672 -10.85739926 13.81735064 -13 16 C-13.66 15.67 -14.32 15.34 -15 15 C-10 10 -5 5 0 0 Z " fill="#C2C2C2" transform="translate(204,141)"/>
<path d="M0 0 C1.32 0.33 2.64 0.66 4 1 C2.23754778 2.1999038 0.46473019 3.38459517 -1.3125 4.5625 C-2.79169922 5.55443359 -2.79169922 5.55443359 -4.30078125 6.56640625 C-5.19152344 7.03949219 -6.08226562 7.51257813 -7 8 C-7.99 7.67 -8.98 7.34 -10 7 C-9.01 6.67 -8.02 6.34 -7 6 C-7 5.34 -7 4.68 -7 4 C-5.02 3.67 -3.04 3.34 -1 3 C-0.67 2.01 -0.34 1.02 0 0 Z " fill="#B9B9B9" transform="translate(518,1009)"/>
<path d="M0 0 C4.72065967 1.54269924 9.41664092 3.07794619 14 5 C14 5.33 14 5.66 14 6 C8.58609132 5.53328373 4.79482068 4.75702189 0 2 C0 1.34 0 0.68 0 0 Z " fill="#B7B7B7" transform="translate(362,119)"/>
<path d="M0 0 C-1.95519384 1.17192047 -3.9142539 2.3373929 -5.875 3.5 C-6.96554687 4.1496875 -8.05609375 4.799375 -9.1796875 5.46875 C-12 7 -12 7 -14 7 C-14 6.34 -14 5.68 -14 5 C-13.01 5 -12.02 5 -11 5 C-10.67 4.01 -10.34 3.02 -10 2 C-8.68 2 -7.36 2 -6 2 C-6 1.34 -6 0.68 -6 0 C-2.25 -1.125 -2.25 -1.125 0 0 Z " fill="#A7A7A7" transform="translate(436,1060)"/>
<path d="M0 0 C-1.09987776 3.29963329 -1.45586748 3.61064772 -4.3125 5.25 C-4.90675781 5.60578125 -5.50101563 5.9615625 -6.11328125 6.328125 C-8.4491564 7.15994803 -9.69274206 6.7945524 -12 6 C-10.37829621 4.99466333 -8.75252763 3.99588093 -7.125 3 C-5.76761719 2.1646875 -5.76761719 2.1646875 -4.3828125 1.3125 C-2 0 -2 0 0 0 Z " fill="#C7C7C7" transform="translate(234,122)"/>
<path d="M0 0 C-4.47718792 2.98479194 -8.63824093 4 -14 4 C-14 3.34 -14 2.68 -14 2 C-9.07262981 0.02905192 -5.21979128 -0.1799928 0 0 Z " fill="#BABABA" transform="translate(346,1103)"/>
<path d="M0 0 C0.8971875 0.309375 0.8971875 0.309375 1.8125 0.625 C0.19079621 1.63033667 -1.43497237 2.62911907 -3.0625 3.625 C-4.41988281 4.4603125 -4.41988281 4.4603125 -5.8046875 5.3125 C-8.1875 6.625 -8.1875 6.625 -10.1875 6.625 C-9.8575 5.635 -9.5275 4.645 -9.1875 3.625 C-7.8675 3.625 -6.5475 3.625 -5.1875 3.625 C-5.1875 2.965 -5.1875 2.305 -5.1875 1.625 C-2.1875 -0.375 -2.1875 -0.375 0 0 Z " fill="#BFBFBF" transform="translate(600.1875,963.375)"/>
<path d="M0 0 C3.3 1.65 6.6 3.3 10 5 C9.01 5.66 8.02 6.32 7 7 C3.535 5.02 3.535 5.02 0 3 C0 2.01 0 1.02 0 0 Z " fill="#B2B2B2" transform="translate(584,242)"/>
<path d="M0 0 C1.62723299 0.45034123 3.25173664 0.91055354 4.875 1.375 C5.77992188 1.63023438 6.68484375 1.88546875 7.6171875 2.1484375 C10 3 10 3 12 5 C7.82851735 5.19402245 4.71055417 5.01430083 1 3 C0.67 2.01 0.34 1.02 0 0 Z " fill="#ADADAD" transform="translate(350,114)"/>
<path d="M0 0 C1.60332791 -0.08121924 3.20784026 -0.13929134 4.8125 -0.1875 C6.15248047 -0.23970703 6.15248047 -0.23970703 7.51953125 -0.29296875 C10.41647515 0.04918998 11.22555028 0.75393573 13 3 C11.58249437 2.88490339 10.16598831 2.75746342 8.75 2.625 C7.96109375 2.55539062 7.1721875 2.48578125 6.359375 2.4140625 C3.914123 1.98492887 2.15163097 1.21399362 0 0 Z " fill="#A9A9A9" transform="translate(264,1106)"/>
<path d="M0 0 C3 1 3 1 4.1875 2.75 C5.10819096 5.29960574 5.14948718 7.30923081 5 10 C2.35534962 6.8745041 1.15585285 3.91211733 0 0 Z " fill="#B3B3B3" transform="translate(170,1030)"/>
<path d="M0 0 C-1.45537568 0.83848804 -2.91440373 1.67063934 -4.375 2.5 C-5.59316406 3.19609375 -5.59316406 3.19609375 -6.8359375 3.90625 C-9 5 -9 5 -11 5 C-11 4.34 -11 3.68 -11 3 C-10.01 3 -9.02 3 -8 3 C-8 2.34 -8 1.68 -8 1 C-4.85571151 -0.9090323 -3.47925125 -1.04523725 0 0 Z " fill="#B0B0B0" transform="translate(497,1025)"/>
<path d="M0 0 C3.3 1.65 6.6 3.3 10 5 C5.23374833 6.19156292 4.12120649 5.3415946 0 3 C0 2.01 0 1.02 0 0 Z " fill="#BCBCBC" transform="translate(504,196)"/>
<path d="M0 0 C3.3 1.65 6.6 3.3 10 5 C5.82412255 6.39195915 3.86525224 4.82323219 0 3 C0 2.01 0 1.02 0 0 Z " fill="#AAAAAA" transform="translate(608,256)"/>
<path d="M0 0 C3.3 1.65 6.6 3.3 10 5 C9.01 5.66 8.02 6.32 7 7 C7 6.34 7 5.68 7 5 C5.824375 4.7834375 5.824375 4.7834375 4.625 4.5625 C2 4 2 4 0 3 C0 2.01 0 1.02 0 0 Z " fill="#AFAFAF" transform="translate(532,212)"/>
<path d="M0 0 C3.45925163 1.2491742 6.14693203 2.67527795 9 5 C8.01 5.33 7.02 5.66 6 6 C2.8125 4.1875 2.8125 4.1875 0 2 C0 1.34 0 0.68 0 0 Z " fill="#B5B5B5" transform="translate(455,168)"/>
<path d="M0 0 C3.3 1.65 6.6 3.3 10 5 C5.82412255 6.39195915 3.86525224 4.82323219 0 3 C0 2.01 0 1.02 0 0 Z " fill="#CFCFCF" transform="translate(663,288)"/>
<path d="M0 0 C3.3 1.65 6.6 3.3 10 5 C5.82412255 6.39195915 3.86525224 4.82323219 0 3 C0 2.01 0 1.02 0 0 Z " fill="#C2C2C2" transform="translate(625,266)"/>
<path d="M0 0 C2.97 1.65 5.94 3.3 9 5 C8.34 5.66 7.68 6.32 7 7 C7 6.34 7 5.68 7 5 C5.824375 4.7834375 5.824375 4.7834375 4.625 4.5625 C2 4 2 4 0 3 C0 2.01 0 1.02 0 0 Z " fill="#B6B6B6" transform="translate(494,190)"/>
<path d="M0 0 C5.75 1.75 5.75 1.75 8 4 C5 5 5 5 2.3125 3.6875 C1.549375 3.130625 0.78625 2.57375 0 2 C0 1.34 0 0.68 0 0 Z " fill="#B7B7B7" transform="translate(376,125)"/>
<path d="M0 0 C0 0.66 0 1.32 0 2 C-3.21451269 3.60725635 -6.43612536 3.05748185 -10 3 C-6.41600853 0.61067235 -4.26804999 0 0 0 Z " fill="#A2A2A2" transform="translate(264,110)"/>
</svg>
