<?xml version="1.0" encoding="UTF-8"?>
<svg version="1.1" xmlns="http://www.w3.org/2000/svg" width="3464" height="3464">
<path d="M0 0 C3.1390465 0.00536339 6.27794998 0.00001858 9.41699219 -0.00634766 C25.81927946 -0.01256165 41.92545586 0.48304276 58.14355469 3.13037109 C58.14355469 3.79037109 58.14355469 4.45037109 58.14355469 5.13037109 C58.97757813 5.11876953 59.81160156 5.10716797 60.67089844 5.09521484 C69.91084676 5.02112591 78.31642259 5.31320128 87.14355469 8.13037109 C87.14355469 8.79037109 87.14355469 9.45037109 87.14355469 10.13037109 C87.7378125 10.09556641 88.33207031 10.06076172 88.94433594 10.02490234 C95.75409676 9.80249958 101.70997253 10.87686591 108.14355469 13.13037109 C108.47355469 13.46037109 108.80355469 13.79037109 109.14355469 14.13037109 C110.8657006 14.47949437 112.59684579 14.78468719 114.33105469 15.06787109 C118.42458807 15.77677727 122.24484742 16.65518456 126.14355469 18.13037109 C126.14355469 18.79037109 126.14355469 19.45037109 126.14355469 20.13037109 C128.12355469 20.13037109 130.10355469 20.13037109 132.14355469 20.13037109 C132.14355469 20.79037109 132.14355469 21.45037109 132.14355469 22.13037109 C132.73523437 22.17935547 133.32691406 22.22833984 133.93652344 22.27880859 C138.3345994 22.69493976 142.11284366 23.18002705 146.14355469 25.13037109 C146.14355469 25.79037109 146.14355469 26.45037109 146.14355469 27.13037109 C147.38105469 27.25412109 148.61855469 27.37787109 149.89355469 27.50537109 C153.01977439 27.88783414 155.43234706 28.43586632 158.14355469 30.13037109 C158.14355469 30.79037109 158.14355469 31.45037109 158.14355469 32.13037109 C159.38105469 32.25412109 160.61855469 32.37787109 161.89355469 32.50537109 C165.01977439 32.88783414 167.43234706 33.43586632 170.14355469 35.13037109 C170.14355469 35.79037109 170.14355469 36.45037109 170.14355469 37.13037109 C171.78324219 37.31599609 171.78324219 37.31599609 173.45605469 37.50537109 C177.14355469 38.13037109 177.14355469 38.13037109 180.14355469 40.13037109 C180.14355469 40.79037109 180.14355469 41.45037109 180.14355469 42.13037109 C181.79355469 42.13037109 183.44355469 42.13037109 185.14355469 42.13037109 C185.14355469 42.79037109 185.14355469 43.45037109 185.14355469 44.13037109 C185.88605469 44.25412109 186.62855469 44.37787109 187.39355469 44.50537109 C189.94496953 45.0852381 191.87031199 45.86745848 194.14355469 47.13037109 C194.14355469 47.79037109 194.14355469 48.45037109 194.14355469 49.13037109 C196.12355469 49.46037109 198.10355469 49.79037109 200.14355469 50.13037109 C200.14355469 50.79037109 200.14355469 51.45037109 200.14355469 52.13037109 C201.13355469 52.13037109 202.12355469 52.13037109 203.14355469 52.13037109 C203.14355469 52.79037109 203.14355469 53.45037109 203.14355469 54.13037109 C205.12355469 54.46037109 207.10355469 54.79037109 209.14355469 55.13037109 C209.14355469 55.79037109 209.14355469 56.45037109 209.14355469 57.13037109 C210.13355469 57.13037109 211.12355469 57.13037109 212.14355469 57.13037109 C212.14355469 57.79037109 212.14355469 58.45037109 212.14355469 59.13037109 C212.92730469 59.21287109 213.71105469 59.29537109 214.51855469 59.38037109 C217.14355469 60.13037109 217.14355469 60.13037109 218.45605469 62.19287109 C218.68292969 62.83224609 218.90980469 63.47162109 219.14355469 64.13037109 C220.13355469 64.13037109 221.12355469 64.13037109 222.14355469 64.13037109 C222.14355469 64.79037109 222.14355469 65.45037109 222.14355469 66.13037109 C222.88605469 66.25412109 223.62855469 66.37787109 224.39355469 66.50537109 C226.94496953 67.0852381 228.87031199 67.86745848 231.14355469 69.13037109 C231.14355469 69.79037109 231.14355469 70.45037109 231.14355469 71.13037109 C231.92730469 71.43974609 232.71105469 71.74912109 233.51855469 72.06787109 C236.14355469 73.13037109 236.14355469 73.13037109 238.14355469 74.13037109 C238.14355469 74.79037109 238.14355469 75.45037109 238.14355469 76.13037109 C238.94792969 76.39849609 239.75230469 76.66662109 240.58105469 76.94287109 C241.42667969 77.33474609 242.27230469 77.72662109 243.14355469 78.13037109 C243.47355469 79.12037109 243.80355469 80.11037109 244.14355469 81.13037109 C246.04534254 81.73098343 246.04534254 81.73098343 248.14355469 82.13037109 C249.13355469 82.79037109 250.12355469 83.45037109 251.14355469 84.13037109 C251.14355469 84.79037109 251.14355469 85.45037109 251.14355469 86.13037109 C251.80355469 86.31599609 252.46355469 86.50162109 253.14355469 86.69287109 C256.81553148 88.45235997 259.39306501 90.83020754 262.37402344 93.57177734 C264.07169975 95.20093826 264.07169975 95.20093826 266.14355469 96.13037109 C266.14355469 96.79037109 266.14355469 97.45037109 266.14355469 98.13037109 C266.97886719 98.50162109 266.97886719 98.50162109 267.83105469 98.88037109 C270.56766382 100.35961927 272.82006338 102.06504549 275.14355469 104.13037109 C275.14355469 104.79037109 275.14355469 105.45037109 275.14355469 106.13037109 C275.80355469 106.13037109 276.46355469 106.13037109 277.14355469 106.13037109 C278.30900324 107.26154175 279.46728291 108.40100657 280.58886719 109.57568359 C282.35980882 111.34662523 284.23456167 112.94702796 286.14355469 114.56787109 C289.5566927 117.52850975 292.44470078 120.50378616 295.14355469 124.13037109 C295.14355469 124.79037109 295.14355469 125.45037109 295.14355469 126.13037109 C296.10261719 126.50162109 296.10261719 126.50162109 297.08105469 126.88037109 C299.68785569 128.46025049 299.43550546 129.2981742 300.14355469 132.13037109 C301.46002587 132.82974641 302.7937762 133.49766243 304.14355469 134.13037109 C304.47355469 135.12037109 304.80355469 136.11037109 305.14355469 137.13037109 C305.80355469 137.13037109 306.46355469 137.13037109 307.14355469 137.13037109 C312.14355469 142.60656157 312.14355469 142.60656157 312.14355469 145.13037109 C312.80355469 145.13037109 313.46355469 145.13037109 314.14355469 145.13037109 C316.44004118 147.69183679 317.14355469 148.61004681 317.14355469 152.13037109 C318.10261719 152.53255859 318.10261719 152.53255859 319.08105469 152.94287109 C321.14355469 154.13037109 321.14355469 154.13037109 322.14355469 157.13037109 C322.80355469 157.13037109 323.46355469 157.13037109 324.14355469 157.13037109 C324.14355469 158.12037109 324.14355469 159.11037109 324.14355469 160.13037109 C324.80355469 160.13037109 325.46355469 160.13037109 326.14355469 160.13037109 C326.47355469 161.45037109 326.80355469 162.77037109 327.14355469 164.13037109 C327.80355469 164.13037109 328.46355469 164.13037109 329.14355469 164.13037109 C329.14355469 165.12037109 329.14355469 166.11037109 329.14355469 167.13037109 C329.80355469 167.13037109 330.46355469 167.13037109 331.14355469 167.13037109 C331.47355469 168.45037109 331.80355469 169.77037109 332.14355469 171.13037109 C332.80355469 171.13037109 333.46355469 171.13037109 334.14355469 171.13037109 C334.14355469 172.12037109 334.14355469 173.11037109 334.14355469 174.13037109 C334.80355469 174.13037109 335.46355469 174.13037109 336.14355469 174.13037109 C339.14355469 178.51498648 339.14355469 178.51498648 339.14355469 181.13037109 C339.80355469 181.13037109 340.46355469 181.13037109 341.14355469 181.13037109 C341.14355469 182.12037109 341.14355469 183.11037109 341.14355469 184.13037109 C341.80355469 184.13037109 342.46355469 184.13037109 343.14355469 184.13037109 C343.47355469 185.78037109 343.80355469 187.43037109 344.14355469 189.13037109 C344.80355469 189.13037109 345.46355469 189.13037109 346.14355469 189.13037109 C348.57516074 192.49721024 349.14355469 193.86387474 349.14355469 198.13037109 C349.80355469 198.13037109 350.46355469 198.13037109 351.14355469 198.13037109 C351.14355469 199.12037109 351.14355469 200.11037109 351.14355469 201.13037109 C351.80355469 201.13037109 352.46355469 201.13037109 353.14355469 201.13037109 C353.47355469 202.78037109 353.80355469 204.43037109 354.14355469 206.13037109 C354.80355469 206.13037109 355.46355469 206.13037109 356.14355469 206.13037109 C356.99015808 207.51819595 357.82030808 208.91606506 358.64355469 210.31787109 C359.10761719 211.09517578 359.57167969 211.87248047 360.04980469 212.67333984 C361.25085116 215.37140495 361.35096512 217.21106929 361.14355469 220.13037109 C361.80355469 220.13037109 362.46355469 220.13037109 363.14355469 220.13037109 C365.68287748 223.54869024 366.50717449 225.88814007 366.14355469 230.13037109 C366.80355469 230.13037109 367.46355469 230.13037109 368.14355469 230.13037109 C368.14355469 231.12037109 368.14355469 232.11037109 368.14355469 233.13037109 C368.80355469 233.13037109 369.46355469 233.13037109 370.14355469 233.13037109 C370.47355469 235.44037109 370.80355469 237.75037109 371.14355469 240.13037109 C371.80355469 240.13037109 372.46355469 240.13037109 373.14355469 240.13037109 C373.14355469 241.78037109 373.14355469 243.43037109 373.14355469 245.13037109 C373.80355469 245.13037109 374.46355469 245.13037109 375.14355469 245.13037109 C375.47355469 247.44037109 375.80355469 249.75037109 376.14355469 252.13037109 C376.80355469 252.13037109 377.46355469 252.13037109 378.14355469 252.13037109 C378.14355469 253.78037109 378.14355469 255.43037109 378.14355469 257.13037109 C378.80355469 257.13037109 379.46355469 257.13037109 380.14355469 257.13037109 C382.05975616 262.09507491 383.70431989 267.00309712 385.14355469 272.13037109 C385.61543477 273.57027947 386.09509498 275.0076533 386.58105469 276.44287109 C389.36130705 284.72774371 391.64050347 292.99534477 393.49511719 301.54052734 C393.88616463 304.04437818 393.88616463 304.04437818 395.14355469 305.13037109 C395.2847063 307.8009596 395.18602576 310.45469347 395.14355469 313.13037109 C395.80355469 313.13037109 396.46355469 313.13037109 397.14355469 313.13037109 C398.46641715 318.09110531 398.23248666 323.04148622 398.14355469 328.13037109 C398.80355469 328.13037109 399.46355469 328.13037109 400.14355469 328.13037109 C400.14355469 332.09037109 400.14355469 336.05037109 400.14355469 340.13037109 C400.80355469 340.13037109 401.46355469 340.13037109 402.14355469 340.13037109 C402.46282533 341.58723712 402.77346303 343.04599461 403.08105469 344.50537109 C403.25507813 345.31748047 403.42910156 346.12958984 403.60839844 346.96630859 C405.19370868 356.33931077 405.28647795 365.65202451 405.27120519 375.13865763 C405.27244955 376.65753448 405.27413124 378.17641102 405.27620755 379.69528697 C405.28065012 383.87306211 405.27888205 388.05081503 405.27610576 392.22859076 C405.27418139 396.78914615 405.27806675 401.34969726 405.28120255 405.91025147 C405.28591587 413.93534839 405.28690088 421.96043915 405.28547421 429.98553724 C405.28335412 441.99952943 405.28696494 454.01351523 405.29168898 466.02750643 C405.29956552 486.50192818 405.30265119 506.97634819 405.30313492 527.45077133 C405.30363708 548.20503639 405.30628163 568.9592995 405.31154251 589.71356392 C405.31203771 591.67849126 405.31203771 591.67849126 405.31254292 593.6831141 C405.31389289 599.01819237 405.31525433 604.35327063 405.31663502 609.68834889 C405.33179968 668.36866305 405.33857747 727.04897672 405.34305699 785.72929254 C405.34314202 786.84256145 405.34314202 786.84256145 405.34322877 787.97832064 C405.3435153 791.73243348 405.34380033 795.48654633 405.34408289 799.24065918 C405.34645821 830.69599241 405.35016791 862.15132543 405.35411999 893.6066585 C405.35601257 908.67134365 405.35784108 923.7360288 405.35965419 938.80071396 C405.35978947 939.92456698 405.35978947 939.92456698 405.35992749 941.07112411 C405.36426367 977.13048202 405.36819201 1013.18983996 405.37165451 1049.24919796 C405.37176532 1050.4029963 405.37176532 1050.4029963 405.37187837 1051.5801037 C405.37657317 1100.59893927 405.37939631 1149.61777477 405.38104129 1198.63661053 C405.38117687 1202.65540577 405.3813159 1206.674201 405.38145483 1210.69299624 C405.3816773 1217.13609299 405.38189867 1223.57918975 405.38211871 1230.02228651 C405.38215962 1231.21989938 405.38215962 1231.21989938 405.38220135 1232.44170645 C405.38225646 1234.05535377 405.38231157 1235.66900108 405.38236668 1237.28264839 C405.3827533 1248.60191351 405.38314124 1259.92117862 405.38353581 1271.24044374 C405.38367692 1275.29070877 405.38381699 1279.34097381 405.38395471 1283.39123884 C405.38655901 1359.89003849 405.39189004 1436.38883611 405.40783691 1512.88763428 C405.40800471 1513.69299724 405.4081725 1514.4983602 405.40834538 1515.32812809 C405.41359613 1540.49145719 405.41917046 1565.65478622 405.42480469 1590.81811523 C405.43058567 1616.63763965 405.43631623 1642.45716408 405.44176102 1668.27668858 C405.44192882 1669.07168846 405.44209663 1669.86668835 405.44226952 1670.68577914 C405.45276259 1720.47518336 405.45962427 1770.26458703 405.46262741 1820.05399227 C405.46269763 1821.20747971 405.46269763 1821.20747971 405.46276926 1822.38426992 C405.46481992 1856.15660123 405.46606401 1889.92893253 405.46641532 1923.7012639 C405.46655859 1937.28794505 405.46679725 1950.8746262 405.46707938 1964.46130735 C405.46712491 1966.71403963 405.46716656 1968.96677191 405.46720749 1971.21950419 C405.46785356 2005.67581771 405.47081084 2040.1321289 405.48066807 2074.58844113 C405.48088044 2075.3314542 405.48109281 2076.07446727 405.48131162 2076.83999588 C405.48474037 2088.79218894 405.48835335 2100.74438193 405.49198802 2112.69657493 C405.5023018 2146.62875317 405.51108262 2180.56092855 405.50914335 2214.49310863 C405.50910461 2215.18171916 405.50906588 2215.87032969 405.50902596 2216.57980721 C405.50814937 2231.60361325 405.50643723 2246.62741907 405.50390634 2261.65122491 C405.50290959 2267.64327354 405.50202388 2273.63532218 405.50117111 2279.62737083 C405.50098114 2280.93352778 405.50079118 2282.23968473 405.50059545 2283.58542219 C405.49785984 2304.28249899 405.50521005 2324.97955947 405.51674448 2345.67663272 C405.5278722 2366.0192645 405.52832964 2386.36187318 405.51737429 2406.70450531 C405.51127003 2418.63613012 405.51339344 2430.56768526 405.52762627 2442.49930353 C405.53625864 2450.42201845 405.53402277 2458.34468205 405.52292756 2466.26739378 C405.51694147 2470.75952422 405.51557837 2475.25151801 405.52761242 2479.74363941 C405.5384648 2483.82754466 405.53525969 2487.91119962 405.52131975 2491.99509331 C405.51871718 2493.45186071 405.52100549 2494.90864844 405.529133 2496.36539549 C405.58380691 2506.8778775 404.47088101 2516.8946912 402.14355469 2527.13037109 C401.81355469 2527.46037109 401.48355469 2527.79037109 401.14355469 2528.13037109 C400.90991588 2529.97929056 400.73051834 2531.83525141 400.58105469 2533.69287109 C400.49726563 2534.70478516 400.41347656 2535.71669922 400.32714844 2536.75927734 C400.2665625 2537.54173828 400.20597656 2538.32419922 400.14355469 2539.13037109 C399.48355469 2539.13037109 398.82355469 2539.13037109 398.14355469 2539.13037109 C398.15515625 2539.72205078 398.16675781 2540.31373047 398.17871094 2540.92333984 C398.22677855 2545.13268894 398.20362351 2549.02260439 397.14355469 2553.13037109 C396.48355469 2553.13037109 395.82355469 2553.13037109 395.14355469 2553.13037109 C395.15515625 2553.76845703 395.16675781 2554.40654297 395.17871094 2555.06396484 C395.19224609 2556.30339844 395.19224609 2556.30339844 395.20605469 2557.56787109 C395.21765625 2558.39158203 395.22925781 2559.21529297 395.24121094 2560.06396484 C395.14355469 2562.13037109 395.14355469 2562.13037109 394.14355469 2563.13037109 C393.79443141 2564.85251701 393.4892386 2566.5836622 393.20605469 2568.31787109 C392.49714852 2572.41140447 391.61874122 2576.23166383 390.14355469 2580.13037109 C389.48355469 2580.13037109 388.82355469 2580.13037109 388.14355469 2580.13037109 C388.26730469 2581.55349609 388.26730469 2581.55349609 388.39355469 2583.00537109 C388.40218926 2587.29675553 386.90217689 2590.61963725 385.22167969 2594.51318359 C384.16055076 2597.08911252 383.34598083 2599.64062958 382.58105469 2602.31787109 C381.39808352 2606.43227082 379.92070424 2610.23756731 378.14355469 2614.13037109 C377.48355469 2614.13037109 376.82355469 2614.13037109 376.14355469 2614.13037109 C375.81355469 2616.77037109 375.48355469 2619.41037109 375.14355469 2622.13037109 C374.48355469 2622.13037109 373.82355469 2622.13037109 373.14355469 2622.13037109 C373.01980469 2622.81099609 372.89605469 2623.49162109 372.76855469 2624.19287109 C372.05254592 2627.55811229 371.11410344 2630.83050534 370.14355469 2634.13037109 C369.48355469 2634.13037109 368.82355469 2634.13037109 368.14355469 2634.13037109 C368.14355469 2635.45037109 368.14355469 2636.77037109 368.14355469 2638.13037109 C367.48355469 2638.13037109 366.82355469 2638.13037109 366.14355469 2638.13037109 C365.95792969 2639.49162109 365.95792969 2639.49162109 365.76855469 2640.88037109 C365.22245791 2643.72007432 364.57091666 2645.65627701 363.14355469 2648.13037109 C362.48355469 2648.13037109 361.82355469 2648.13037109 361.14355469 2648.13037109 C361.01980469 2649.12037109 361.01980469 2649.12037109 360.89355469 2650.13037109 C359.89595678 2654.12076273 358.07188786 2657.51586752 356.14355469 2661.13037109 C355.48355469 2661.13037109 354.82355469 2661.13037109 354.14355469 2661.13037109 C353.95792969 2662.24412109 353.95792969 2662.24412109 353.76855469 2663.38037109 C353.18868768 2665.93178594 352.4064673 2667.8571284 351.14355469 2670.13037109 C350.48355469 2670.13037109 349.82355469 2670.13037109 349.14355469 2670.13037109 C348.81355469 2671.78037109 348.48355469 2673.43037109 348.14355469 2675.13037109 C347.48355469 2675.13037109 346.82355469 2675.13037109 346.14355469 2675.13037109 C346.14355469 2676.12037109 346.14355469 2677.11037109 346.14355469 2678.13037109 C345.48355469 2678.13037109 344.82355469 2678.13037109 344.14355469 2678.13037109 C343.81355469 2679.78037109 343.48355469 2681.43037109 343.14355469 2683.13037109 C342.48355469 2683.13037109 341.82355469 2683.13037109 341.14355469 2683.13037109 C341.14355469 2683.79037109 341.14355469 2684.45037109 341.14355469 2685.13037109 C340.48355469 2685.13037109 339.82355469 2685.13037109 339.14355469 2685.13037109 C339.06105469 2685.85224609 338.97855469 2686.57412109 338.89355469 2687.31787109 C337.98641637 2690.71963977 336.5434459 2692.58503193 334.14355469 2695.13037109 C333.48355469 2695.13037109 332.82355469 2695.13037109 332.14355469 2695.13037109 C331.81355469 2696.78037109 331.48355469 2698.43037109 331.14355469 2700.13037109 C330.48355469 2700.13037109 329.82355469 2700.13037109 329.14355469 2700.13037109 C329.14355469 2701.12037109 329.14355469 2702.11037109 329.14355469 2703.13037109 C328.48355469 2703.13037109 327.82355469 2703.13037109 327.14355469 2703.13037109 C326.81355469 2704.45037109 326.48355469 2705.77037109 326.14355469 2707.13037109 C325.48355469 2707.13037109 324.82355469 2707.13037109 324.14355469 2707.13037109 C324.14355469 2708.12037109 324.14355469 2709.11037109 324.14355469 2710.13037109 C323.48355469 2710.13037109 322.82355469 2710.13037109 322.14355469 2710.13037109 C321.81355469 2711.45037109 321.48355469 2712.77037109 321.14355469 2714.13037109 C320.48355469 2714.13037109 319.82355469 2714.13037109 319.14355469 2714.13037109 C319.14355469 2714.79037109 319.14355469 2715.45037109 319.14355469 2716.13037109 C318.48355469 2716.13037109 317.82355469 2716.13037109 317.14355469 2716.13037109 C317.14355469 2717.12037109 317.14355469 2718.11037109 317.14355469 2719.13037109 C316.48355469 2719.13037109 315.82355469 2719.13037109 315.14355469 2719.13037109 C314.81355469 2720.12037109 314.48355469 2721.11037109 314.14355469 2722.13037109 C313.48355469 2722.13037109 312.82355469 2722.13037109 312.14355469 2722.13037109 C312.14355469 2722.79037109 312.14355469 2723.45037109 312.14355469 2724.13037109 C311.48355469 2724.13037109 310.82355469 2724.13037109 310.14355469 2724.13037109 C309.81355469 2725.45037109 309.48355469 2726.77037109 309.14355469 2728.13037109 C308.48355469 2728.13037109 307.82355469 2728.13037109 307.14355469 2728.13037109 C306.67949219 2729.05849609 306.67949219 2729.05849609 306.20605469 2730.00537109 C305.51855469 2731.38037109 304.83105469 2732.75537109 304.14355469 2734.13037109 C303.48355469 2734.13037109 302.82355469 2734.13037109 302.14355469 2734.13037109 C302.14355469 2734.79037109 302.14355469 2735.45037109 302.14355469 2736.13037109 C301.48355469 2736.13037109 300.82355469 2736.13037109 300.14355469 2736.13037109 C299.81355469 2737.12037109 299.48355469 2738.11037109 299.14355469 2739.13037109 C298.48355469 2739.13037109 297.82355469 2739.13037109 297.14355469 2739.13037109 C297.14355469 2739.79037109 297.14355469 2740.45037109 297.14355469 2741.13037109 C296.48355469 2741.13037109 295.82355469 2741.13037109 295.14355469 2741.13037109 C294.87542969 2741.76974609 294.60730469 2742.40912109 294.33105469 2743.06787109 C293.14355469 2745.13037109 293.14355469 2745.13037109 290.14355469 2746.13037109 C290.14355469 2747.12037109 290.14355469 2748.11037109 290.14355469 2749.13037109 C289.35980469 2749.37787109 288.57605469 2749.62537109 287.76855469 2749.88037109 C284.7341747 2751.32531394 284.47325744 2752.18602928 283.14355469 2755.13037109 C281.65855469 2755.62537109 281.65855469 2755.62537109 280.14355469 2756.13037109 C280.14355469 2756.79037109 280.14355469 2757.45037109 280.14355469 2758.13037109 C279.48355469 2758.13037109 278.82355469 2758.13037109 278.14355469 2758.13037109 C277.81355469 2759.12037109 277.48355469 2760.11037109 277.14355469 2761.13037109 C276.48355469 2761.13037109 275.82355469 2761.13037109 275.14355469 2761.13037109 C275.14355469 2761.79037109 275.14355469 2762.45037109 275.14355469 2763.13037109 C274.48355469 2763.13037109 273.82355469 2763.13037109 273.14355469 2763.13037109 C273.14355469 2763.79037109 273.14355469 2764.45037109 273.14355469 2765.13037109 C272.58667969 2765.35724609 272.02980469 2765.58412109 271.45605469 2765.81787109 C268.93164252 2767.11513558 268.93164252 2767.11513558 266.58105469 2769.69287109 C264.14355469 2772.13037109 264.14355469 2772.13037109 261.14355469 2773.13037109 C260.81355469 2774.12037109 260.48355469 2775.11037109 260.14355469 2776.13037109 C257.58105469 2777.31787109 257.58105469 2777.31787109 255.14355469 2778.13037109 C255.14355469 2778.79037109 255.14355469 2779.45037109 255.14355469 2780.13037109 C254.48355469 2780.13037109 253.82355469 2780.13037109 253.14355469 2780.13037109 C253.14355469 2780.79037109 253.14355469 2781.45037109 253.14355469 2782.13037109 C250.66855469 2782.62537109 250.66855469 2782.62537109 248.14355469 2783.13037109 C248.14355469 2783.79037109 248.14355469 2784.45037109 248.14355469 2785.13037109 C247.48355469 2785.13037109 246.82355469 2785.13037109 246.14355469 2785.13037109 C246.14355469 2785.79037109 246.14355469 2786.45037109 246.14355469 2787.13037109 C245.35980469 2787.21287109 244.57605469 2787.29537109 243.76855469 2787.38037109 C242.90230469 2787.62787109 242.03605469 2787.87537109 241.14355469 2788.13037109 C240.85867188 2788.72978516 240.57378906 2789.32919922 240.28027344 2789.94677734 C238.79223337 2792.80524606 236.97010834 2793.99387749 234.33105469 2795.81787109 C233.05294922 2796.72085938 233.05294922 2796.72085938 231.74902344 2797.64208984 C229.14130017 2799.13165891 227.0999185 2799.73229697 224.14355469 2800.13037109 C224.14355469 2800.79037109 224.14355469 2801.45037109 224.14355469 2802.13037109 C223.48355469 2802.13037109 222.82355469 2802.13037109 222.14355469 2802.13037109 C222.14355469 2802.79037109 222.14355469 2803.45037109 222.14355469 2804.13037109 C219.66855469 2804.62537109 219.66855469 2804.62537109 217.14355469 2805.13037109 C217.14355469 2805.79037109 217.14355469 2806.45037109 217.14355469 2807.13037109 C216.15355469 2807.13037109 215.16355469 2807.13037109 214.14355469 2807.13037109 C214.14355469 2807.79037109 214.14355469 2808.45037109 214.14355469 2809.13037109 C213.63566406 2809.37271484 213.12777344 2809.61505859 212.60449219 2809.86474609 C209.34561781 2811.45146395 206.28020703 2813.0382793 203.26855469 2815.06787109 C192.56779711 2822.13037109 192.56779711 2822.13037109 187.14355469 2822.13037109 C187.14355469 2822.79037109 187.14355469 2823.45037109 187.14355469 2824.13037109 C185.37599942 2824.97063506 183.60438206 2825.80235831 181.83105469 2826.63037109 C180.84492188 2827.09443359 179.85878906 2827.55849609 178.84277344 2828.03662109 C176.14355469 2829.13037109 176.14355469 2829.13037109 173.14355469 2829.13037109 C173.14355469 2829.79037109 173.14355469 2830.45037109 173.14355469 2831.13037109 C169.18355469 2831.62537109 169.18355469 2831.62537109 165.14355469 2832.13037109 C165.14355469 2832.79037109 165.14355469 2833.45037109 165.14355469 2834.13037109 C159.61441482 2837.10760025 154.13886051 2839.20970696 148.16308594 2841.12646484 C145.37621351 2842.05301881 142.67349548 2843.08138287 139.95605469 2844.19287109 C126.60373325 2849.6065527 126.60373325 2849.6065527 119.14355469 2849.13037109 C119.14355469 2849.79037109 119.14355469 2850.45037109 119.14355469 2851.13037109 C114.30503621 2853.30184773 109.62357793 2853.8346894 104.39746094 2854.47021484 C101.13869547 2854.96633405 101.13869547 2854.96633405 98.49902344 2856.56396484 C93.49688397 2858.89907302 88.32433931 2859.44913822 82.89355469 2860.25537109 C80.7212612 2860.58859176 78.54936216 2860.92439745 76.37792969 2861.26318359 C74.94271973 2861.4780542 74.94271973 2861.4780542 73.47851562 2861.69726562 C71.1311396 2862.02133244 71.1311396 2862.02133244 69.14355469 2863.13037109 C66.32412253 2863.44364133 63.50377387 2863.64067073 60.67480469 2863.84912109 C58.15281465 2863.98169721 58.15281465 2863.98169721 56.14355469 2865.13037109 C53.91570017 2865.34307525 51.68242865 2865.50002658 49.44824219 2865.63037109 C48.44883102 2865.6912793 48.44883102 2865.6912793 47.42922974 2865.75341797 C45.29256106 2865.88318338 43.15561339 2866.00720877 41.01855469 2866.13037109 C38.22408492 2866.29385013 35.42982293 2866.46037216 32.63574219 2866.63037109 C31.96121506 2866.67103195 31.28668793 2866.71169281 30.59172058 2866.75358582 C27.35276851 2866.95753876 24.14823546 2867.21419982 20.93652344 2867.68115234 C15.48276365 2868.32706622 10.06845957 2868.32138941 4.58105469 2868.31787109 C3.39664795 2868.31779053 2.21224121 2868.31770996 0.99194336 2868.31762695 C-9.50827603 2868.25096112 -19.85043404 2867.42524836 -30.28955078 2866.36962891 C-35.47388966 2865.88640158 -40.67280249 2865.64074298 -45.87207031 2865.37646484 C-48.85644531 2865.13037109 -48.85644531 2865.13037109 -51.85644531 2864.13037109 C-54.49328746 2863.86200105 -57.13004235 2863.68708202 -59.77441406 2863.50927734 C-62.84015209 2863.13237419 -65.72401472 2862.42768375 -68.70825195 2861.64526367 C-73.18392572 2860.57250586 -77.76711258 2860.00524357 -82.32128906 2859.36279297 C-87.06881128 2858.63084959 -90.54372948 2857.32150898 -94.85644531 2855.13037109 C-98.50292429 2854.35254628 -98.50292429 2854.35254628 -102.23144531 2853.94287109 C-103.47667969 2853.78431641 -104.72191406 2853.62576172 -106.00488281 2853.46240234 C-106.94589844 2853.35283203 -107.88691406 2853.24326172 -108.85644531 2853.13037109 C-108.85644531 2852.47037109 -108.85644531 2851.81037109 -108.85644531 2851.13037109 C-110.17644531 2851.13037109 -111.49644531 2851.13037109 -112.85644531 2851.13037109 C-112.85644531 2850.47037109 -112.85644531 2849.81037109 -112.85644531 2849.13037109 C-114.39171875 2849.19611328 -114.39171875 2849.19611328 -115.95800781 2849.26318359 C-119.92182117 2849.12814386 -122.5523693 2848.42177082 -126.23144531 2847.00537109 C-127.43800781 2846.55033203 -128.64457031 2846.09529297 -129.88769531 2845.62646484 C-130.52707031 2845.3826709 -131.16644531 2845.13887695 -131.82519531 2844.88769531 C-133.96025472 2844.09166716 -136.10727529 2843.34206887 -138.26269531 2842.60302734 C-139.00600098 2842.34730957 -139.74930664 2842.0915918 -140.51513672 2841.828125 C-141.94863939 2841.33639474 -143.3831495 2840.84758746 -144.81884766 2840.36230469 C-149.08117257 2838.88274374 -153.06064317 2837.11401344 -157.07080078 2835.04711914 C-159.17290557 2833.96790072 -161.31304035 2833.00588897 -163.48144531 2832.06787109 C-166.09583011 2830.92492146 -168.62301834 2829.73985276 -171.16894531 2828.44287109 C-173.44351124 2827.33203657 -175.38546941 2826.60555877 -177.85644531 2826.13037109 C-177.85644531 2825.47037109 -177.85644531 2824.81037109 -177.85644531 2824.13037109 C-178.44167969 2824.00146484 -179.02691406 2823.87255859 -179.62988281 2823.73974609 C-181.7773642 2823.15201434 -183.51062635 2822.40351966 -185.48144531 2821.38037109 C-186.50625 2820.85443359 -186.50625 2820.85443359 -187.55175781 2820.31787109 C-188.31230469 2819.92599609 -189.07285156 2819.53412109 -189.85644531 2819.13037109 C-191.68873342 2818.21161694 -193.52207385 2817.29495856 -195.35644531 2816.38037109 C-196.85644531 2815.63037109 -198.35644531 2814.88037109 -199.85644531 2814.13037109 C-199.85644531 2813.47037109 -199.85644531 2812.81037109 -199.85644531 2812.13037109 C-200.55769531 2811.86224609 -201.25894531 2811.59412109 -201.98144531 2811.31787109 C-205.02142771 2810.06222619 -207.92922272 2808.62801986 -210.85644531 2807.13037109 C-210.85644531 2806.47037109 -210.85644531 2805.81037109 -210.85644531 2805.13037109 C-212.00113281 2804.97568359 -212.00113281 2804.97568359 -213.16894531 2804.81787109 C-216.17543547 2804.04876896 -216.76868401 2803.30164285 -218.85644531 2801.13037109 C-220.15582031 2800.48068359 -220.15582031 2800.48068359 -221.48144531 2799.81787109 C-225.83269427 2797.64224661 -230.04614856 2795.17014117 -233.85644531 2792.13037109 C-233.85644531 2791.47037109 -233.85644531 2790.81037109 -233.85644531 2790.13037109 C-234.51644531 2790.13037109 -235.17644531 2790.13037109 -235.85644531 2790.13037109 C-235.85644531 2789.47037109 -235.85644531 2788.81037109 -235.85644531 2788.13037109 C-236.41847656 2788.03626953 -236.98050781 2787.94216797 -237.55957031 2787.84521484 C-240.42176363 2786.95443019 -242.25414992 2785.54165228 -244.60644531 2783.69287109 C-245.40566406 2783.07541016 -246.20488281 2782.45794922 -247.02832031 2781.82177734 C-247.93324219 2780.98453125 -247.93324219 2780.98453125 -248.85644531 2780.13037109 C-248.85644531 2779.47037109 -248.85644531 2778.81037109 -248.85644531 2778.13037109 C-249.57574219 2777.89318359 -250.29503906 2777.65599609 -251.03613281 2777.41162109 C-254.30221777 2775.92785951 -256.37505045 2774.08532405 -258.98144531 2771.63037109 C-261.56055011 2769.21589001 -263.91246142 2767.09302702 -266.85644531 2765.13037109 C-266.85644531 2764.47037109 -266.85644531 2763.81037109 -266.85644531 2763.13037109 C-267.51644531 2763.13037109 -268.17644531 2763.13037109 -268.85644531 2763.13037109 C-268.85644531 2762.47037109 -268.85644531 2761.81037109 -268.85644531 2761.13037109 C-269.81550781 2760.72818359 -269.81550781 2760.72818359 -270.79394531 2760.31787109 C-272.85644531 2759.13037109 -272.85644531 2759.13037109 -273.85644531 2756.13037109 C-275.73230554 2755.06724863 -275.73230554 2755.06724863 -277.85644531 2754.13037109 C-282.76601449 2750.50984405 -287.33881524 2746.12978673 -290.85644531 2741.13037109 C-290.85644531 2740.47037109 -290.85644531 2739.81037109 -290.85644531 2739.13037109 C-291.81550781 2738.72818359 -291.81550781 2738.72818359 -292.79394531 2738.31787109 C-294.85644531 2737.13037109 -294.85644531 2737.13037109 -295.85644531 2734.13037109 C-296.51644531 2734.13037109 -297.17644531 2734.13037109 -297.85644531 2734.13037109 C-299.80175781 2732.01318359 -299.80175781 2732.01318359 -301.98144531 2729.25537109 C-302.70589844 2728.35044922 -303.43035156 2727.44552734 -304.17675781 2726.51318359 C-305.85644531 2724.13037109 -305.85644531 2724.13037109 -305.85644531 2722.13037109 C-306.75363281 2721.75912109 -306.75363281 2721.75912109 -307.66894531 2721.38037109 C-310.1727145 2719.94964584 -311.33716919 2718.56121289 -312.85644531 2716.13037109 C-312.85644531 2715.47037109 -312.85644531 2714.81037109 -312.85644531 2714.13037109 C-313.51644531 2714.13037109 -314.17644531 2714.13037109 -314.85644531 2714.13037109 C-317.1529318 2711.56890539 -317.85644531 2710.65069537 -317.85644531 2707.13037109 C-319.34144531 2706.63537109 -319.34144531 2706.63537109 -320.85644531 2706.13037109 C-322.85644531 2703.13037109 -322.85644531 2703.13037109 -322.85644531 2700.13037109 C-323.75169922 2699.77652344 -323.75169922 2699.77652344 -324.66503906 2699.41552734 C-327.38849251 2697.81835055 -328.30341621 2696.27419223 -329.91894531 2693.56787109 C-330.51578125 2692.58947266 -331.11261719 2691.61107422 -331.72753906 2690.60302734 C-332.05995605 2690.05533691 -332.39237305 2689.50764648 -332.73486328 2688.94335938 C-334.44777448 2686.17451337 -336.23907601 2683.45808738 -338.02294922 2680.73461914 C-349.85644531 2662.6476334 -349.85644531 2662.6476334 -349.85644531 2658.13037109 C-350.51644531 2658.13037109 -351.17644531 2658.13037109 -351.85644531 2658.13037109 C-354.52311198 2652.79703776 -357.18977865 2647.46370443 -359.85644531 2642.13037109 C-360.22656738 2641.47262695 -360.59668945 2640.81488281 -360.97802734 2640.13720703 C-361.85644531 2638.13037109 -361.85644531 2638.13037109 -361.85644531 2634.13037109 C-362.51644531 2634.13037109 -363.17644531 2634.13037109 -363.85644531 2634.13037109 C-364.08307861 2633.5914624 -364.30971191 2633.05255371 -364.54321289 2632.49731445 C-365.5848808 2630.02073109 -366.62691067 2627.54430018 -367.66894531 2625.06787109 C-368.02537109 2624.2203125 -368.38179687 2623.37275391 -368.74902344 2622.49951172 C-369.10029297 2621.66484375 -369.4515625 2620.83017578 -369.81347656 2619.97021484 C-370.16450439 2619.13474121 -370.51553223 2618.29926758 -370.87719727 2617.43847656 C-371.67486466 2615.55835999 -372.49654457 2613.68844538 -373.32519531 2611.82177734 C-375.60342428 2606.32961823 -377.57280176 2600.73885611 -379.54394531 2595.13037109 C-379.95966797 2593.98052734 -380.37539062 2592.83068359 -380.80371094 2591.64599609 C-382.79676921 2585.96463459 -384.46236114 2581.17196658 -383.85644531 2575.13037109 C-384.51644531 2575.13037109 -385.17644531 2575.13037109 -385.85644531 2575.13037109 C-388.71273274 2564.19025133 -388.71273274 2564.19025133 -389.35644531 2559.44287109 C-389.77099691 2556.69646679 -390.32953658 2554.74543549 -391.29394531 2552.19287109 C-393.12475013 2547.05768685 -393.64497039 2541.84289687 -394.2097168 2536.45092773 C-394.29590172 2532.99525574 -394.29590172 2532.99525574 -395.85644531 2530.13037109 C-401.4913311 2503.23852382 -401.15879206 2475.08442629 -401.11126263 2447.74029621 C-401.10581501 2443.29263745 -401.11218995 2438.84499106 -401.11693633 2434.39733362 C-401.1236771 2426.59769621 -401.12309238 2418.79808683 -401.11756924 2410.99844885 C-401.10933845 2399.32210098 -401.1127544 2387.64577558 -401.11833452 2375.96942717 C-401.12751036 2356.06330946 -401.12724631 2336.15720199 -401.12177277 2316.25108337 C-401.11626276 2296.08930758 -401.11511559 2275.92753853 -401.11924744 2255.76576233 C-401.11950578 2254.49048449 -401.11976413 2253.21520666 -401.1200303 2251.90128404 C-401.12109689 2246.70694555 -401.12219431 2241.51260706 -401.12333085 2236.31826858 C-401.12653161 2221.67945922 -401.1290507 2207.04064978 -401.13109159 2192.40184021 C-401.1311854 2191.73119464 -401.1312792 2191.06054907 -401.13137585 2190.36958091 C-401.13592849 2157.34660657 -401.13286323 2124.32363344 -401.12903595 2091.30065918 C-401.12886868 2089.85488024 -401.12870141 2088.40910131 -401.12853416 2086.96332237 C-401.12845125 2086.2467844 -401.12836834 2085.53024643 -401.12828291 2084.79199519 C-401.12718981 2075.34211932 -401.12611659 2065.89224344 -401.12509632 2056.44236755 C-401.125018 2055.71997689 -401.12493968 2054.99758624 -401.12485898 2054.25330495 C-401.12125359 2020.7496762 -401.12211448 1987.24604805 -401.12395723 1953.74241921 C-401.12415683 1950.08541309 -401.12434783 1946.42840696 -401.12453978 1942.77140084 C-401.12512099 1931.74825634 -401.12571487 1920.72511184 -401.12633498 1909.70196734 C-401.12822387 1876.08941786 -401.12942448 1842.47686838 -401.13003159 1808.86431885 C-401.13004532 1808.11596446 -401.13005906 1807.36761008 -401.13007321 1806.59657829 C-401.13095045 1758.14460577 -401.12875036 1709.69263393 -401.12433243 1661.24066162 C-401.12426219 1660.4673803 -401.12419195 1659.69409897 -401.12411959 1658.89738488 C-401.12176701 1632.99766201 -401.11925482 1607.09793915 -401.11672633 1581.1982163 C-401.10908576 1502.8815328 -401.10489825 1424.5648517 -401.11695699 1284.69981015 C-401.11948348 1258.80656696 -401.12198057 1232.91332377 -401.12433243 1207.02008057 C-401.12440292 1206.24701552 -401.12447341 1205.47395048 -401.12454603 1204.67745923 C-401.1289579 1156.25044718 -401.13092052 1107.82343559 -401.13003159 1059.39642334 C-401.13001807 1058.64831987 -401.13000456 1057.90021641 -401.12999064 1057.12944314 C-401.12937715 1023.53543412 -401.12810043 989.94142515 -401.12621058 956.34741618 C-401.12559151 945.32919056 -401.12500283 934.31096493 -401.12442448 923.2927393 C-401.1242325 919.63784425 -401.12403779 915.98294919 -401.12383677 912.32805413 C-401.12199966 878.82482733 -401.12146388 845.32160133 -401.12509632 811.81837463 C-401.12517427 811.09644365 -401.12525221 810.37451267 -401.12533252 809.63070499 C-401.12635603 800.18627659 -401.12744133 790.74184821 -401.12853416 781.29741982 C-401.12861699 780.5814503 -401.12869981 779.86548078 -401.12878515 779.12781522 C-401.12895227 777.68335516 -401.12911953 776.23889511 -401.12928694 774.79443505 C-401.13309912 741.81592357 -401.13570428 708.83741351 -401.13109159 675.85890198 C-401.13099822 675.18914331 -401.13090484 674.51938464 -401.13080864 673.82933025 C-401.12865599 658.56238975 -401.12581493 643.29544943 -401.12247446 628.02850914 C-401.12136977 622.85066605 -401.12029636 617.67282296 -401.11924744 612.49497986 C-401.11898702 611.22426339 -401.11872661 609.95354692 -401.1184583 608.64432389 C-401.11451636 588.53846343 -401.11725698 568.43260971 -401.12278545 548.32674986 C-401.12808118 528.54814198 -401.12620946 508.76954545 -401.11675727 488.99093901 C-401.11142992 477.40207557 -401.11151408 465.81324328 -401.11972047 454.22438134 C-401.1246281 446.51607054 -401.12221278 438.80778385 -401.11398676 431.09947595 C-401.109532 426.73753872 -401.1080379 422.37566325 -401.11561979 418.01372892 C-401.15898732 391.13751257 -401.11887527 363.59719242 -395.85644531 337.13037109 C-395.52644531 336.80037109 -395.19644531 336.47037109 -394.85644531 336.13037109 C-394.52904983 333.63026014 -394.24434308 331.1372991 -393.98144531 328.63037109 C-393.37350226 323.30488336 -392.54766038 318.53285395 -390.63378906 313.50537109 C-389.61768576 310.40089467 -389.07362961 307.27971812 -388.48144531 304.06787109 C-387.07894416 296.63098545 -384.96562785 289.51328699 -382.58203125 282.33935547 C-381.82053758 280.02105307 -381.09113449 277.69411922 -380.36425781 275.36474609 C-375.77704074 260.89435233 -369.93916179 247.02923778 -363.85644531 233.13037109 C-363.19644531 233.13037109 -362.53644531 233.13037109 -361.85644531 233.13037109 C-361.76363281 232.46779297 -361.67082031 231.80521484 -361.57519531 231.12255859 C-360.64831133 227.26390028 -359.05433396 223.82138204 -357.35644531 220.25537109 C-357.00332275 219.50940674 -356.6502002 218.76344238 -356.28637695 217.99487305 C-352.92108299 211.0259624 -349.01732373 204.46204787 -344.93359375 197.89697266 C-343.85377348 196.12598909 -342.82092715 194.33529365 -341.80175781 192.52880859 C-341.18042969 191.42794922 -340.55910156 190.32708984 -339.91894531 189.19287109 C-339.37367188 188.21447266 -338.82839844 187.23607422 -338.26660156 186.22802734 C-337.80125 185.53580078 -337.33589844 184.84357422 -336.85644531 184.13037109 C-336.19644531 184.13037109 -335.53644531 184.13037109 -334.85644531 184.13037109 C-334.85644531 183.14037109 -334.85644531 182.15037109 -334.85644531 181.13037109 C-334.19644531 181.13037109 -333.53644531 181.13037109 -332.85644531 181.13037109 C-332.39238281 179.95474609 -332.39238281 179.95474609 -331.91894531 178.75537109 C-330.85644531 176.13037109 -330.85644531 176.13037109 -329.85644531 174.13037109 C-329.19644531 174.13037109 -328.53644531 174.13037109 -327.85644531 174.13037109 C-327.52644531 172.48037109 -327.19644531 170.83037109 -326.85644531 169.13037109 C-326.19644531 169.13037109 -325.53644531 169.13037109 -324.85644531 169.13037109 C-324.62957031 168.44974609 -324.40269531 167.76912109 -324.16894531 167.06787109 C-322.54418385 163.4315002 -320.52841275 160.10207846 -317.85644531 157.13037109 C-317.19644531 157.13037109 -316.53644531 157.13037109 -315.85644531 157.13037109 C-315.48519531 156.32599609 -315.48519531 156.32599609 -315.10644531 155.50537109 C-313.54991995 152.5479729 -311.82208858 149.83313059 -309.85644531 147.13037109 C-309.19644531 147.13037109 -308.53644531 147.13037109 -307.85644531 147.13037109 C-307.60765625 146.57478516 -307.35886719 146.01919922 -307.10253906 145.44677734 C-305.63548546 142.71962127 -303.8675853 140.47373387 -301.91894531 138.06787109 C-301.22929687 137.21064453 -300.53964844 136.35341797 -299.82910156 135.47021484 C-296.61693905 131.66014486 -296.61693905 131.66014486 -294.85644531 130.13037109 C-294.19644531 130.13037109 -293.53644531 130.13037109 -292.85644531 130.13037109 C-292.59863281 129.55802734 -292.34082031 128.98568359 -292.07519531 128.39599609 C-290.74278589 125.91908114 -289.20588413 123.99625449 -287.35644531 121.88037109 C-286.74800781 121.17396484 -286.13957031 120.46755859 -285.51269531 119.73974609 C-283.85644531 118.13037109 -283.85644531 118.13037109 -281.85644531 118.13037109 C-281.36144531 116.64537109 -281.36144531 116.64537109 -280.85644531 115.13037109 C-280.19644531 115.13037109 -279.53644531 115.13037109 -278.85644531 115.13037109 C-278.85644531 114.47037109 -278.85644531 113.81037109 -278.85644531 113.13037109 C-273.38025484 108.13037109 -273.38025484 108.13037109 -270.85644531 108.13037109 C-270.52644531 107.14037109 -270.19644531 106.15037109 -269.85644531 105.13037109 C-269.19644531 105.13037109 -268.53644531 105.13037109 -267.85644531 105.13037109 C-267.85644531 104.47037109 -267.85644531 103.81037109 -267.85644531 103.13037109 C-267.19644531 103.13037109 -266.53644531 103.13037109 -265.85644531 103.13037109 C-265.85644531 102.47037109 -265.85644531 101.81037109 -265.85644531 101.13037109 C-262.39490685 98.13037109 -262.39490685 98.13037109 -259.85644531 98.13037109 C-259.85644531 97.47037109 -259.85644531 96.81037109 -259.85644531 96.13037109 C-259.19644531 96.13037109 -258.53644531 96.13037109 -257.85644531 96.13037109 C-257.85644531 95.47037109 -257.85644531 94.81037109 -257.85644531 94.13037109 C-256.53644531 93.80037109 -255.21644531 93.47037109 -253.85644531 93.13037109 C-253.85644531 92.47037109 -253.85644531 91.81037109 -253.85644531 91.13037109 C-250.39490685 88.13037109 -250.39490685 88.13037109 -247.85644531 88.13037109 C-247.85644531 87.47037109 -247.85644531 86.81037109 -247.85644531 86.13037109 C-246.86644531 86.13037109 -245.87644531 86.13037109 -244.85644531 86.13037109 C-244.65019531 85.55287109 -244.44394531 84.97537109 -244.23144531 84.38037109 C-241.48814138 79.89132829 -236.681261 77.83324722 -231.85644531 76.13037109 C-231.85644531 75.47037109 -231.85644531 74.81037109 -231.85644531 74.13037109 C-227.47182993 71.13037109 -227.47182993 71.13037109 -224.85644531 71.13037109 C-224.85644531 70.47037109 -224.85644531 69.81037109 -224.85644531 69.13037109 C-223.86644531 69.13037109 -222.87644531 69.13037109 -221.85644531 69.13037109 C-221.85644531 68.47037109 -221.85644531 67.81037109 -221.85644531 67.13037109 C-219.38144531 66.63537109 -219.38144531 66.63537109 -216.85644531 66.13037109 C-216.85644531 65.47037109 -216.85644531 64.81037109 -216.85644531 64.13037109 C-215.86644531 64.13037109 -214.87644531 64.13037109 -213.85644531 64.13037109 C-213.85644531 63.47037109 -213.85644531 62.81037109 -213.85644531 62.13037109 C-210.95095649 60.08867625 -209.45502486 59.13037109 -205.85644531 59.13037109 C-205.85644531 58.47037109 -205.85644531 57.81037109 -205.85644531 57.13037109 C-202.81955576 55.45778613 -199.77623008 53.79738605 -196.72802734 52.14550781 C-195.38960196 51.41955259 -194.05214452 50.69181164 -192.71533203 49.96289062 C-190.43250395 48.72052518 -188.14495547 47.48723339 -185.85644531 46.25537109 C-185.11467041 45.8500415 -184.37289551 45.44471191 -183.60864258 45.02709961 C-182.90666748 44.65125732 -182.20469238 44.27541504 -181.48144531 43.88818359 C-180.85496094 43.54932129 -180.22847656 43.21045898 -179.58300781 42.86132812 C-177.85644531 42.13037109 -177.85644531 42.13037109 -174.85644531 42.13037109 C-174.85644531 41.47037109 -174.85644531 40.81037109 -174.85644531 40.13037109 C-168.35644531 37.13037109 -168.35644531 37.13037109 -163.85644531 37.13037109 C-163.85644531 36.47037109 -163.85644531 35.81037109 -163.85644531 35.13037109 C-157.35644531 32.13037109 -157.35644531 32.13037109 -152.85644531 32.13037109 C-152.85644531 31.47037109 -152.85644531 30.81037109 -152.85644531 30.13037109 C-144.42787388 26.70179967 -144.42787388 26.70179967 -139.85644531 27.13037109 C-139.85644531 26.47037109 -139.85644531 25.81037109 -139.85644531 25.13037109 C-138.92960937 24.85322266 -138.00277344 24.57607422 -137.04785156 24.29052734 C-135.8503125 23.92830078 -134.65277344 23.56607422 -133.41894531 23.19287109 C-132.22398437 22.83322266 -131.02902344 22.47357422 -129.79785156 22.10302734 C-126.99776986 21.42147967 -126.99776986 21.42147967 -125.85644531 20.13037109 C-123.85686168 20.08956326 -121.85599277 20.08782753 -119.85644531 20.13037109 C-119.85644531 19.47037109 -119.85644531 18.81037109 -119.85644531 18.13037109 C-119.14359375 17.93701172 -118.43074219 17.74365234 -117.69628906 17.54443359 C-116.25962891 17.15384766 -116.25962891 17.15384766 -114.79394531 16.75537109 C-113.78976562 16.48337891 -112.78558594 16.21138672 -111.75097656 15.93115234 C-109.48054828 15.30303116 -107.23207935 14.63652549 -104.98144531 13.94287109 C-102.10657324 13.19540436 -99.8056471 12.95163159 -96.85644531 13.13037109 C-96.85644531 12.47037109 -96.85644531 11.81037109 -96.85644531 11.13037109 C-91.47153891 10.21379128 -86.31414342 10.0189895 -80.85644531 10.13037109 C-80.85644531 9.47037109 -80.85644531 8.81037109 -80.85644531 8.13037109 C-71.55668942 5.16236389 -62.57407086 4.98238695 -52.85644531 5.13037109 C-52.85644531 4.47037109 -52.85644531 3.81037109 -52.85644531 3.13037109 C-50.71194479 2.80885209 -48.56570917 2.49891339 -46.41894531 2.19287109 C-44.62650391 1.93183594 -44.62650391 1.93183594 -42.79785156 1.66552734 C-28.58934777 -0.02989403 -14.28725705 -0.02897572 0 0 Z " fill="#FFFFFF" transform="translate(2611.8564453125,299.86962890625)"/>
<path d="M0 0 C1.03390869 -0.00100708 2.06781738 -0.00201416 3.13305664 -0.00305176 C28.9657796 0.01388185 54.27576418 2.04150615 79.625 7.25 C80.52299316 7.43288574 81.42098633 7.61577148 82.34619141 7.80419922 C111.44298475 13.83335808 139.5601791 23.0232633 166.625 35.25 C167.54152344 35.66233887 168.45804688 36.07467773 169.40234375 36.49951172 C211.85615787 55.76123702 250.99472552 82.90169992 283.625 116.25 C286.2063959 118.84436773 288.80122177 121.42179161 291.421875 123.9765625 C297.12711802 129.55706929 302.46000577 135.23500727 307.4296875 141.49609375 C309.68424513 144.32431996 312.02376109 147.06434777 314.375 149.8125 C329.91478708 168.46024449 342.76687691 189.12502374 354.625 210.25 C355.20048584 211.26102783 355.20048584 211.26102783 355.78759766 212.29248047 C380.15572317 255.29948098 393.53690268 304.27142429 400.23950195 352.95117188 C400.58931441 355.40123657 400.58931441 355.40123657 401.625 358.25 C401.96513591 361.5590589 402.04870753 364.88658769 402.17963493 368.20981425 C402.24283726 369.79340477 402.24283726 369.79340477 402.30731641 371.40898703 C402.82886746 386.04236431 402.76507141 400.6826165 402.75240866 415.32303892 C402.7496917 419.77747347 402.75286999 424.23190489 402.75524551 428.68633911 C402.7586202 436.50259235 402.75832044 444.31883861 402.75556196 452.135092 C402.75145114 463.83636587 402.75315259 475.53763413 402.7559446 487.23890814 C402.76053534 507.18633051 402.76039912 527.13375034 402.75766373 547.08117294 C402.7549097 567.28774632 402.75433436 587.49431802 402.75640106 607.70089149 C402.75653023 608.97852302 402.75665941 610.25615454 402.75679249 611.57250217 C402.75732578 616.77634723 402.75787449 621.98019229 402.75844277 627.18403735 C402.76004325 641.85035057 402.76130275 656.51666381 402.76232314 671.18297708 C402.76237004 671.85491778 402.76241694 672.52685847 402.76246527 673.21916101 C402.76474213 706.31387592 402.76320871 739.40859054 402.76129532 772.50330544 C402.76121168 773.95241263 402.76112805 775.40151983 402.76104442 776.85062703 C402.76100297 777.56881396 402.76096151 778.28700088 402.7609188 779.02695105 C402.76037225 788.49848006 402.75983564 797.97000908 402.7593255 807.4415381 C402.75928634 808.16557591 402.75924718 808.88961373 402.75920683 809.63559208 C402.75740446 843.20962857 402.75783448 876.7836649 402.75875596 910.35770141 C402.75885576 914.02196616 402.75895126 917.68623091 402.75904724 921.35049566 C402.75933783 932.39544771 402.75963478 943.44039976 402.75994483 954.48535181 C402.76088931 988.16505543 402.76148959 1021.84475906 402.76179314 1055.5244627 C402.76180001 1056.27432961 402.76180687 1057.02419652 402.76181395 1057.79678666 C402.76225261 1106.35049819 402.76115236 1154.90420955 402.75894356 1203.45792103 C402.75890844 1204.23288338 402.75887332 1205.00784573 402.75883714 1205.8062918 C402.75766084 1231.76258296 402.75640475 1257.71887411 402.75514051 1283.67516527 C402.75132042 1362.15928315 402.74922622 1440.64340043 402.75525584 1580.80195539 C402.75651908 1606.74805302 402.75776762 1632.69415066 402.75894356 1658.6402483 C402.7589788 1659.41488819 402.75901405 1660.18952809 402.75905036 1660.98764192 C402.7612563 1709.5134806 402.7622376 1758.03931916 402.76179314 1806.56515789 C402.76178638 1807.31479413 402.76177962 1808.06443037 402.76177266 1808.83678285 C402.76146592 1842.49976192 402.76082756 1876.16274098 402.75988263 1909.82572004 C402.7595731 1920.86664588 402.75927876 1931.90757172 402.75898959 1942.94849757 C402.75889359 1946.61093977 402.75879624 1950.27338197 402.75869573 1953.93582418 C402.75777715 1987.50904466 402.75750934 2021.08226494 402.7593255 2054.65548539 C402.75936448 2055.37894554 402.75940345 2056.10240568 402.7594436 2056.84778886 C402.75995536 2066.31227247 402.76049801 2075.77675609 402.76104442 2085.2412397 C402.76108584 2085.95873299 402.76112725 2086.67622629 402.76116992 2087.41546181 C402.76125348 2088.86299706 402.76133711 2090.31053231 402.76142082 2091.75806756 C402.76332692 2124.80706299 402.76462947 2157.85605806 402.76232314 2190.9050535 C402.76225311 2191.91184279 402.76225311 2191.91184279 402.76218166 2192.93897126 C402.76110534 2208.23864805 402.7596848 2223.53832479 402.75801457 2238.83800153 C402.75746223 2244.02696946 402.75692552 2249.21593739 402.75640106 2254.40490532 C402.75627086 2255.67835375 402.75614065 2256.95180218 402.7560065 2258.26383996 C402.75403551 2278.41313758 402.75540586 2298.56243352 402.75817007 2318.71173099 C402.76081791 2338.53306765 402.75988211 2358.35440149 402.75515598 2378.17573779 C402.75249226 2389.78975921 402.75253447 2401.40377287 402.75663758 2413.01779391 C402.75909133 2420.74279123 402.75788383 2428.46778252 402.75377072 2436.19277911 C402.75154327 2440.5642025 402.75079649 2444.93561049 402.75458724 2449.30703316 C402.7702519 2468.64821773 402.53501571 2487.92580862 401.625 2507.25 C400.965 2507.25 400.305 2507.25 399.625 2507.25 C399.686875 2508.8278125 399.686875 2508.8278125 399.75 2510.4375 C399.67115921 2555.45559385 379.12439419 2606.46343905 358.59033203 2645.40917969 C357.56169833 2647.37071183 356.55952322 2649.34451217 355.55859375 2651.3203125 C340.10054933 2681.54012456 319.45644951 2709.29880042 296.40527344 2734.14160156 C294.00763974 2736.72646913 291.67946061 2739.34185051 289.4375 2742.0625 C286.82982857 2745.15307355 283.89554394 2747.69687734 280.81640625 2750.30859375 C278.36559942 2752.47980764 276.09842971 2754.78110694 273.8125 2757.125 C269.6574162 2761.31791461 265.33111616 2765.10172194 260.71875 2768.78125 C258.44760265 2770.59357971 256.20194181 2772.42334561 253.96875 2774.28125 C197.4942713 2821.12666759 127.19867841 2850.63582365 54.625 2860.25 C53.55604492 2860.39953125 52.48708984 2860.5490625 51.38574219 2860.703125 C-46.38374667 2874.00275644 -148.74776162 2847.96459618 -236.72949219 2786.26708984 C-239.29943492 2784.28815768 -241.83887448 2782.2719994 -244.375 2780.25 C-245.20902344 2779.59773438 -246.04304687 2778.94546875 -246.90234375 2778.2734375 C-253.69792645 2772.92067706 -260.24433152 2767.28223749 -266.78320312 2761.62158203 C-268.19649046 2760.40381389 -269.62090958 2759.19899148 -271.046875 2757.99609375 C-271.77390625 2757.37863281 -272.5009375 2756.76117187 -273.25 2756.125 C-273.86617187 2755.60679687 -274.48234375 2755.08859375 -275.1171875 2754.5546875 C-276.375 2753.25 -276.375 2753.25 -276.375 2751.25 C-277.16970703 2750.94449219 -277.16970703 2750.94449219 -277.98046875 2750.6328125 C-281.41514584 2748.6493285 -283.92809626 2745.9487885 -286.6875 2743.125 C-287.27072021 2742.53388428 -287.85394043 2741.94276855 -288.45483398 2741.33374023 C-292.59963046 2737.10675396 -296.5525477 2732.77039476 -300.375 2728.25 C-301.64150391 2726.81720703 -301.64150391 2726.81720703 -302.93359375 2725.35546875 C-353.55933428 2667.85165193 -388.27831669 2592.77041329 -397.4387207 2516.64282227 C-397.53628662 2515.85319092 -397.63385254 2515.06355957 -397.734375 2514.25 C-397.81139648 2513.569375 -397.88841797 2512.88875 -397.96777344 2512.1875 C-398.27807928 2510.20751229 -398.27807928 2510.20751229 -399.38483822 2508.51254289 C-400.6636946 2505.59032607 -400.62491973 2503.30109994 -400.624815 2500.11181371 C-400.6296264 2498.84061213 -400.63443779 2497.56941055 -400.63939499 2496.25968771 C-400.63462027 2494.84227718 -400.62966438 2493.42486725 -400.62454766 2492.00745791 C-400.6264038 2490.49857851 -400.62913721 2488.98969997 -400.63267009 2487.48082356 C-400.63987724 2483.30282953 -400.63451879 2479.12492893 -400.62724611 2474.94693843 C-400.62152226 2470.39663517 -400.62738315 2465.84634474 -400.63178983 2461.29604205 C-400.63793555 2453.27972508 -400.63657918 2445.26343585 -400.63044515 2437.24711927 C-400.62130051 2425.24633349 -400.62364723 2413.24556899 -400.62829436 2401.24478161 C-400.63587458 2380.79555981 -400.63392682 2360.34634868 -400.6268692 2339.89712715 C-400.61974933 2319.1629253 -400.61696139 2298.42872967 -400.61950874 2277.69452667 C-400.61966661 2276.38679217 -400.61982447 2275.07905766 -400.61998712 2273.73169483 C-400.62064527 2268.40582549 -400.62133202 2263.07995615 -400.62206676 2257.75408682 C-400.62413437 2242.73954056 -400.62552268 2227.72499428 -400.6264559 2212.71044791 C-400.62649906 2212.02233363 -400.62654221 2211.33421936 -400.62658667 2210.62525314 C-400.62865267 2176.68209534 -400.62314507 2142.73893923 -400.61702538 2108.79578209 C-400.6148741 2096.84286873 -400.61274239 2084.88995538 -400.61071944 2072.937042 C-400.61059351 2072.19402117 -400.61046759 2071.45100034 -400.61033784 2070.68546373 C-400.60454165 2036.27731927 -400.60353593 2001.86917519 -400.60368393 1967.4610303 C-400.60369301 1965.211144 -400.60369942 1962.96125769 -400.60370489 1960.71137139 C-400.6037381 1947.14455407 -400.60380688 1933.57773676 -400.60392199 1920.01091944 C-400.6042025 1886.2818682 -400.6038129 1852.55281698 -400.60293293 1818.82376575 C-400.60291316 1818.05586282 -400.6028934 1817.28795988 -400.60287304 1816.49678716 C-400.60158402 1766.75263978 -400.59743474 1717.00849311 -400.59107494 1667.26434612 C-400.59097354 1666.47001916 -400.59087213 1665.67569219 -400.59076765 1664.85729471 C-400.5874711 1639.05913921 -400.5839847 1613.26098373 -400.58048091 1587.46282826 C-400.57706674 1562.32283441 -400.5737226 1537.18284056 -400.57061768 1512.04284668 C-400.57051827 1511.23825472 -400.57041886 1510.43366277 -400.57031644 1509.60468923 C-400.56090469 1433.21243925 -400.55977226 1356.82018974 -400.5602866 1280.42793926 C-400.56031348 1276.38444481 -400.56033837 1272.34095036 -400.56036337 1268.29745591 C-400.56039348 1263.45025724 -400.56042373 1258.60305857 -400.56045464 1253.7558599 C-400.56056241 1236.85197883 -400.56066163 1219.94809777 -400.56074377 1203.04421671 C-400.56075573 1200.6381941 -400.56076848 1198.23217149 -400.5607814 1195.82614889 C-400.56103941 1146.91297039 -400.56001789 1097.99979209 -400.55744648 1049.08661366 C-400.55740618 1048.31894315 -400.55736589 1047.55127264 -400.55732437 1046.76033938 C-400.55546955 1011.53631273 -400.55320036 976.31228611 -400.55059667 941.08825951 C-400.55042923 938.82244396 -400.55026221 936.5566284 -400.55009531 934.29081285 C-400.54976207 929.76796378 -400.54942799 925.24511471 -400.54909355 920.72226563 C-400.54903847 919.9771528 -400.54898339 919.23203997 -400.54892665 918.46434797 C-400.54837153 910.95847997 -400.54781367 903.45261197 -400.54724177 895.94674398 C-400.54467745 862.28647415 -400.54263971 828.62620444 -400.54225707 794.96593451 C-400.54223939 793.46645949 -400.54222168 791.96698446 -400.54220395 790.46750943 C-400.54213421 784.48436887 -400.5420693 778.50122831 -400.54200647 772.51808774 C-400.54159532 733.41256545 -400.54105615 694.30704348 -400.53551352 655.20152152 C-400.53541617 654.51417002 -400.53531882 653.82681852 -400.53521852 653.1186382 C-400.53308171 638.12499102 -400.5306389 623.13134391 -400.52789382 608.13769684 C-400.52680242 602.15835674 -400.52574417 596.17901663 -400.52469444 590.19967651 C-400.52446391 588.89625514 -400.52423338 587.59283377 -400.52399586 586.24991478 C-400.52042454 565.56813912 -400.5201955 544.88636483 -400.52133027 524.20458895 C-400.52237159 503.8935881 -400.51985236 483.58259031 -400.51348015 463.2715904 C-400.5098442 451.34739235 -400.50895952 439.4232016 -400.51205815 427.49900336 C-400.51384059 419.59388329 -400.51203881 411.68876945 -400.50724037 403.78365065 C-400.50461664 399.29336203 -400.50358436 394.8030884 -400.50693924 390.31279993 C-400.5099512 386.24228532 -400.50840207 382.17179943 -400.50314881 378.10128733 C-400.50206817 376.63812015 -400.50267043 375.17495053 -400.50513968 373.71178503 C-400.50824408 371.72906447 -400.50459272 369.74633679 -400.5006165 367.76361779 C-400.50049656 366.66608082 -400.50037662 365.56854384 -400.50025304 364.43774816 C-400.12960589 355.00460589 -400.12960589 355.00460589 -398.375 353.25 C-398.07648287 351.64568309 -397.8333583 350.03100755 -397.61328125 348.4140625 C-397.46737549 347.3837793 -397.32146973 346.35349609 -397.17114258 345.29199219 C-397.01154053 344.16438477 -396.85193848 343.03677734 -396.6875 341.875 C-390.83132148 302.63184159 -379.29407149 265.11474682 -362.375 229.25 C-362.05595703 228.57195312 -361.73691406 227.89390625 -361.40820312 227.1953125 C-344.96466298 192.57001443 -323.30633373 160.94949573 -297.5390625 132.6328125 C-296.10573335 131.0545981 -294.6836322 129.46610715 -293.2734375 127.8671875 C-284.5912675 118.04844252 -275.38603693 108.71534721 -265.375 100.25 C-264.41980469 99.40566406 -263.46460938 98.56132812 -262.48046875 97.69140625 C-190.33348125 34.16704808 -95.74640138 0.06493612 0 0 Z " fill="#FFFFFF" transform="translate(848.375,301.75)"/>
</svg>
