<?xml version="1.0" encoding="UTF-8"?>
<svg version="1.1" xmlns="http://www.w3.org/2000/svg" width="1216" height="1216">
<path d="M0 0 C1.01336426 0.53399414 2.02672852 1.06798828 3.07080078 1.61816406 C17.65837437 9.31919688 32.09740514 17.24098997 46.37988281 25.49658203 C50.14840416 27.658952 53.94027383 29.77905154 57.73022461 31.90356445 C66.53079809 36.84040065 75.24930104 41.86828349 83.8034668 47.22290039 C88.47359472 50.13250734 93.24460042 52.79352075 98.08544922 55.40844727 C103.16960427 58.18475877 108.17479602 61.09726352 113.1875 64 C114.31534912 64.65154053 115.44319824 65.30308105 116.60522461 65.97436523 C123.12217433 69.74119332 129.62435449 73.53279328 136.11889648 77.33813477 C145.23479632 82.678236 154.39299256 87.92547215 163.625 93.0625 C172.31640887 97.89932398 180.91787963 102.86072177 189.46118164 107.95410156 C198.24621991 113.17939137 207.12461902 118.23596077 216.02075195 123.26904297 C221.62843106 126.45304688 227.17544715 129.70069299 232.65234375 133.10546875 C237.43548973 136.0740076 242.27939805 138.8427228 247.23925781 141.50292969 C252.34443834 144.27132083 257.35185115 147.21124722 262.375 150.125 C264.67557289 151.45609139 266.97630821 152.78689659 269.27734375 154.1171875 C270.41155762 154.77299805 271.54577148 155.42880859 272.71435547 156.10449219 C277.44685045 158.8346966 282.19113832 161.54399638 286.9375 164.25 C294.92195165 168.80469662 302.88384046 173.39691197 310.8359375 178.0078125 C316.99019343 181.57567357 323.15112084 185.13195816 329.3125 188.6875 C330.36139404 189.29311768 331.41028809 189.89873535 332.4909668 190.52270508 C337.37497263 193.34067982 342.26258869 196.15174878 347.16213989 198.94262695 C354.18776332 202.9457812 361.16959415 207.02011309 368.13562012 211.12594604 C378.73083184 217.36797639 389.37319047 223.51275142 400.0949707 229.53564453 C406.32999892 233.04219215 412.5126044 236.62594371 418.66674805 240.2722168 C424.10106182 243.48659952 429.57537755 246.62674153 435.0625 249.75 C442.63063094 254.05956258 450.16916188 258.41665282 457.6875 262.8125 C473.13442365 271.84219998 488.62051659 280.80448996 504.17016602 289.65625 C515.00223269 295.82315765 525.74334469 302.1347567 536.46191406 308.49658203 C539.49163046 310.29121397 542.52802179 312.07424197 545.56591797 313.85498047 C549.04776232 315.89685884 552.52437531 317.94755704 556 320 C557.20269531 320.70938721 557.20269531 320.70938721 558.4296875 321.43310547 C568.85581991 327.59454872 579.14218379 333.88318116 589.13623047 340.72607422 C591.12814259 342.08758816 593.128201 343.43660172 595.12890625 344.78515625 C602.68080159 349.89653221 610.01304371 355.12752753 617 361 C618.09892055 361.90108775 619.19788172 362.80212595 620.296875 363.703125 C631.71522501 373.16620261 642.0293086 383.41469779 650 396 C651.07701172 397.64355469 651.07701172 397.64355469 652.17578125 399.3203125 C664.63949641 418.79470271 672.06943791 442.32561819 672.203125 465.49609375 C672.20882507 466.28790543 672.21452515 467.0797171 672.22039795 467.89552307 C672.22978871 469.56534517 672.23635815 471.2351853 672.24023438 472.9050293 C672.24985511 475.39992727 672.28089961 477.89396943 672.3125 480.38867188 C672.42284915 497.05768989 669.54341681 512.27382612 664 528 C663.35417969 529.86785156 663.35417969 529.86785156 662.6953125 531.7734375 C657.56639918 545.59542425 649.67726632 557.90172245 640 569 C638.80503906 570.39412109 638.80503906 570.39412109 637.5859375 571.81640625 C619.5924631 592.1718559 596.88717291 606.74686253 574 621 C572.14186739 622.16396721 570.28379399 623.32802895 568.42578125 624.4921875 C560.06253633 629.71613233 551.67027186 634.83586789 543.07421875 639.66796875 C537.98143693 642.55551885 532.96950108 645.58019953 527.94180298 648.57904053 C517.41220661 654.8570502 506.80490021 660.95980692 496.08496094 666.90942383 C488.20178019 671.29558747 480.42529722 675.8423873 472.67456055 680.45776367 C467.48712469 683.54299008 462.27492072 686.56700883 457 689.5 C450.747825 692.97708962 444.58632215 696.5934918 438.4375 700.25 C429.77723544 705.39785748 421.04256798 710.39692348 412.26000977 715.33276367 C405.91427358 718.90382847 399.61806402 722.54691425 393.35473633 726.26025391 C387.72935375 729.58908162 382.05704972 732.83152058 376.375 736.0625 C369.05509712 740.22533036 361.80119915 744.47408685 354.6171875 748.8671875 C351.72226111 750.60682421 348.77101742 752.22459997 345.80078125 753.83203125 C339.89519291 757.03240121 334.10180295 760.40741564 328.3125 763.8125 C321.42635507 767.84780103 314.53351609 771.86291528 307.5625 775.75 C302.4171303 778.62080153 297.31923486 781.55932616 292.25 784.5625 C284.5474329 789.12521966 276.77827793 793.56820093 269 798 C260.66862546 802.74743273 252.35509087 807.51937011 244.10644531 812.40966797 C238.52379905 815.7122937 232.88956689 818.92075726 227.25 822.125 C220.34469889 826.04941238 213.54483323 830.08719048 206.8046875 834.2890625 C203.37679277 836.38017377 199.87040923 838.2835728 196.33203125 840.1796875 C188.96942273 844.20193319 181.71887877 848.42787375 174.44140625 852.6015625 C172.42123074 853.75871903 170.39923725 854.91247145 168.375 856.0625 C160.10253895 860.76644844 151.88453873 865.56111393 143.66894531 870.36352539 C135.94235678 874.87669164 128.19370929 879.35047059 120.4375 883.8125 C112.38411957 888.44587071 104.36626449 893.12252399 96.44140625 897.97265625 C93.60267761 899.64496063 90.74723497 901.2389478 87.8515625 902.80859375 C81.77744402 906.10202645 75.7915512 909.53762611 69.8125 913 C68.69480225 913.64573975 67.57710449 914.29147949 66.42553711 914.95678711 C60.7285045 918.24999068 55.03993625 921.55735115 49.359375 924.87890625 C48.30000732 925.49830078 47.24063965 926.11769531 46.14916992 926.75585938 C44.15876748 927.92085013 42.16927654 929.08740027 40.1809082 930.25585938 C8.76369701 948.65938568 -24.56021882 966.93828368 -60 976 C-61.22074219 976.33773437 -62.44148437 976.67546875 -63.69921875 977.0234375 C-99.7957742 985.53051759 -138.26122093 975.79779534 -169.1875 956.6875 C-171.12635469 955.46047129 -173.06398897 954.23151054 -175 953 C-175.94488281 952.47019531 -176.88976562 951.94039062 -177.86328125 951.39453125 C-178.56839844 950.93433594 -179.27351563 950.47414063 -180 950 C-180 949.34 -180 948.68 -180 948 C-180.57234375 947.731875 -181.1446875 947.46375 -181.734375 947.1875 C-184.07884634 945.95867364 -186.12404938 944.57477824 -188.25 943 C-188.95640625 942.484375 -189.6628125 941.96875 -190.390625 941.4375 C-190.92171875 940.963125 -191.4528125 940.48875 -192 940 C-192 939.34 -192 938.68 -192 938 C-192.99 937.67 -193.98 937.34 -195 937 C-195 936.34 -195 935.68 -195 935 C-195.99 934.67 -196.98 934.34 -198 934 C-231.21823951 902.58897041 -238.62858002 854.39923445 -240 811 C-240.17259496 801.80356304 -240.13538354 792.6048723 -240.12698364 783.40722656 C-240.12758365 780.64075266 -240.12968626 777.87428033 -240.13171089 775.10780716 C-240.13530011 769.12162747 -240.13522695 763.13545682 -240.13266373 757.14927673 C-240.12886242 748.24722077 -240.13082471 739.34517235 -240.13387203 730.44311643 C-240.13912413 714.53889701 -240.13868684 698.63468163 -240.13579312 682.73046184 C-240.13327328 668.81204737 -240.13262286 654.89363438 -240.13381577 640.97521973 C-240.13393034 639.58803635 -240.13393034 639.58803635 -240.13404724 638.17282906 C-240.1343586 634.41840291 -240.134677 630.66397677 -240.135007 626.90955062 C-240.13806304 591.72113311 -240.13529724 556.53271816 -240.1299101 521.34430104 C-240.12516483 490.11104308 -240.12558947 458.87778918 -240.13037109 427.64453125 C-240.13573073 392.5186952 -240.13784627 357.3928614 -240.13475883 322.26702499 C-240.13443813 318.51961009 -240.13412529 314.77219518 -240.13381577 311.02478027 C-240.13373669 310.102134 -240.13365761 309.17948772 -240.13357614 308.22888246 C-240.13244073 294.32238749 -240.13376508 280.41589416 -240.13629532 266.50939941 C-240.13915928 250.69026964 -240.13842973 234.87114451 -240.13301457 219.0520153 C-240.13008688 210.20876195 -240.12987416 201.36551866 -240.13366075 192.52226557 C-240.13591448 186.60402282 -240.1344872 180.68578809 -240.13015598 174.76754652 C-240.12779339 171.40322503 -240.12748944 168.03893963 -240.13056196 164.67461634 C-240.1689417 119.13846804 -238.65030701 68.2927311 -209 31 C-207.94039062 29.63681641 -207.94039062 29.63681641 -206.859375 28.24609375 C-200.55211214 20.22185378 -200.55211214 20.22185378 -197 17 C-196.34 17 -195.68 17 -195 17 C-194.67 16.01 -194.34 15.02 -194 14 C-137.86581227 -39.30022874 -64.33141264 -34.08269779 0 0 Z " fill="#FEFEFE" transform="translate(392,132)"/>
<path d="M0 0 C0.66 0 1.32 0 2 0 C2 2 2 2 0.09765625 4.015625 C-0.3597998 4.45455078 -0.81725586 4.89347656 -1.28857422 5.34570312 C-3.4049528 7.39143512 -5.45082276 9.50014096 -7.50390625 11.609375 C-9.18991149 13.32310625 -10.87611467 15.03664278 -12.5625 16.75 C-13.41263672 17.62527344 -14.26277344 18.50054687 -15.13867188 19.40234375 C-15.96044922 20.23378906 -16.78222656 21.06523437 -17.62890625 21.921875 C-18.37213135 22.68081055 -19.11535645 23.43974609 -19.88110352 24.22167969 C-22.00820521 26.00688636 -23.28640635 26.61481012 -26 27 C-22.84120621 21.94592993 -19.28873219 17.16197164 -15 13 C-14.34 13 -13.68 13 -13 13 C-12.67 12.01 -12.34 11.02 -12 10 C-10.22120815 8.39570988 -8.37848062 6.86132358 -6.5 5.375 C-5.4996875 4.57835937 -4.499375 3.78171875 -3.46875 2.9609375 C-2.6540625 2.31382812 -1.839375 1.66671875 -1 1 C-0.67 0.67 -0.34 0.34 0 0 Z " fill="#CECECE" transform="translate(210,136)"/>
<path d="M0 0 C-7.48618174 4.54626421 -14.96426273 9.05539379 -22.69140625 13.18359375 C-25.57544763 14.76692225 -28.42822276 16.39022588 -31.27734375 18.03515625 C-32.22657715 18.58260498 -33.17581055 19.13005371 -34.15380859 19.6940918 C-36.07673555 20.80533505 -37.997675 21.92002543 -39.91650391 23.03833008 C-40.80128418 23.54904053 -41.68606445 24.05975098 -42.59765625 24.5859375 C-43.79660522 25.28275635 -43.79660522 25.28275635 -45.01977539 25.99365234 C-47 27 -47 27 -49 27 C-48.505 25.515 -48.505 25.515 -48 24 C-46.68 24 -45.36 24 -44 24 C-44 23.34 -44 22.68 -44 22 C-43.01 22 -42.02 22 -41 22 C-41 21.34 -41 20.68 -41 20 C-39.68 20 -38.36 20 -37 20 C-37 19.34 -37 18.68 -37 18 C-36.01 18 -35.02 18 -34 18 C-34 17.34 -34 16.68 -34 16 C-31.35261084 14.5393715 -30.10551666 14 -27 14 C-27 13.34 -27 12.68 -27 12 C-26.01 12 -25.02 12 -24 12 C-24 11.34 -24 10.68 -24 10 C-20.91190305 8.23537317 -19.76687864 8 -16 8 C-16 7.34 -16 6.68 -16 6 C-13 4 -13 4 -9 4 C-9 3.34 -9 2.68 -9 2 C-8.01 2 -7.02 2 -6 2 C-6 1.34 -6 0.68 -6 0 C-3 -1 -3 -1 0 0 Z " fill="#C7C7C7" transform="translate(611,959)"/>
<path d="M0 0 C1.32 0.33 2.64 0.66 4 1 C0.01606696 3.35159172 -3.97022221 5.69899804 -7.9609375 8.0390625 C-11.4114513 10.06262101 -14.85232303 12.10158383 -18.2890625 14.1484375 C-20.00503968 15.16174399 -21.72118155 16.17477165 -23.4375 17.1875 C-24.25968018 17.68096924 -25.08186035 18.17443848 -25.92895508 18.68286133 C-26.69361084 19.13169678 -27.4582666 19.58053223 -28.24609375 20.04296875 C-28.92341553 20.44539795 -29.6007373 20.84782715 -30.29858398 21.26245117 C-30.86005127 21.50584229 -31.42151855 21.7492334 -32 22 C-32.66 21.67 -33.32 21.34 -34 21 C-32.6875 19.5 -32.6875 19.5 -31 18 C-30.01 18 -29.02 18 -28 18 C-28 17.34 -28 16.68 -28 16 C-25.35261084 14.5393715 -24.10551666 14 -21 14 C-21 13.34 -21 12.68 -21 12 C-19.68 12 -18.36 12 -17 12 C-17 11.34 -17 10.68 -17 10 C-16.01 10 -15.02 10 -14 10 C-14 9.34 -14 8.68 -14 8 C-12.68 8 -11.36 8 -10 8 C-10 7.34 -10 6.68 -10 6 C-9.01 6 -8.02 6 -7 6 C-7 5.34 -7 4.68 -7 4 C-5.68 4 -4.36 4 -3 4 C-3 3.34 -3 2.68 -3 2 C-2.01 2 -1.02 2 0 2 C0 1.34 0 0.68 0 0 Z " fill="#ACACAC" transform="translate(688,911)"/>
<path d="M0 0 C-11.24905847 6.16425679 -27.26339181 10 -40 10 C-40 9.34 -40 8.68 -40 8 C-38.90945313 7.83564453 -38.90945313 7.83564453 -37.796875 7.66796875 C-31.34005603 6.64977807 -25.08745341 5.33838235 -18.7890625 3.5859375 C-15.78863627 2.95559586 -13.05723949 2.90079754 -10 3 C-10 2.34 -10 1.68 -10 1 C-6.61981469 -0.04005702 -3.5219721 -0.08004482 0 0 Z " fill="#B2B2B2" transform="translate(352,1101)"/>
<path d="M0 0 C1.32 0.33 2.64 0.66 4 1 C-7.33333333 7.66666667 -18.66666667 14.33333333 -30 21 C-30.33 20.01 -30.66 19.02 -31 18 C-30.01 18 -29.02 18 -28 18 C-28 17.34 -28 16.68 -28 16 C-25.35261084 14.5393715 -24.10551666 14 -21 14 C-21 13.34 -21 12.68 -21 12 C-20.01 12 -19.02 12 -18 12 C-18 11.34 -18 10.68 -18 10 C-16.68 10 -15.36 10 -14 10 C-14 9.34 -14 8.68 -14 8 C-13.01 8 -12.02 8 -11 8 C-11 7.34 -11 6.68 -11 6 C-7.91190305 4.23537317 -6.76687864 4 -3 4 C-3 3.34 -3 2.68 -3 2 C-2.01 2 -1.02 2 0 2 C0 1.34 0 0.68 0 0 Z " fill="#B8B8B8" transform="translate(643,937)"/>
<path d="M0 0 C6.85921925 1.61191652 13.46207289 3.35968328 20 6 C20 6.66 20 7.32 20 8 C21.98 8 23.96 8 26 8 C26 8.66 26 9.32 26 10 C19.65231196 9.13372728 13.8675347 7.35387445 7.9375 5 C7.27032959 4.73880371 6.60315918 4.47760742 5.91577148 4.20849609 C1.12660095 2.25320191 1.12660095 2.25320191 0 0 Z " fill="#B3B3B3" transform="translate(238,1096)"/>
<path d="M0 0 C7.72329019 1.43993546 14.7282249 4.05532446 22 7 C21.01 7.66 20.02 8.32 19 9 C15.8203125 8.171875 15.8203125 8.171875 12.125 6.75 C10.91070312 6.29109375 9.69640625 5.8321875 8.4453125 5.359375 C5.62697725 4.24737878 2.81011698 3.13259468 0 2 C0 1.34 0 0.68 0 0 Z " fill="#BBBBBB" transform="translate(337,110)"/>
<path d="M0 0 C4.19886815 1.5097054 7.86668864 3.631749 11.625 6 C12.19734375 6.35578125 12.7696875 6.7115625 13.359375 7.078125 C15.93285315 8.68206022 18.47672661 10.31781774 21 12 C20.01 12.33 19.02 12.66 18 13 C17.34 12.67 16.68 12.34 16 12 C16 11.34 16 10.68 16 10 C15.13375 9.731875 14.2675 9.46375 13.375 9.1875 C10.08208036 8.02888013 7.08872125 6.61790161 4 5 C4 4.34 4 3.68 4 3 C3.01 3 2.02 3 1 3 C0.67 2.01 0.34 1.02 0 0 Z " fill="#BDBDBD" transform="translate(760,344)"/>
<path d="M0 0 C6.9064141 3.34961084 13.57269512 6.79753142 20 11 C17 12 17 12 15.20654297 11.33496094 C14.55830566 10.97176758 13.91006836 10.60857422 13.2421875 10.234375 C12.53449219 9.83863281 11.82679688 9.44289062 11.09765625 9.03515625 C10.36417969 8.61105469 9.63070312 8.18695313 8.875 7.75 C8.13378906 7.34136719 7.39257812 6.93273437 6.62890625 6.51171875 C1.12806039 3.38418116 1.12806039 3.38418116 0 0 Z " fill="#B7B7B7" transform="translate(587,244)"/>
<path d="M0 0 C-5.61 3.3 -11.22 6.6 -17 10 C-17.33 9.01 -17.66 8.02 -18 7 C-16.35 6.67 -14.7 6.34 -13 6 C-13 5.34 -13 4.68 -13 4 C-11.35 3.67 -9.7 3.34 -8 3 C-8 2.34 -8 1.68 -8 1 C-4.59449725 -1.06762667 -4.18836538 -1.04709135 0 0 Z " fill="#BBBBBB" transform="translate(888,799)"/>
<path d="M0 0 C2.25195063 1.26747489 4.50155747 2.53882868 6.75 3.8125 C7.38421875 4.16892578 8.0184375 4.52535156 8.671875 4.89257812 C11.94804537 6.75248735 15.04985101 8.63839084 18 11 C12.25 10.125 12.25 10.125 10 9 C10 8.34 10 7.68 10 7 C9.01 7 8.02 7 7 7 C7 6.34 7 5.68 7 5 C6.401875 4.855625 5.80375 4.71125 5.1875 4.5625 C3.43849596 4.1127561 1.71322977 3.57107659 0 3 C0 2.01 0 1.02 0 0 Z " fill="#BDBDBD" transform="translate(837,388)"/>
<path d="M0 0 C2.39409047 2.39409047 2.78821084 4.07067225 3.6875 7.3125 C3.95949219 8.25738281 4.23148438 9.20226562 4.51171875 10.17578125 C5.02379901 13.13765347 4.78127347 15.1213481 4 18 C1.82971933 14.38894478 1.41193503 10.89207026 0.875 6.75 C0.70742187 5.48671875 0.53984375 4.2234375 0.3671875 2.921875 C0.24601563 1.95765625 0.12484375 0.9934375 0 0 Z " fill="#B4B4B4" transform="translate(157,988)"/>
<path d="M0 0 C1.32 0.33 2.64 0.66 4 1 C1.71125827 2.33858524 -0.58069656 3.67101014 -2.875 5 C-3.52597656 5.3815625 -4.17695312 5.763125 -4.84765625 6.15625 C-9.7734375 9 -9.7734375 9 -12 9 C-11.67 8.01 -11.34 7.02 -11 6 C-9.68 6 -8.36 6 -7 6 C-7 5.34 -7 4.68 -7 4 C-6.01 4 -5.02 4 -4 4 C-4 3.34 -4 2.68 -4 2 C-2.68 2 -1.36 2 0 2 C0 1.34 0 0.68 0 0 Z " fill="#AFAFAF" transform="translate(574,977)"/>
<path d="M0 0 C-4.95 2.97 -9.9 5.94 -15 9 C-15.33 8.01 -15.66 7.02 -16 6 C-13 4 -13 4 -9 4 C-9 3.34 -9 2.68 -9 2 C-8.01 2 -7.02 2 -6 2 C-6 1.34 -6 0.68 -6 0 C-3 -1 -3 -1 0 0 Z " fill="#A0A0A0" transform="translate(611,959)"/>
<path d="M0 0 C1.32 0.33 2.64 0.66 4 1 C-0.95 3.97 -5.9 6.94 -11 10 C-11.33 9.01 -11.66 8.02 -12 7 C-10.35 6.67 -8.7 6.34 -7 6 C-7 5.34 -7 4.68 -7 4 C-4.69 3.34 -2.38 2.68 0 2 C0 1.34 0 0.68 0 0 Z " fill="#BEBEBE" transform="translate(920,777)"/>
<path d="M0 0 C-1.95245185 1.19714555 -3.91214997 2.38248074 -5.875 3.5625 C-6.96554687 4.22378906 -8.05609375 4.88507812 -9.1796875 5.56640625 C-10.57574219 6.27603516 -10.57574219 6.27603516 -12 7 C-12.66 6.67 -13.32 6.34 -14 6 C-12.6875 4.5 -12.6875 4.5 -11 3 C-10.01 3 -9.02 3 -8 3 C-8 2.34 -8 1.68 -8 1 C-3.375 -1.125 -3.375 -1.125 0 0 Z " fill="#BCBCBC" transform="translate(855,818)"/>
<path d="M0 0 C1.32 0.33 2.64 0.66 4 1 C2.04480616 2.17192047 0.0857461 3.3373929 -1.875 4.5 C-2.96554687 5.1496875 -4.05609375 5.799375 -5.1796875 6.46875 C-8 8 -8 8 -10 8 C-9.67 7.01 -9.34 6.02 -9 5 C-7.68 5 -6.36 5 -5 5 C-5 4.34 -5 3.68 -5 3 C-3.35 2.67 -1.7 2.34 0 2 C0 1.34 0 0.68 0 0 Z " fill="#A7A7A7" transform="translate(903,787)"/>
<path d="M0 0 C5.19644079 1.59890486 10.06612142 3.74138003 15 6 C15 6.33 15 6.66 15 7 C13.35 7 11.7 7 10 7 C10 6.34 10 5.68 10 5 C8.906875 4.87625 7.81375 4.7525 6.6875 4.625 C3 4 3 4 0 2 C0 1.34 0 0.68 0 0 Z " fill="#A6A6A6" transform="translate(365,120)"/>
<path d="M0 0 C1.32 0.33 2.64 0.66 4 1 C2.04480616 2.17192047 0.0857461 3.3373929 -1.875 4.5 C-2.96554687 5.1496875 -4.05609375 5.799375 -5.1796875 6.46875 C-8 8 -8 8 -10 8 C-9.67 7.01 -9.34 6.02 -9 5 C-7.68 5 -6.36 5 -5 5 C-5 4.34 -5 3.68 -5 3 C-3.35 2.67 -1.7 2.34 0 2 C0 1.34 0 0.68 0 0 Z " fill="#A5A5A5" transform="translate(865,809)"/>
<path d="M0 0 C4.97209562 1.76429199 9.43438061 4.3939166 14 7 C11 8 11 8 8 7 C8 6.34 8 5.68 8 5 C6.8553125 4.814375 6.8553125 4.814375 5.6875 4.625 C3 4 3 4 0 2 C0 1.34 0 0.68 0 0 Z " fill="#B3B3B3" transform="translate(493,190)"/>
<path d="M0 0 C1.79398267 0.95399078 3.58511655 1.91334026 5.375 2.875 C6.37273437 3.40867188 7.37046875 3.94234375 8.3984375 4.4921875 C11 6 11 6 13 8 C10.03 7.505 10.03 7.505 7 7 C7 6.34 7 5.68 7 5 C5.824375 4.7834375 5.824375 4.7834375 4.625 4.5625 C2 4 2 4 0 3 C0 2.01 0 1.02 0 0 Z " fill="#C7C7C7" transform="translate(466,174)"/>
<path d="M0 0 C-1.78524649 1.19713017 -3.5784028 2.38247279 -5.375 3.5625 C-6.87160156 4.55443359 -6.87160156 4.55443359 -8.3984375 5.56640625 C-9.25695312 6.03949219 -10.11546875 6.51257813 -11 7 C-11.66 6.67 -12.32 6.34 -13 6 C-11.6875 4.5 -11.6875 4.5 -10 3 C-9.01 3 -8.02 3 -7 3 C-7 2.34 -7 1.68 -7 1 C-3.375 -1.125 -3.375 -1.125 0 0 Z " fill="#C3C3C3" transform="translate(667,926)"/>
<path d="M0 0 C-1.6188996 1.03048037 -3.24532489 2.04914678 -4.875 3.0625 C-5.77992188 3.63097656 -6.68484375 4.19945312 -7.6171875 4.78515625 C-8.40351562 5.18605469 -9.18984375 5.58695313 -10 6 C-10.66 5.67 -11.32 5.34 -12 5 C-11.67 4.34 -11.34 3.68 -11 3 C-10.01 3 -9.02 3 -8 3 C-8 2.34 -8 1.68 -8 1 C-4.85571151 -0.9090323 -3.47925125 -1.04523725 0 0 Z " fill="#B4B4B4" transform="translate(948,764)"/>
<path d="M0 0 C1.98270912 0.95098266 3.96108379 1.91100703 5.9375 2.875 C7.03964844 3.40867187 8.14179687 3.94234375 9.27734375 4.4921875 C12 6 12 6 13 8 C8.00786149 7.53198701 3.87036007 5.08284263 0 2 C0 1.34 0 0.68 0 0 Z " fill="#B2B2B2" transform="translate(684,300)"/>
<path d="M0 0 C1.32 0.33 2.64 0.66 4 1 C2.37829621 2.00533667 0.75252763 3.00411907 -0.875 4 C-2.23238281 4.8353125 -2.23238281 4.8353125 -3.6171875 5.6875 C-6 7 -6 7 -8 7 C-7.67 6.01 -7.34 5.02 -7 4 C-5.68 4 -4.36 4 -3 4 C-3 3.34 -3 2.68 -3 2 C-2.01 2 -1.02 2 0 2 C0 1.34 0 0.68 0 0 Z " fill="#B1B1B1" transform="translate(433,1058)"/>
<path d="M0 0 C3.63 1.98 7.26 3.96 11 6 C9.68 6.33 8.36 6.66 7 7 C7 6.34 7 5.68 7 5 C5.824375 4.7834375 5.824375 4.7834375 4.625 4.5625 C2 4 2 4 0 3 C0 2.01 0 1.02 0 0 Z " fill="#C1C1C1" transform="translate(802,368)"/>
<path d="M0 0 C1.64936913 0.78427352 3.29441127 1.57765259 4.9375 2.375 C5.85402344 2.81585938 6.77054688 3.25671875 7.71484375 3.7109375 C10 5 10 5 11 7 C9.53633658 6.60246179 8.0791065 6.18118616 6.625 5.75 C5.81289063 5.51796875 5.00078125 5.2859375 4.1640625 5.046875 C1.54214546 3.7785108 1.00617682 2.67576692 0 0 Z " fill="#C5C5C5" transform="translate(916,434)"/>
<path d="M0 0 C3.59391114 1.33488128 6.75490696 2.96022723 10 5 C8.375 5.75 8.375 5.75 6 6 C2.75 4.1875 2.75 4.1875 0 2 C0 1.34 0 0.68 0 0 Z " fill="#A9A9A9" transform="translate(521,206)"/>
<path d="M0 0 C3.59391114 1.33488128 6.75490696 2.96022723 10 5 C8.375 5.75 8.375 5.75 6 6 C2.75 4.1875 2.75 4.1875 0 2 C0 1.34 0 0.68 0 0 Z " fill="#ABABAB" transform="translate(890,419)"/>
<path d="M0 0 C3.3 1.65 6.6 3.3 10 5 C10 5.33 10 5.66 10 6 C8.35 6 6.7 6 5 6 C5 5.34 5 4.68 5 4 C3.35 3.67 1.7 3.34 0 3 C0 2.01 0 1.02 0 0 Z " fill="#BBBBBB" transform="translate(814,375)"/>
<path d="M0 0 C3.3 1.65 6.6 3.3 10 5 C5.82412255 6.39195915 3.86525224 4.82323219 0 3 C0 2.01 0 1.02 0 0 Z " fill="#C3C3C3" transform="translate(625,266)"/>
<path d="M0 0 C-1.28813342 0.83878455 -2.58063256 1.67086783 -3.875 2.5 C-4.59429688 2.9640625 -5.31359375 3.428125 -6.0546875 3.90625 C-8 5 -8 5 -10 5 C-9.67 4.01 -9.34 3.02 -9 2 C-8.01 2 -7.02 2 -6 2 C-6 1.34 -6 0.68 -6 0 C-3 -1 -3 -1 0 0 Z " fill="#B9B9B9" transform="translate(517,1013)"/>
<path d="M0 0 C1.32 0.33 2.64 0.66 4 1 C2.71475739 1.86380259 1.42157581 2.71580369 0.125 3.5625 C-0.59429688 4.03816406 -1.31359375 4.51382813 -2.0546875 5.00390625 C-2.69664062 5.33261719 -3.33859375 5.66132812 -4 6 C-4.66 5.67 -5.32 5.34 -6 5 C-4.6875 3.5 -4.6875 3.5 -3 2 C-2.01 2 -1.02 2 0 2 C0 1.34 0 0.68 0 0 Z " fill="#CACACA" transform="translate(809,841)"/>
<path d="M0 0 C3.93673644 1.31224548 6.22719294 2.91910327 9 6 C6.03 5.01 3.06 4.02 0 3 C0 2.01 0 1.02 0 0 Z " fill="#B9B9B9" transform="translate(950,454)"/>
<path d="M0 0 C3.3 1.65 6.6 3.3 10 5 C5.82412255 6.39195915 3.86525224 4.82323219 0 3 C0 2.01 0 1.02 0 0 Z " fill="#ACACAC" transform="translate(570,234)"/>
<path d="M0 0 C3.3 1.65 6.6 3.3 10 5 C9.01 5.66 8.02 6.32 7 7 C7 6.34 7 5.68 7 5 C5.824375 4.7834375 5.824375 4.7834375 4.625 4.5625 C2 4 2 4 0 3 C0 2.01 0 1.02 0 0 Z " fill="#AAAAAA" transform="translate(532,212)"/>
<path d="M0 0 C3.3 1.65 6.6 3.3 10 5 C6 6 6 6 3.75 5.0625 C3.1725 4.711875 2.595 4.36125 2 4 C2 3.34 2 2.68 2 2 C1.34 2 0.68 2 0 2 C0 1.34 0 0.68 0 0 Z " fill="#BFBFBF" transform="translate(928,441)"/>
<path d="M0 0 C3.3 1.65 6.6 3.3 10 5 C6 6 6 6 3.75 5.0625 C3.1725 4.711875 2.595 4.36125 2 4 C2 3.34 2 2.68 2 2 C1.34 2 0.68 2 0 2 C0 1.34 0 0.68 0 0 Z " fill="#ADADAD" transform="translate(873,409)"/>
<path d="M0 0 C3.45925163 1.2491742 6.14693203 2.67527795 9 5 C5.625 4.75 5.625 4.75 2 4 C0.5625 1.9375 0.5625 1.9375 0 0 Z " fill="#A6A6A6" transform="translate(824,381)"/>
<path d="M0 0 C2.97 1.65 5.94 3.3 9 5 C6 6 6 6 2.8125 4.5625 C1.884375 4.046875 0.95625 3.53125 0 3 C0 2.01 0 1.02 0 0 Z " fill="#A5A5A5" transform="translate(792,362)"/>
<path d="M0 0 C3.3 1.65 6.6 3.3 10 5 C6 6 6 6 2.75 4.1875 C1.8425 3.465625 0.935 2.74375 0 2 C0 1.34 0 0.68 0 0 Z " fill="#BEBEBE" transform="translate(542,218)"/>
<path d="M0 0 C3.3 1.65 6.6 3.3 10 5 C6 6 6 6 2.75 4.1875 C1.8425 3.465625 0.935 2.74375 0 2 C0 1.34 0 0.68 0 0 Z " fill="#C0C0C0" transform="translate(415,145)"/>
<path d="M0 0 C4.455 1.98 4.455 1.98 9 4 C9 4.33 9 4.66 9 5 C2.25 4.125 2.25 4.125 0 3 C0 2.01 0 1.02 0 0 Z " fill="#B2B2B2" transform="translate(387,130)"/>
<path d="M0 0 C3.73487777 0.4979837 5.81237635 0.87491756 9 3 C9 3.66 9 4.32 9 5 C5.22454612 3.90931332 2.52956528 3.0916909 0 0 Z " fill="#C2C2C2" transform="translate(223,1088)"/>
<path d="M0 0 C2.79872437 2.52788007 4.45773019 4.20411134 5 8 C2 7 2 7 0 4 C0 2.68 0 1.36 0 0 Z " fill="#C7C7C7" transform="translate(1042,530)"/>
<path d="M0 0 C2.97 1.65 5.94 3.3 9 5 C8.01 5.495 8.01 5.495 7 6 C4.64018187 5.06421005 2.30368736 4.06652192 0 3 C0 2.01 0 1.02 0 0 Z " fill="#BCBCBC" transform="translate(615,260)"/>
<path d="M0 0 C0 0.66 0 1.32 0 2 C-3.21451269 3.60725635 -6.43612536 3.05748185 -10 3 C-6.41600853 0.61067235 -4.26804999 0 0 0 Z " fill="#A9A9A9" transform="translate(264,110)"/>
<path d="M0 0 C3.79588866 0.54226981 5.47211993 2.20127563 8 5 C7.67 5.66 7.34 6.32 7 7 C5 5.625 5 5.625 3 4 C3 3.34 3 2.68 3 2 C2.01 1.67 1.02 1.34 0 1 C0 0.67 0 0.34 0 0 Z " fill="#ABABAB" transform="translate(197,1068)"/>
<path d="M0 0 C0.66 0 1.32 0 2 0 C2.66 3.3 3.32 6.6 4 10 C1.7448078 7.7448078 1.02276532 5.9952413 0 3 C0 2.01 0 1.02 0 0 Z " fill="#A7A7A7" transform="translate(163,1013)"/>
<path d="M0 0 C-5.2734375 3.22265625 -5.2734375 3.22265625 -7 4 C-7.66 3.67 -8.32 3.34 -9 3 C-6.07868595 -0.19953443 -4.37453972 -1.45817991 0 0 Z " fill="#B3B3B3" transform="translate(933,773)"/>
<path d="M0 0 C-2.64 1.65 -5.28 3.3 -8 5 C-8.33 4.34 -8.66 3.68 -9 3 C-6.07868595 -0.19953443 -4.37453972 -1.45817991 0 0 Z " fill="#A2A2A2" transform="translate(988,739)"/>
</svg>
