<?xml version="1.0" encoding="UTF-8"?>
<svg version="1.1" xmlns="http://www.w3.org/2000/svg" width="1216" height="1216">
<path d="M0 0 C0.71326447 -0.00167175 1.42652893 -0.00334351 2.16140747 -0.00506592 C12.93216206 -0.00658005 23.06294295 0.68882164 33.5625 3.25 C34.4390625 3.41628906 35.315625 3.58257812 36.21875 3.75390625 C41.98319285 4.84954522 47.17382383 6.97231213 52.5625 9.25 C53.48933594 9.60964844 54.41617188 9.96929687 55.37109375 10.33984375 C71.16235618 16.56826997 86.73368704 25.94645207 98.5625 38.25 C99.30113281 38.96542969 100.03976562 39.68085938 100.80078125 40.41796875 C101.48527344 41.08441406 102.16976562 41.75085938 102.875 42.4375 C103.92107422 43.44876953 103.92107422 43.44876953 104.98828125 44.48046875 C106.5625 46.25 106.5625 46.25 106.5625 48.25 C107.2225 48.25 107.8825 48.25 108.5625 48.25 C110.00776736 49.98548169 111.3712222 51.78975963 112.6875 53.625 C113.77417969 55.12160156 113.77417969 55.12160156 114.8828125 56.6484375 C116.5625 59.25 116.5625 59.25 116.5625 61.25 C117.2225 61.25 117.8825 61.25 118.5625 61.25 C120.0710918 63.38845192 121.42501927 65.49994383 122.75 67.75 C123.35001831 68.76888306 123.35001831 68.76888306 123.9621582 69.80834961 C130.07645117 80.41303585 134.5058826 91.23042522 137.875 103 C138.11758545 103.81927979 138.3601709 104.63855957 138.61010742 105.48266602 C143.5338195 123.76253452 142.78656107 143.05160822 142.5390625 161.796875 C142.51282717 164.39144965 142.48756592 166.98603431 142.46322632 169.58062744 C142.40394517 175.65391501 142.33502246 181.72701914 142.26115549 187.80014443 C142.17743827 194.72904657 142.10645268 201.65806231 142.03638959 208.58711386 C141.89231506 222.80824111 141.73272938 237.02916291 141.5625 251.25 C142.22865326 250.86026505 142.89480652 250.47053009 143.58114624 250.06898499 C146.66554971 248.26513935 149.7507396 246.46264278 152.8359375 244.66015625 C154.40686157 243.74103455 154.40686157 243.74103455 156.00952148 242.80334473 C163.03381599 238.7011026 170.09378733 234.66837051 177.1875 230.6875 C185.5055521 226.00800694 193.74411723 221.21291197 201.94628906 216.33349609 C209.3974463 211.91208956 216.90828468 207.59908031 224.4375 203.3125 C233.31959899 198.25551978 242.17884328 193.16290357 251 188 C258.2914215 183.73313277 265.5978001 179.49581394 272.9375 175.3125 C289.74223941 165.73080825 306.50805194 156.09210081 323.125 146.1875 C332.94809784 140.33480746 342.86021486 134.6702757 352.85400391 129.11474609 C359.28248587 125.53835876 365.65661461 121.88922956 371.9831543 118.13598633 C378.29360746 114.39514909 384.64378219 110.72496122 391 107.0625 C392.65866089 106.10657959 392.65866089 106.10657959 394.35083008 105.13134766 C397.7544253 103.1703862 401.15841889 101.21011785 404.5625 99.25 C408.93800788 96.73004706 413.31306134 94.20930859 417.6875 91.6875 C418.76588135 91.06584961 419.8442627 90.44419922 420.95532227 89.80371094 C428.13008802 85.66377995 435.28753343 81.4950821 442.4375 77.3125 C452.30309448 71.54244362 462.21647958 65.85896729 472.15112305 60.20898438 C477.63052719 57.08964393 483.09508207 53.95042176 488.51171875 50.72265625 C505.15581587 40.81501836 522.25736295 31.93349605 539.5625 23.25 C540.91843262 22.56502441 540.91843262 22.56502441 542.30175781 21.86621094 C559.42488737 13.26465583 577.72148634 5.96052616 596.5625 2.25 C597.42359375 2.07629883 598.2846875 1.90259766 599.171875 1.72363281 C618.6821463 -1.91508467 639.45288873 -1.01835696 658.5625 4.25 C659.27003418 4.43723633 659.97756836 4.62447266 660.70654297 4.81738281 C670.84010751 7.54320575 680.24503654 11.44958949 689.5625 16.25 C690.54500732 16.75273438 690.54500732 16.75273438 691.54736328 17.265625 C701.79263968 22.57780701 710.7176876 28.86007841 719.5625 36.25 C720.28179688 36.8275 721.00109375 37.405 721.7421875 38 C725.393994 40.9863662 728.50881011 44.26857961 731.55078125 47.87109375 C733.061947 49.65808393 734.6069284 51.41656545 736.16796875 53.16015625 C742.83401822 60.67195058 747.90764734 68.36734539 752.5625 77.25 C753.02140625 78.054375 753.4803125 78.85875 753.953125 79.6875 C772.84682663 114.12665233 771.72422984 158.81360491 771.68948364 196.8115387 C771.69008365 199.57460049 771.69218627 202.33766071 771.69421089 205.10072178 C771.69780006 211.07941944 771.69772698 217.05810805 771.69516373 223.03680611 C771.69136239 231.92768293 771.69332472 240.81855219 771.69637203 249.70942897 C771.70162403 265.59340067 771.70118689 281.47736834 771.69829312 297.36134042 C771.69577334 311.26140631 771.69512283 325.16147072 771.69631577 339.06153679 C771.69643034 340.44685833 771.69643034 340.44685833 771.69654724 341.86016617 C771.69685859 345.60953661 771.697177 349.35890705 771.697507 353.10827749 C771.70056299 388.24860295 771.69779727 423.38892585 771.6924101 458.52925092 C771.68766444 489.72222008 771.68808981 520.91518517 771.69287109 552.1081543 C771.69823016 587.18746899 771.70034662 622.26678141 771.69725883 657.34609646 C771.69693813 661.0881573 771.69662529 664.83021814 771.69631577 668.57227898 C771.69623669 669.49360953 771.69615761 670.41494008 771.69607614 671.36418974 C771.69494054 685.25330263 771.69626544 699.14241389 771.69879532 713.03152657 C771.70165862 728.82945821 771.70093112 744.62738521 771.69551457 760.42531628 C771.69258585 769.25767099 771.69237566 778.09001562 771.69616075 786.92237005 C771.69841322 792.83207169 771.69698946 798.74176529 771.69265598 804.65146574 C771.69029167 808.01172917 771.68999206 811.37195643 771.69306196 814.73222167 C771.73825078 868.3245902 766.91154651 920.00238896 729.5625 961.25 C728.30574406 962.45419201 727.01945887 963.62955391 725.6875 964.75 C722.67503732 967.30121303 722.67503732 967.30121303 719.73046875 969.9296875 C689.69401156 997.37352417 651.10236909 1007.78632754 611.25341797 1006.43652344 C603.07562707 1006.02325235 595.41164016 1004.52531348 587.5625 1002.25 C586.6451709 1001.98687012 585.7278418 1001.72374023 584.78271484 1001.45263672 C569.04426381 996.81379719 554.29398123 990.41821953 539.5625 983.25 C538.56718262 982.77014648 537.57186523 982.29029297 536.54638672 981.79589844 C521.53578423 974.53701093 506.99421186 966.59204361 492.5625 958.25 C490.45981952 957.04004459 488.35695058 955.83041663 486.25390625 954.62109375 C480.78554402 951.47338064 475.32245647 948.31662623 469.86083984 945.15722656 C464.43052544 942.01721056 458.99633694 938.88391484 453.5625 935.75 C451.39581436 934.50003289 449.2291477 933.25003287 447.0625 932 C445.99 931.38125 444.9175 930.7625 443.8125 930.125 C434.06249999 924.5 434.06249999 924.5 430.81298828 922.62524414 C428.64473736 921.3743552 426.47644303 920.12354148 424.30810547 918.87280273 C418.91532085 915.76201665 413.52327907 912.64995762 408.1328125 909.53515625 C396.21357506 902.64981099 384.27789886 895.79443537 372.32287598 888.97149658 C363.68969305 884.04385248 355.0733047 879.08859185 346.4765625 874.09765625 C342.70548391 871.90929509 338.9279566 869.73234417 335.1484375 867.55859375 C315.19912507 856.08143691 315.19912507 856.08143691 305.68286133 850.31103516 C300.85396789 847.39462232 295.9450881 844.63990745 291.01733398 841.89599609 C285.28831363 838.69113117 279.6417206 835.35569243 274 832 C266.40680357 827.48616031 258.76534917 823.07399402 251.0625 818.75 C242.58699811 813.9918737 234.19921879 809.10537077 225.84741211 804.13378906 C218.18776206 799.58752234 210.44182613 795.20507852 202.67578125 790.84375 C197.42313132 787.88734048 192.21109268 784.8839575 187.0625 781.75 C178.96524292 776.82238533 170.69609123 772.20188458 162.43359375 767.55859375 C158.01016452 765.07203471 153.60015862 762.56289185 149.19555664 760.04321289 C148.23368816 759.49326031 148.23368816 759.49326031 147.252388 758.93219757 C145.68899977 758.038293 144.12573678 757.1441694 142.5625 756.25 C142.56526538 757.11909563 142.56526538 757.11909563 142.56808662 758.00574875 C142.61253845 772.19959173 142.64548774 786.39342408 142.66612434 800.58732224 C142.67637303 807.45179518 142.69030833 814.31622124 142.71337891 821.18066406 C142.73568276 827.82022229 142.74710947 834.45974507 142.75225449 841.09934235 C142.75591538 843.61712657 142.76306274 846.13490851 142.77396011 848.65267181 C142.93078082 886.42918628 142.93078082 886.42918628 137.875 903.5 C137.61299805 904.41346191 137.35099609 905.32692383 137.08105469 906.26806641 C130.33308877 929.00162102 117.36680844 951.33976692 99.5625 967.25 C98.9025 967.25 98.2425 967.25 97.5625 967.25 C97.2325 968.24 96.9025 969.23 96.5625 970.25 C95.9025 970.25 95.2425 970.25 94.5625 970.25 C94.2325 971.24 93.9025 972.23 93.5625 973.25 C90.78411662 975.85679676 87.64515663 978.01742285 84.5625 980.25 C83.70527344 980.88292969 82.84804688 981.51585937 81.96484375 982.16796875 C60.47250945 997.31235621 32.84663438 1006.44179801 6.5625 1007.25 C5.70140625 1007.28996094 4.8403125 1007.32992187 3.953125 1007.37109375 C-21.33593068 1008.02247852 -46.36767258 1001.27635466 -68.4375 989.25 C-69.53320312 988.65960937 -70.62890625 988.06921875 -71.7578125 987.4609375 C-78.5431407 983.66045956 -84.54524018 979.31544272 -90.4375 974.25 C-91.23671875 973.57324219 -92.0359375 972.89648438 -92.859375 972.19921875 C-97.84057931 967.86049462 -102.47912768 963.2474117 -107 958.4375 C-107.52513184 957.88618408 -108.05026367 957.33486816 -108.59130859 956.7668457 C-113.07440021 951.90756616 -113.07440021 951.90756616 -113.4375 948.25 C-114.0975 948.25 -114.7575 948.25 -115.4375 948.25 C-117.11116292 945.94909595 -118.63363387 943.66656292 -120.125 941.25 C-120.57125732 940.5288501 -121.01751465 939.8077002 -121.47729492 939.06469727 C-125.89621428 931.75223934 -129.35322995 924.20523389 -132.4375 916.25 C-132.89898437 915.0846875 -133.36046875 913.919375 -133.8359375 912.71875 C-141.34219589 892.15615127 -142.0338965 870.95892408 -141.94516886 849.30395615 C-141.93395777 845.45971684 -141.94632876 841.61553325 -141.95547634 837.77129829 C-141.96829281 831.05686472 -141.96648802 824.34256361 -141.95469666 817.62812996 C-141.93721076 807.64337556 -141.94285137 797.65872403 -141.95286357 787.67396409 C-141.97000243 769.83633823 -141.96454894 751.99877408 -141.94950638 734.16114954 C-141.93643061 718.55445807 -141.93126327 702.94778795 -141.93382454 687.34109116 C-141.93398495 686.30399286 -141.93414537 685.26689456 -141.93431065 684.19836904 C-141.93497428 679.98802294 -141.9356767 675.77767685 -141.93643599 671.56733078 C-141.9434516 632.11536042 -141.92799588 592.66342766 -141.90181253 553.21146687 C-141.87868918 518.18458591 -141.87331399 483.15774625 -141.88354492 448.13085938 C-141.88614708 439.15699833 -141.88873213 430.18313729 -141.89114285 421.2092762 C-141.89144029 420.10437646 -141.89173774 418.99947673 -141.8920442 417.86109518 C-141.89966276 388.56000718 -141.89324386 359.25892254 -141.88244683 329.95783603 C-141.88129906 326.80433987 -141.88015588 323.65084371 -141.87902 320.49734755 C-141.87826476 318.40555937 -141.87749911 316.31377118 -141.87672299 314.22198301 C-141.87107123 298.62350112 -141.8723901 283.02502993 -141.87695122 267.426548 C-141.88206391 249.69008426 -141.876184 231.95366047 -141.85605692 214.21720667 C-141.84508966 204.2981464 -141.84225974 194.37916472 -141.85134545 184.46010209 C-141.85657991 177.82744192 -141.85082823 171.19484876 -141.83629211 164.56220264 C-141.82831847 160.78824051 -141.82491373 157.01443674 -141.83486467 153.24047567 C-141.87023368 138.64678135 -141.88017915 124.50847401 -138.4375 110.25 C-138.28342003 109.59041956 -138.12934006 108.93083911 -137.970591 108.25127138 C-134.07403447 91.58920957 -127.4456518 77.63802024 -118.4375 63.25 C-117.8084375 62.23550781 -117.179375 61.22101563 -116.53125 60.17578125 C-113.6777964 55.72075688 -113.6777964 55.72075688 -112.4375 54.25 C-111.7775 54.25 -111.1175 54.25 -110.4375 54.25 C-110.06238281 53.40115234 -110.06238281 53.40115234 -109.6796875 52.53515625 C-96.81791004 28.87433923 -65.14200893 12.90173653 -40.4375 5.25 C-26.91893218 1.45318233 -14.03197104 0.01731422 0 0 Z " fill="#FEFEFE" transform="translate(292.4375,104.75)"/>
<path d="M0 0 C-6.06224407 3.32445643 -13.13938387 4.36108506 -20 4 C-20 3.34 -20 2.68 -20 2 C-13.23514355 0.3879491 -6.95041086 -0.26618595 0 0 Z " fill="#A7A7A7" transform="translate(952,1106)"/>
<path d="M0 0 C-1 3 -1 3 -3.875 4.6875 C-7 6 -7 6 -10 6 C-10 6.66 -10 7.32 -10 8 C-13 10 -13 10 -15.1875 9.625 C-15.785625 9.41875 -16.38375 9.2125 -17 9 C-14.54481265 7.49462965 -12.0861548 5.99555574 -9.625 4.5 C-8.92632813 4.07074219 -8.22765625 3.64148438 -7.5078125 3.19921875 C-2.2265625 0 -2.2265625 0 0 0 Z " fill="#C2C2C2" transform="translate(626,246)"/>
<path d="M0 0 C-1 3 -1 3 -2.63671875 3.87890625 C-3.31347656 4.10449219 -3.99023438 4.33007812 -4.6875 4.5625 C-5.40808594 4.80613281 -6.12867188 5.04976563 -6.87109375 5.30078125 C-7.57363281 5.53152344 -8.27617188 5.76226562 -9 6 C-10.0725 6.4125 -11.145 6.825 -12.25 7.25 C-15.13958063 8.03806745 -16.2221625 7.83097703 -19 7 C-16.2100561 5.82905995 -13.41821403 4.66309073 -10.625 3.5 C-9.43390625 2.99919922 -9.43390625 2.99919922 -8.21875 2.48828125 C-7.45820312 2.17246094 -6.69765625 1.85664062 -5.9140625 1.53125 C-5.2123291 1.23798828 -4.5105957 0.94472656 -3.78759766 0.64257812 C-2 0 -2 0 0 0 Z " fill="#BABABA" transform="translate(866,114)"/>
<path d="M0 0 C0 0.66 0 1.32 0 2 C-0.99 2 -1.98 2 -3 2 C-3.33 2.99 -3.66 3.98 -4 5 C-5.98 5.33 -7.96 5.66 -10 6 C-10 6.66 -10 7.32 -10 8 C-13 10 -13 10 -15.1875 9.625 C-15.785625 9.41875 -16.38375 9.2125 -17 9 C-14.54481265 7.49462965 -12.0861548 5.99555574 -9.625 4.5 C-8.92632813 4.07074219 -8.22765625 3.64148438 -7.5078125 3.19921875 C-2.2265625 0 -2.2265625 0 0 0 Z " fill="#B8B8B8" transform="translate(671,220)"/>
<path d="M0 0 C0.66 0.33 1.32 0.66 2 1 C-2.58503612 6.87457753 -7.78654823 11.85769882 -14 16 C-10.88847163 9.29260159 -5.73988517 4.50990977 0 0 Z " fill="#BCBCBC" transform="translate(1025,1059)"/>
<path d="M0 0 C6.97669157 -0.39325819 12.51656189 0.36903961 19 3 C19 3.33 19 3.66 19 4 C12.50149789 3.48446121 6.33773468 2.53332291 0 1 C0 0.67 0 0.34 0 0 Z " fill="#B3B3B3" transform="translate(880,1106)"/>
<path d="M0 0 C4.75 0.875 4.75 0.875 7 2 C7 2.66 7 3.32 7 4 C7.763125 4.103125 8.52625 4.20625 9.3125 4.3125 C12.17059424 5.04364039 13.15742885 5.76951913 15 8 C14.01 8.495 14.01 8.495 13 9 C10.70539919 7.77896564 8.55906377 6.52037408 6.375 5.125 C5.76398437 4.74730469 5.15296875 4.36960937 4.5234375 3.98046875 C2.99375114 3.02100029 1.49395605 2.01420678 0 1 C0 0.67 0 0.34 0 0 Z " fill="#C0C0C0" transform="translate(514,905)"/>
<path d="M0 0 C0 0.66 0 1.32 0 2 C-0.99 2 -1.98 2 -3 2 C-3.33 2.99 -3.66 3.98 -4 5 C-9.09915632 8.17280838 -9.09915632 8.17280838 -12.19921875 7.578125 C-12.79347656 7.38734375 -13.38773438 7.1965625 -14 7 C-12.04480616 5.82807953 -10.0857461 4.6626071 -8.125 3.5 C-7.03445313 2.8503125 -5.94390625 2.200625 -4.8203125 1.53125 C-2 0 -2 0 0 0 Z " fill="#B6B6B6" transform="translate(801,145)"/>
<path d="M0 0 C1.32 0 2.64 0 4 0 C4 0.66 4 1.32 4 2 C4.721875 2.061875 5.44375 2.12375 6.1875 2.1875 C9.84657625 3.24456647 11.49211602 5.20550071 14 8 C9.02790438 6.23570801 4.56561939 3.6060834 0 1 C0 0.67 0 0.34 0 0 Z " fill="#C7C7C7" transform="translate(434,859)"/>
<path d="M0 0 C1.32 0 2.64 0 4 0 C4 0.66 4 1.32 4 2 C4.763125 2.103125 5.52625 2.20625 6.3125 2.3125 C9.17059424 3.04364039 10.15742885 3.76951913 12 6 C11.01 6.495 11.01 6.495 10 7 C7.6171875 5.8203125 7.6171875 5.8203125 4.875 4.125 C3.96492187 3.57070313 3.05484375 3.01640625 2.1171875 2.4453125 C1.41851563 1.96835937 0.71984375 1.49140625 0 1 C0 0.67 0 0.34 0 0 Z " fill="#C6C6C6" transform="translate(583,945)"/>
<path d="M0 0 C2.97 0.495 2.97 0.495 6 1 C6 1.66 6 2.32 6 3 C6.99 3 7.98 3 9 3 C9 3.66 9 4.32 9 5 C10.32 5.33 11.64 5.66 13 6 C10 7 10 7 7.51953125 5.8203125 C6.62621094 5.26085937 5.73289062 4.70140625 4.8125 4.125 C3.91144531 3.57070313 3.01039063 3.01640625 2.08203125 2.4453125 C1.39496094 1.96835937 0.70789063 1.49140625 0 1 C0 0.67 0 0.34 0 0 Z " fill="#AEAEAE" transform="translate(484,888)"/>
<path d="M0 0 C0 0.99 0 1.98 0 3 C-2.75 5.25 -2.75 5.25 -6 7 C-7.32 6.67 -8.64 6.34 -10 6 C-6.7 4.02 -3.4 2.04 0 0 Z " fill="#A8A8A8" transform="translate(458,342)"/>
<path d="M0 0 C-1 3 -1 3 -2.99609375 4.203125 C-3.80175781 4.54859375 -4.60742188 4.8940625 -5.4375 5.25 C-6.24058594 5.60578125 -7.04367187 5.9615625 -7.87109375 6.328125 C-10 7 -10 7 -12 6 C-10.37829621 4.99466333 -8.75252763 3.99588093 -7.125 3 C-5.76761719 2.1646875 -5.76761719 2.1646875 -4.3828125 1.3125 C-2 0 -2 0 0 0 Z " fill="#A7A7A7" transform="translate(543,294)"/>
<path d="M0 0 C-0.98093954 2.45234885 -1.68703828 3.7809268 -3.875 5.3125 C-6.37345514 6.12082372 -7.52928976 5.71847013 -10 5 C-8.71186658 4.16121545 -7.41936744 3.32913217 -6.125 2.5 C-5.40570312 2.0359375 -4.68640625 1.571875 -3.9453125 1.09375 C-2 0 -2 0 0 0 Z " fill="#C9C9C9" transform="translate(702,202)"/>
<path d="M0 0 C0 0.66 0 1.32 0 2 C-0.66 2 -1.32 2 -2 2 C-2 2.66 -2 3.32 -2 4 C-5.47307692 6.10865385 -5.47307692 6.10865385 -8.140625 5.55859375 C-9.06101562 5.28208984 -9.06101562 5.28208984 -10 5 C-8.71186658 4.16121545 -7.41936744 3.32913217 -6.125 2.5 C-5.40570312 2.0359375 -4.68640625 1.571875 -3.9453125 1.09375 C-2 0 -2 0 0 0 Z " fill="#BCBCBC" transform="translate(740,180)"/>
<path d="M0 0 C1.32 0 2.64 0 4 0 C4 0.66 4 1.32 4 2 C5.65 2.33 7.3 2.66 9 3 C9 3.66 9 4.32 9 5 C9.66 5 10.32 5 11 5 C10.67 5.66 10.34 6.32 10 7 C8.33073546 6.02526874 6.66464358 5.04510211 5 4.0625 C4.071875 3.51722656 3.14375 2.97195313 2.1875 2.41015625 C1.465625 1.94480469 0.74375 1.47945312 0 1 C0 0.67 0 0.34 0 0 Z " fill="#A5A5A5" transform="translate(600,955)"/>
<path d="M0 0 C0.66 0.33 1.32 0.66 2 1 C-0.00979059 4.01468588 -0.70736015 4.83789182 -4 6 C-6.1328125 5.546875 -6.1328125 5.546875 -8 5 C-6.71475739 4.13619741 -5.42157581 3.28419631 -4.125 2.4375 C-3.04605469 1.72400391 -3.04605469 1.72400391 -1.9453125 0.99609375 C-1.30335938 0.66738281 -0.66140625 0.33867187 0 0 Z " fill="#C0C0C0" transform="translate(586,268)"/>
<path d="M0 0 C0 0.66 0 1.32 0 2 C-2.52475462 3.26237731 -4.31200466 3.09856404 -7.125 3.0625 C-8.03507813 3.05347656 -8.94515625 3.04445313 -9.8828125 3.03515625 C-10.58148437 3.02355469 -11.28015625 3.01195313 -12 3 C-7.97258718 0.8965105 -4.56872973 0 0 0 Z " fill="#ABABAB" transform="translate(892,107)"/>
<path d="M0 0 C0 0.66 0 1.32 0 2 C-0.99 2 -1.98 2 -3 2 C-3 2.66 -3 3.32 -3 4 C-6 6 -6 6 -8.1875 5.625 C-8.785625 5.41875 -9.38375 5.2125 -10 5 C-8.71186658 4.16121545 -7.41936744 3.32913217 -6.125 2.5 C-5.40570313 2.0359375 -4.68640625 1.571875 -3.9453125 1.09375 C-2 0 -2 0 0 0 Z " fill="#BFBFBF" transform="translate(486,327)"/>
<path d="M0 0 C0 0.66 0 1.32 0 2 C-0.99 2 -1.98 2 -3 2 C-3 2.66 -3 3.32 -3 4 C-6 6 -6 6 -8.1875 5.625 C-8.785625 5.41875 -9.38375 5.2125 -10 5 C-8.71186658 4.16121545 -7.41936744 3.32913217 -6.125 2.5 C-5.40570312 2.0359375 -4.68640625 1.571875 -3.9453125 1.09375 C-2 0 -2 0 0 0 Z " fill="#B7B7B7" transform="translate(723,190)"/>
<path d="M0 0 C0 0.66 0 1.32 0 2 C-0.99 2 -1.98 2 -3 2 C-3 2.66 -3 3.32 -3 4 C-6 6 -6 6 -8.1875 5.625 C-8.785625 5.41875 -9.38375 5.2125 -10 5 C-8.71186658 4.16121545 -7.41936744 3.32913217 -6.125 2.5 C-5.40570312 2.0359375 -4.68640625 1.571875 -3.9453125 1.09375 C-2 0 -2 0 0 0 Z " fill="#ADADAD" transform="translate(761,168)"/>
<path d="M0 0 C3.91211733 1.15585285 6.8745041 2.35534962 10 5 C3.375 4.25 3.375 4.25 0 2 C0 1.34 0 0.68 0 0 Z " fill="#B8B8B8" transform="translate(976,119)"/>
<path d="M0 0 C3.375 0.25 3.375 0.25 7 1 C8.4375 3.0625 8.4375 3.0625 9 5 C5.54074837 3.7508258 2.85306797 2.32472205 0 0 Z " fill="#AFAFAF" transform="translate(803,1072)"/>
<path d="M0 0 C1.4835001 0.42257276 2.96176424 0.86356322 4.4375 1.3125 C5.67306641 1.67794922 5.67306641 1.67794922 6.93359375 2.05078125 C7.61550781 2.36402344 8.29742188 2.67726563 9 3 C9.33 3.99 9.66 4.98 10 6 C6.40992874 4.66654496 3.20429093 3.1056769 0 1 C0 0.67 0 0.34 0 0 Z " fill="#AAAAAA" transform="translate(685,1004)"/>
<path d="M0 0 C0.33 0.66 0.66 1.32 1 2 C0.22265625 3.7265625 0.22265625 3.7265625 -0.9375 5.625 C-1.618125 6.73875 -2.29875 7.8525 -3 9 C-3.89674777 6.48910624 -4.13172674 5.35464891 -3.1875 2.8125 C-2 1 -2 1 0 0 Z " fill="#ADADAD" transform="translate(1043,1034)"/>
<path d="M0 0 C1.4835001 0.42257276 2.96176424 0.86356322 4.4375 1.3125 C5.67306641 1.67794922 5.67306641 1.67794922 6.93359375 2.05078125 C7.61550781 2.36402344 8.29742188 2.67726563 9 3 C9.33 3.99 9.66 4.98 10 6 C6.40992874 4.66654496 3.20429093 3.1056769 0 1 C0 0.67 0 0.34 0 0 Z " fill="#A9A9A9" transform="translate(723,1026)"/>
<path d="M0 0 C3.37462715 0.54723683 5.08235 1.0549 8 3 C8 3.66 8 4.32 8 5 C2.25 3.375 2.25 3.375 0 0 Z " fill="#B2B2B2" transform="translate(630,972)"/>
<path d="M0 0 C0.33 0.66 0.66 1.32 1 2 C0.34 2 -0.32 2 -1 2 C-1 2.66 -1 3.32 -1 4 C-1.99 4.66 -2.98 5.32 -4 6 C-5.32 5.67 -6.64 5.34 -8 5 C-4.04 2.525 -4.04 2.525 0 0 Z " fill="#ACACAC" transform="translate(617,250)"/>
<path d="M0 0 C0 0.99 0 1.98 0 3 C-1.98 3.66 -3.96 4.32 -6 5 C-6.66 4.34 -7.32 3.68 -8 3 C-2.25 0 -2.25 0 0 0 Z " fill="#B5B5B5" transform="translate(820,135)"/>
<path d="M0 0 C-0.33 0.99 -0.66 1.98 -1 3 C-5.455 3.495 -5.455 3.495 -10 4 C-6.86268382 1.90845588 -3.85464592 0 0 0 Z " fill="#A8A8A8" transform="translate(866,114)"/>
<path d="M0 0 C0 0.66 0 1.32 0 2 C-2.70879335 3.35439668 -5.00933268 3.06501451 -8 3 C-8 2.34 -8 1.68 -8 1 C-5.23735711 0.40267181 -2.83967231 0 0 0 Z " fill="#BCBCBC" transform="translate(940,1107)"/>
<path d="M0 0 C1.32 0 2.64 0 4 0 C4 0.66 4 1.32 4 2 C5.32 2.33 6.64 2.66 8 3 C8 3.66 8 4.32 8 5 C4.62496331 3.8141763 2.35277269 2.72426311 0 0 Z " fill="#B5B5B5" transform="translate(772,1054)"/>
<path d="M0 0 C1.32 0 2.64 0 4 0 C4 0.66 4 1.32 4 2 C5.65 2.33 7.3 2.66 9 3 C9 3.66 9 4.32 9 5 C5.22454612 3.90931332 2.52956528 3.0916909 0 0 Z " fill="#BBBBBB" transform="translate(754,1044)"/>
<path d="M0 0 C2.97 0.495 2.97 0.495 6 1 C6 1.66 6 2.32 6 3 C6.99 3 7.98 3 9 3 C9 3.66 9 4.32 9 5 C5.22454612 3.90931332 2.52956528 3.0916909 0 0 Z " fill="#C9C9C9" transform="translate(550,926)"/>
<path d="M0 0 C1.32 0 2.64 0 4 0 C4 0.66 4 1.32 4 2 C5.65 2.33 7.3 2.66 9 3 C9 3.66 9 4.32 9 5 C5.22454612 3.90931332 2.52956528 3.0916909 0 0 Z " fill="#A8A8A8" transform="translate(496,895)"/>
</svg>
